<?xml version="1.0" encoding="UTF-8"?>
<svg id="Layer_1" data-name="Layer 1" xmlns="http://www.w3.org/2000/svg" viewBox="0 0 360 504">
  <g id="address" opacity=".6">
    <text transform="translate(134.6 358.5) rotate(.4) scale(.9 1)" fill="#0047af" font-family="'Secular One'" font-size="11"><tspan x="0" y="0">2267 56TH STREET</tspan></text>
  </g>
  <g id="at_home_of*" opacity=".6">
    <text transform="translate(153.4 343.3) rotate(.4) scale(.9 1)" fill="#0047af" font-family="'Secular One'" font-size="11"><tspan x="0" y="0">בבית מו״ח</tspan></text>
  </g>
  <g id="bris_date" opacity=".6">
    <text transform="translate(110.2 327.7) rotate(.4) scale(.9 1)" fill="#0047af" font-family="'Secular One'" font-size="11"><tspan x="0" y="0">שתתקיים אי׳׳ה למחרתו ביום ה׳</tspan></text>
  </g>
  <g id="vachnacht_word1*" opacity=".6">
    <text transform="translate(117.4 308.7) rotate(.4) scale(.6 1)" fill="#0047af" font-family="'Secular One'" font-size="106.6"><tspan x="0" y="0">נאכט</tspan></text>
  </g>
  <g id="vachnacht_word2*" opacity=".6">
    <text transform="translate(125.1 230.1) rotate(.1) scale(.6 1)" fill="#0047af" font-family="'Secular One'" font-size="106.6"><tspan x="0" y="0">וואך</tspan></text>
  </g>
  <g id="invite_text*" opacity=".6">
    <text transform="translate(107.3 151.5) rotate(.4) scale(.9 1)" fill="#0047af" font-family="'Gveret Levin AlefAlefAlef'" font-size="8"><tspan x="0" y="0">אתכבד בזה להזמין את כמע׳׳כ לבוא להשתתף בשמחתל</tspan></text>
  </g>
  <g id="birth_celebration*" opacity=".6">
    <text transform="translate(116.4 134.3) rotate(.4) scale(.9 1)" fill="#0047af" font-family="'Secular One'" font-size="13.9"><tspan x="0" y="0">בהולדת בני נ״י למזל טוב</tspan></text>
  </g>
  <g id="praise_text*" opacity=".6">
    <text transform="translate(133.6 117.1) rotate(.4) scale(.9 1)" fill="#0047af" font-family="'Gveret Levin AlefAlefAlef'" font-size="10.4"><tspan x="0" y="0">ברוב שבח והודאה להשי״ת</tspan></text>
  </g>
  <g id="father_name" opacity=".6">
    <text transform="translate(109.4 409.2) rotate(.4) scale(.9 1)" fill="#0047af" font-family="'Secular One'" font-size="30.5"><tspan x="0" y="0">מרדכי ראטה</tspan></text>
  </g>
  <g id="awaiting_you*" opacity=".6">
    <text transform="translate(130.1 385) rotate(.4) scale(.9 1)" fill="#0047af" font-family="'Secular One'" font-size="13.9"><tspan x="0" y="0">המצפה לקבל פניכם</tspan></text>
  </g>
</svg>
