<svg xmlns="http://www.w3.org/2000/svg" id="Layer_1" data-name="Layer 1" viewBox="0 0 360 504">
  <g id="father_name_2*">
    <text transform="translate(264.6 486.5) scale(.7 1)" text-anchor="start" fill="#875728" font-family="Heebo" font-size="8.1" font-weight="600"><tspan x="0" y="0">חתן יהודה גרינבערגער הי״וו</tspan></text>
  </g>
  <g id="father_name_1*">
    <text transform="translate(272.8 478.4) scale(.7 1)" text-anchor="start" fill="#875728" font-family="Heebo" font-size="8.1" font-weight="600"><tspan x="0" y="0">ב״ר שמחה ברוך הי״וו</tspan></text>
  </g>
  <g id="host_name*">
    <text transform="translate(255.2 469.3) scale(.7 1)" text-anchor="start" fill="#875728" font-family="Heebo" font-size="12.7" font-weight="600"><tspan x="0" y="0">שמעון לוי ברענאוויטש</tspan></text>
  </g>
  <g id="street*">
    <text transform="translate(217.1 286.8) scale(.7 1)" text-anchor="start" fill="#875728" font-family="Heebo" font-size="12.1" font-weight="600"><tspan x="0" y="0">1247 38th St</tspan></text>
  </g>
  <g id="location*">
    <text transform="translate(188.8 273.7) scale(.7 1)" text-anchor="start" fill="#875728" font-family="Heebo" font-size="12.7" font-weight="600"><tspan x="0" y="0">בביהמ״ד קהל חסידי בעלזא</tspan></text>
  </g>
  <text transform="translate(214.8 261.3) scale(.7 1)" text-anchor="start" fill="#875728" font-family="Heebo" font-size="11.8" font-weight="600"><tspan x="0" y="0">יתקיים למחרתו</tspan></text>
  <g id="street_2*">
    <text transform="translate(213.9 190.5) scale(.7 1)" text-anchor="start" fill="#875728" font-family="Heebo" font-size="12.1" font-weight="600"><tspan x="0" y="0">5015 15th Ave</tspan></text>
  </g>
  <g id="hall*">
    <text transform="translate(213.6 180.1) scale(.7 1)" text-anchor="start" fill="#875728" font-family="Heebo" font-size="12.1" font-weight="600"><tspan x="0" y="0">באולם פרדס נח</tspan></text>
  </g>
  <g id="date*">
    <text transform="translate(201.4 165.5) scale(.7 1)" text-anchor="start" fill="#875728" font-family="Heebo" font-size="12.7" font-weight="600"><tspan x="0" y="0">בליל ג׳ פרשת שמות</tspan></text>
  </g>
  <text transform="translate(215.2 153.2) scale(.7 1)" text-anchor="start" fill="#875728" font-family="Heebo" font-size="11.8" font-weight="600"><tspan x="0" y="0">שתתקיים אי״ה</tspan></text>
  <text transform="translate(171.3 67.4) scale(.7 1)" text-anchor="start" fill="#875728" font-family="Heebo" font-size="9" font-weight="600"><tspan x="0" y="0">הננו מזמינים בזה את ידידינו קרובינו ומכובדינו שיחי׳</tspan></text>
  <text transform="translate(207 77.1) scale(.7 1)" text-anchor="start" fill="#875728" font-family="Heebo" font-size="10" font-weight="600"><tspan x="0" y="0">לבוא להשתתף בשמחת</tspan></text>
  <text transform="translate(157.8 58.1) scale(.7 1)" text-anchor="start" fill="#875728" font-family="Heebo" font-size="11" font-weight="600"><tspan x="0" y="0">מתוך שבח והודאה להשי״ת על כל הטוב אשר גמלנו</tspan></text>
</svg>
