<svg xmlns="http://www.w3.org/2000/svg" id="Layer_1" data-name="Layer 1" viewBox="0 0 360 504">
  <g id="father_name_2*">
    <text transform="translate(280.5 195) scale(.7 1)" text-anchor="start" fill="#58575d" font-family="Heebo" font-size="7" font-weight="400"><tspan x="0" y="0">חתן יהודה גרינבערגער הי״וו</tspan></text>
  </g>
  <g id="father_name_1*">
    <text transform="translate(292.7 189.5) scale(.7 1)" text-anchor="start" fill="#58575d" font-family="Heebo" font-size="7" font-weight="400"><tspan x="0" y="0">ב״ר שמחה ברוך הי״וו</tspan></text>
  </g>
  <g id="host_name*">
    <text transform="translate(259.2 179.7) scale(.7 1)" text-anchor="start" fill="#58575d" font-family="Heebo" font-size="11" font-weight="600"><tspan x="0" y="0">שמעון לוי ברענאוויטש</tspan></text>
  </g>
  <g id="street*">
    <text transform="translate(303.4 164.9) scale(.7 1)" text-anchor="start" fill="#58575d" font-family="Heebo" font-size="8" font-weight="400"><tspan x="0" y="0">1247 38th St</tspan></text>
  </g>
  <g id="location*">
    <text transform="translate(259.9 155.7) scale(.7 1)" text-anchor="start" fill="#58575d" font-family="Heebo" font-size="9.3" font-weight="600"><tspan x="0" y="0">בביהמ״ד קהל חסידי בעלזא</tspan></text>
  </g>
  <text transform="translate(294.5 147.2) scale(.7 1)" text-anchor="start" fill="#58575d" font-family="Heebo" font-size="9.3" font-weight="400"><tspan x="0" y="0">יתקיים למחרתו</tspan></text>
  <g id="street_2*">
    <text transform="translate(291.9 112.5) scale(.7 1)" text-anchor="start" fill="#58575d" font-family="Heebo" font-size="9" font-weight="400"><tspan x="0" y="0">5015 15th Ave</tspan></text>
  </g>
  <g id="hall*">
    <text transform="translate(287.2 104.4) scale(.7 1)" text-anchor="start" fill="#58575d" font-family="Heebo" font-size="10" font-weight="600"><tspan x="0" y="0">באולם פרדס נח</tspan></text>
  </g>
  <g id="date*">
    <text transform="translate(282.2 94.7) scale(.7 1)" text-anchor="start" fill="#58575d" font-family="Heebo" font-size="9" font-weight="400"><tspan x="0" y="0">בליל ג׳ פרשת שמות</tspan></text>
  </g>
  <text transform="translate(273.7 82) scale(.7 1)" text-anchor="start" fill="#58575d" font-family="Heebo" font-size="14" font-weight="400"><tspan x="0" y="0">שתתקיים אי״ה</tspan></text>
  <text transform="translate(171.4 47.5) scale(.7 1)" text-anchor="start" fill="#58575d" font-family="Heebo" font-size="11" font-weight="400"><tspan x="0" y="0">הננו מזמינים בזה את ידידינו קרובינו ומכובדינו שיחי׳</tspan></text>
  <text transform="translate(261 58.9) scale(.7 1)" text-anchor="start" fill="#58575d" font-family="Heebo" font-size="11" font-weight="400"><tspan x="0" y="0">לבוא להשתתף בשמחת</tspan></text>
  <text transform="translate(174.2 36.3) scale(.7 1)" text-anchor="start" fill="#58575d" font-family="Heebo" font-size="11" font-weight="400"><tspan x="0" y="0">מתוך שבח והודאה להשי״ת על כל הטוב אשר גמלנו</tspan></text>
</svg>
