<svg xmlns="http://www.w3.org/2000/svg" id="Layer_1" data-name="Layer 1" viewBox="0 0 360 504">
  <g id="father_name_2*">
    <text transform="translate(141.5 482.1) scale(.7 1)" text-anchor="start" fill="#f3e9d1" font-family="Heebo" font-size="9.3" font-weight="600"><tspan x="0" y="0">חתן יהודה גרינבערגער הי״וו</tspan></text>
  </g>
  <g id="father_name_1*">
    <text transform="translate(150.7 471.6) scale(.7 1)" text-anchor="start" fill="#f3e9d1" font-family="Heebo" font-size="9.3" font-weight="600"><tspan x="0" y="0">ב״ר שמחה ברוך הי״וו</tspan></text>
  </g>
  <g id="host_name*">
    <text transform="translate(148.2 461.9) scale(.7 1)" text-anchor="start" fill="#f3e9d1" font-family="Heebo" font-size="9.3" font-weight="600"><tspan x="0" y="0">שמעון לוי ברענאוויטש</tspan></text>
  </g>
  <g id="street*">
    <text transform="translate(163.6 362.3) scale(.7 1)" text-anchor="start" fill="#d3ac6b" font-family="Heebo" font-size="8"><tspan x="0" y="0">1247 38th St</tspan></text>
  </g>
  <g id="location*">
    <text transform="translate(148.6 353.2) scale(.7 1)" text-anchor="start" fill="#d3ac6b" font-family="Heebo" font-size="8"><tspan x="0" y="0">בביהמ״ד קהל חסידי בעלזא</tspan></text>
  </g>
  <text transform="translate(162.1 344.7) scale(.7 1)" text-anchor="start" fill="#d3ac6b" font-family="Heebo" font-size="8"><tspan x="0" y="0">יתקיים למחרתו</tspan></text>
  <g id="street_2*">
    <text transform="translate(161.5 274.4) scale(.7 1)" text-anchor="start" fill="#d3ac6b" font-family="Heebo" font-size="8"><tspan x="0" y="0">5015 15th Ave</tspan></text>
  </g>
  <g id="hall*">
    <text transform="translate(161.7 263.8) scale(.7 1)" text-anchor="start" fill="#d3ac6b" font-family="Heebo" font-size="8"><tspan x="0" y="0">באולם פרדס נח</tspan></text>
  </g>
  <g id="date*">
    <text transform="translate(148.1 253.5) scale(.7 1)" text-anchor="start" fill="#d3ac6b" font-family="Heebo" font-size="11"><tspan x="0" y="0">בליל ג׳ פרשת שמות</tspan></text>
  </g>
  <text transform="translate(162.6 242.2) scale(.7 1)" text-anchor="start" fill="#d3ac6b" font-family="Heebo" font-size="8"><tspan x="0" y="0">שתתקיים אי״ה</tspan></text>
  <text transform="translate(135.1 165.4) scale(.7 1)" text-anchor="start" fill="#d3ac6b" font-family="Heebo" font-size="6"><tspan x="0" y="0">הננו מזמינים בזה את ידידינו קרובינו ומכובדינו שיחי׳</tspan></text>
  <text transform="translate(152.9 173.9) scale(.7 1)" text-anchor="start" fill="#d3ac6b" font-family="Heebo" font-size="8"><tspan x="0" y="0">לבוא להשתתף בשמחת</tspan></text>
  <text transform="translate(121.3 158.2) scale(.7 1)" text-anchor="start" fill="#d3ac6b" font-family="Heebo" font-size="8"><tspan x="0" y="0">מתוך שבח והודאה להשי״ת על כל הטוב אשר גמלנו</tspan></text>
</svg>
