<svg xmlns="http://www.w3.org/2000/svg" id="Layer_1" data-name="Layer 1" viewBox="0 0 360 504">
  <g id="father_name_2*">
    <text transform="translate(122.2 403.9) scale(.9 1)" text-anchor="start" fill="#9c8467" font-family="Heebo" font-size="12.1" font-weight="400"><tspan x="0" y="0">חתן יהודה גרינבערגער הי״וו</tspan></text>
  </g>
  <g id="father_name_1*">
    <text transform="translate(136 390.4) scale(.9 1)" text-anchor="start" fill="#9c8467" font-family="Heebo" font-size="12.1" font-weight="400"><tspan x="0" y="0">ב״ר שמחה ברוך הי״וו</tspan></text>
  </g>
  <g id="host_name*">
    <text transform="translate(132 377.7) scale(.9 1)" text-anchor="start" fill="#9c8467" font-family="Heebo" font-size="12.1" font-weight="400"><tspan x="0" y="0">שמעון לוי ברענאוויטש</tspan></text>
  </g>
  <g id="street*">
    <text transform="translate(150.1 348.9) scale(.9 1)" text-anchor="start" fill="#9c8467" font-family="Heebo" font-size="12.1" font-weight="400"><tspan x="0" y="0">1247 38th St</tspan></text>
  </g>
  <g id="location*">
    <text transform="translate(122.6 335.4) scale(.9 1)" text-anchor="start" fill="#9c8467" font-family="Heebo" font-size="12.1" font-weight="400"><tspan x="0" y="0">בביהמ״ד קהל חסידי בעלזא</tspan></text>
  </g>
  <text transform="translate(147.3 323.2) scale(.9 1)" text-anchor="start" fill="#9c8467" font-family="Heebo" font-size="12.1" font-weight="400"><tspan x="0" y="0">יתקיים למחרתו</tspan></text>
  <g id="street_2*">
    <text transform="translate(146.3 256) scale(.9 1)" text-anchor="start" fill="#9c8467" font-family="Heebo" font-size="12.1" font-weight="400"><tspan x="0" y="0">5015 15th Ave</tspan></text>
  </g>
  <g id="hall*">
    <text transform="translate(146.5 241.9) scale(.9 1)" text-anchor="start" fill="#9c8467" font-family="Heebo" font-size="12.1" font-weight="400"><tspan x="0" y="0">באולם פרדס נח</tspan></text>
  </g>
  <g id="date*">
    <text transform="translate(135.3 227.5) scale(.9 1)" text-anchor="start" fill="#9c8467" font-family="Heebo" font-size="12.8" font-weight="400"><tspan x="0" y="0">בליל ג׳ פרשת שמות</tspan></text>
  </g>
  <text transform="translate(151.2 215.2) scale(.9 1)" text-anchor="start" fill="#9c8467" font-family="Heebo" font-size="11" font-weight="400"><tspan x="0" y="0">שתתקיים אי״ה</tspan></text>
  <text transform="translate(98.8 115.6) scale(.9 1)" text-anchor="start" fill="#9c8467" font-family="Heebo" font-size="9" font-weight="400"><tspan x="0" y="0">הננו מזמינים בזה את ידידינו קרובינו ומכובדינו שיחי׳</tspan></text>
  <text transform="translate(139.1 129.4) scale(.9 1)" text-anchor="start" fill="#9c8467" font-family="Heebo" font-size="10" font-weight="400"><tspan x="0" y="0">לבוא להשתתף בשמחת</tspan></text>
  <text transform="translate(77.3 103.8) scale(.9 1)" text-anchor="start" fill="#9c8467" font-family="Heebo" font-size="11.6" font-weight="400"><tspan x="0" y="0">מתוך שבח והודאה להשי״ת על כל הטוב אשר גמלנו</tspan></text>
</svg>
