<svg xmlns="http://www.w3.org/2000/svg" id="Layer_1" data-name="Layer 1" viewBox="0 0 360 504">
  <g id="father_name_2*">
    <text transform="translate(146.3 482.1) scale(.7 1)" text-anchor="start" fill="#bdd8ee" font-family="Secular One" font-size="9.3"><tspan x="0" y="0">חתן יהודה גרינבערגער הי״וו</tspan></text>
  </g>
  <g id="father_name_1*">
    <text transform="translate(155.2 472) scale(.7 1)" text-anchor="start" fill="#bdd8ee" font-family="Secular One" font-size="9.3"><tspan x="0" y="0">ב״ר שמחה ברוך הי״וו</tspan></text>
  </g>
  <g id="host_name*">
    <text transform="translate(154 462.5) scale(.7 1)" text-anchor="start" fill="#bdd8ee" font-family="Secular One" font-size="9.3"><tspan x="0" y="0">שמעון לוי ברענאוויטש</tspan></text>
  </g>
  <g id="street*">
    <text transform="translate(161.9 228) scale(.7 1)" text-anchor="start" fill="#bdd8ee" font-family="Secular One" font-size="9.3"><tspan x="0" y="0">1247 38th St</tspan></text>
  </g>
  <g id="location*">
    <text transform="translate(143.1 218.9) scale(.7 1)" text-anchor="start" fill="#bdd8ee" font-family="Secular One" font-size="9.3"><tspan x="0" y="0">בביהמ״ד קהל חסידי בעלזא</tspan></text>
  </g>
  <text transform="translate(159.1 210.4) scale(.7 1)" text-anchor="start" fill="#bdd8ee" font-family="Secular One" font-size="9.3"><tspan x="0" y="0">יתקיים למחרתו</tspan></text>
  <g id="street_2*">
    <text transform="translate(159.3 161.6) scale(.7 1)" text-anchor="start" fill="#bdd8ee" font-family="Secular One" font-size="9.3"><tspan x="0" y="0">5015 15th Ave</tspan></text>
  </g>
  <g id="hall*">
    <text transform="translate(159.3 150.3) scale(.7 1)" text-anchor="start" fill="#bdd8ee" font-family="Secular One" font-size="9.3"><tspan x="0" y="0">באולם פרדס נח</tspan></text>
  </g>
  <g id="date*">
    <text transform="translate(152 140.8) scale(.7 1)" text-anchor="start" fill="#bdd8ee" font-family="Secular One" font-size="9.8"><tspan x="0" y="0">בליל ג׳ פרשת שמות</tspan></text>
  </g>
  <text transform="translate(157.6 132.4) scale(.7 1)" text-anchor="start" fill="#bdd8ee" font-family="Secular One" font-size="10"><tspan x="0" y="0">שתתקיים אי״ה</tspan></text>
  <text transform="translate(134 54.9) scale(.7 1)" text-anchor="start" fill="#bdd8ee" font-family="Secular One" font-size="6"><tspan x="0" y="0">הננו מזמינים בזה את ידידינו קרובינו ומכובדינו שיחי׳</tspan></text>
  <text transform="translate(156.9 61.9) scale(.7 1)" text-anchor="start" fill="#bdd8ee" font-family="Secular One" font-size="7"><tspan x="0" y="0">לבוא להשתתף בשמחת</tspan></text>
  <text transform="translate(115 49.3) scale(.7 1)" text-anchor="start" fill="#bdd8ee" font-family="Secular One" font-size="9"><tspan x="0" y="0">מתוך שבח והודאה להשי״ת על כל הטוב אשר גמלנו</tspan></text>
</svg>
