<svg xmlns="http://www.w3.org/2000/svg" id="Layer_1" data-name="Layer 1" viewBox="0 0 360 504">
  <g id="father_name_2*">
    <text transform="translate(225.7 332.8) scale(.7 1)" text-anchor="start" fill="#446681" font-family="Heebo" font-size="6" font-weight="700"><tspan x="0" y="0">חתן יהודה גרינבערגער הי״וו</tspan></text>
  </g>
  <g id="father_name_1*">
    <text transform="translate(231.8 326.2) scale(.7 1)" text-anchor="start" fill="#446681" font-family="Heebo" font-size="6" font-weight="700"><tspan x="0" y="0">ב״ר שמחה ברוך הי״וו</tspan></text>
  </g>
  <g id="host_name*">
    <text transform="translate(221.1 318.3) scale(.7 1)" text-anchor="start" fill="#446681" font-family="Heebo" font-size="8.6" font-weight="700"><tspan x="0" y="0">שמעון לוי ברענאוויטש</tspan></text>
  </g>
  <g id="street*">
    <text transform="translate(233.3 300.8) scale(.7 1)" text-anchor="start" fill="#446681" font-family="Heebo" font-size="8.6" font-weight="700"><tspan x="0" y="0">1247 38th St</tspan></text>
  </g>
  <g id="location*">
    <text transform="translate(214.5 292.6) scale(.7 1)" text-anchor="start" fill="#446681" font-family="Heebo" font-size="8.6" font-weight="700"><tspan x="0" y="0">בביהמ״ד קהל חסידי בעלזא</tspan></text>
  </g>
  <text transform="translate(231 284.9) scale(.7 1)" text-anchor="start" fill="#446681" font-family="Heebo" font-size="8.6" font-weight="700"><tspan x="0" y="0">יתקיים למחרתו</tspan></text>
  <g id="street_2*">
    <text transform="translate(103.2 276.4) scale(.7 1)" text-anchor="start" fill="#446681" font-family="Heebo" font-size="7" font-weight="700"><tspan x="0" y="0">5015 15th Ave</tspan></text>
  </g>
  <g id="hall*">
    <text transform="translate(103 268.8) scale(.7 1)" text-anchor="start" fill="#446681" font-family="Heebo" font-size="7" font-weight="700"><tspan x="0" y="0">באולם פרדס נח</tspan></text>
  </g>
  <g id="date*">
    <text transform="translate(89.5 259.5) scale(.7 1)" text-anchor="start" fill="#446681" font-family="Heebo" font-size="9.8" font-weight="700"><tspan x="0" y="0">בליל ג׳ פרשת שמות</tspan></text>
  </g>
  <text transform="translate(101 250.1) scale(.7 1)" text-anchor="start" fill="#446681" font-family="Heebo" font-size="8" font-weight="700"><tspan x="0" y="0">שתתקיים אי״ה</tspan></text>
  <text transform="translate(137.5 163.6) scale(.7 1)" text-anchor="start" fill="#446681" font-family="Heebo" font-size="5.3" font-weight="700"><tspan x="0" y="0">הננו מזמינים בזה את ידידינו קרובינו ומכובדינו שיחי׳</tspan></text>
  <text transform="translate(155.7 170.3) scale(.7 1)" text-anchor="start" fill="#446681" font-family="Heebo" font-size="6.8" font-weight="700"><tspan x="0" y="0">לבוא להשתתף בשמחת</tspan></text>
  <text transform="translate(126.9 157.9) scale(.7 1)" text-anchor="start" fill="#446681" font-family="Heebo" font-size="6.8" font-weight="700"><tspan x="0" y="0">מתוך שבח והודאה להשי״ת על כל הטוב אשר גמלנו</tspan></text>
</svg>
