<svg xmlns="http://www.w3.org/2000/svg" id="Layer_1" data-name="Layer 1" viewBox="0 0 360 504">
  <g id="father_name_2*">
    <text transform="translate(211.6 366.6) scale(.7 1)" text-anchor="start" fill="#473f35" font-family="Secular One" font-size="11.9"><tspan x="0" y="0">חתן יהודה גרינבערגער הי״וו</tspan></text>
  </g>
  <g id="father_name_1*">
    <text transform="translate(222.9 354) scale(.7 1)" text-anchor="start" fill="#473f35" font-family="Secular One" font-size="11.9"><tspan x="0" y="0">ב״ר שמחה ברוך הי״וו</tspan></text>
  </g>
  <g id="host_name*">
    <text transform="translate(221.4 341.9) scale(.7 1)" text-anchor="start" fill="#473f35" font-family="Secular One" font-size="11.9"><tspan x="0" y="0">שמעון לוי ברענאוויטש</tspan></text>
  </g>
  <g id="street*">
    <text transform="translate(237.1 315.4) scale(.7 1)" text-anchor="start" fill="#473f35" font-family="Secular One" font-size="11.9"><tspan x="0" y="0">1247 38th St</tspan></text>
  </g>
  <g id="location*">
    <text transform="translate(213.1 303.1) scale(.7 1)" text-anchor="start" fill="#473f35" font-family="Secular One" font-size="11.9"><tspan x="0" y="0">בביהמ״ד קהל חסידי בעלזא</tspan></text>
  </g>
  <text transform="translate(233.6 292.7) scale(.7 1)" text-anchor="start" fill="#473f35" font-family="Secular One" font-size="11.9"><tspan x="0" y="0">יתקיים למחרתו</tspan></text>
  <g id="street_2*">
    <text transform="translate(233.6 226.1) scale(.7 1)" text-anchor="start" fill="#473f35" font-family="Secular One" font-size="12"><tspan x="0" y="0">5015 15th Ave</tspan></text>
  </g>
  <g id="hall*">
    <text transform="translate(233.8 211.8) scale(.7 1)" text-anchor="start" fill="#473f35" font-family="Secular One" font-size="11.9"><tspan x="0" y="0">באולם פרדס נח</tspan></text>
  </g>
  <g id="date*">
    <text transform="translate(224.5 198.6) scale(.7 1)" text-anchor="start" fill="#473f35" font-family="Secular One" font-size="12.5"><tspan x="0" y="0">בליל ג׳ פרשת שמות</tspan></text>
  </g>
  <text transform="translate(237.7 183) scale(.7 1)" text-anchor="start" fill="#473f35" font-family="Secular One" font-size="10.1"><tspan x="0" y="0">שתתקיים אי״ה</tspan></text>
  <text transform="translate(200.1 77.1) scale(.7 1)" text-anchor="start" fill="#473f35" font-family="Secular One" font-size="7.9"><tspan x="0" y="0">הננו מזמינים בזה את ידידינו קרובינו ומכובדינו שיחי׳</tspan></text>
  <text transform="translate(223.2 87.2) scale(.7 1)" text-anchor="start" fill="#473f35" font-family="Secular One" font-size="11.2"><tspan x="0" y="0">לבוא להשתתף בשמחת</tspan></text>
  <text transform="translate(179.3 67.2) scale(.7 1)" text-anchor="start" fill="#473f35" font-family="Secular One" font-size="11.2"><tspan x="0" y="0">מתוך שבח והודאה להשי״ת על כל הטוב אשר גמלנו</tspan></text>
</svg>