<svg xmlns="http://www.w3.org/2000/svg" id="Layer_1" data-name="Layer 1" viewBox="0 0 360 504">
  <text transform="translate(115.6 89.4) scale(.7 1)" text-anchor="start" fill="#698188" font-family="Heebo" font-size="8" font-weight="700"><tspan x="0" y="0">הננו מזמינים בזה את ידידינו קרובינו ומכובדינו שיחי׳</tspan></text>
  <text transform="translate(147.4 99.9) scale(.7 1)" text-anchor="start" fill="#698188" font-family="Heebo" font-size="9.1" font-weight="700"><tspan x="0" y="0">לבוא להשתתף בשמחת</tspan></text>
  <text transform="translate(109.7 80.1) scale(.7 1)" text-anchor="start" fill="#698188" font-family="Heebo" font-size="9" font-weight="700"><tspan x="0" y="0">מתוך שבח והודאה להשי״ת על כל הטוב אשר גמלנו</tspan></text>
  <g id="father_name_2*">
    <text transform="translate(150.1 381.3) scale(.7 1)" text-anchor="start" fill="#698188" font-family="Heebo" font-size="7" font-weight="700"><tspan x="0" y="0">חתן יהודה גרינבערגער הי״וו</tspan></text>
  </g>
  <g id="father_name_1*">
    <text transform="translate(157.3 373.4) scale(.7 1)" text-anchor="start" fill="#698188" font-family="Heebo" font-size="7" font-weight="700"><tspan x="0" y="0">ב״ר שמחה ברוך הי״וו</tspan></text>
  </g>
  <g id="host_name*">
    <text transform="translate(141.3 364.7) scale(.7 1)" text-anchor="start" fill="#698188" font-family="Heebo" font-size="11" font-weight="700"><tspan x="0" y="0">שמעון לוי ברענאוויטש</tspan></text>
  </g>
  <g id="street*">
    <text transform="translate(157.8 338.5) scale(.7 1)" text-anchor="start" fill="#698188" font-family="Heebo" font-size="10.6" font-weight="700"><tspan x="0" y="0">1247 38th St</tspan></text>
  </g>
  <g id="location*">
    <text transform="translate(135.5 328.1) scale(.7 1)" text-anchor="start" fill="#698188" font-family="Heebo" font-size="10.6" font-weight="700"><tspan x="0" y="0">בביהמ״ד קהל חסידי בעלזא</tspan></text>
  </g>
  <text transform="translate(158.7 317.1) scale(.7 1)" text-anchor="start" fill="#698188" font-family="Heebo" font-size="9" font-weight="700"><tspan x="0" y="0">יתקיים למחרתו</tspan></text>
  <g id="street_2*">
    <text transform="translate(154.9 275.6) scale(.7 1)" text-anchor="start" fill="#698188" font-family="Heebo" font-size="10.6" font-weight="700"><tspan x="0" y="0">5015 15th Ave</tspan></text>
  </g>
  <g id="hall*">
    <text transform="translate(154.5 264.3) scale(.7 1)" text-anchor="start" fill="#698188" font-family="Heebo" font-size="10.6" font-weight="700"><tspan x="0" y="0">באולם פרדס נח</tspan></text>
  </g>
  <g id="date*">
    <text transform="translate(141.2 252.1) scale(.7 1)" text-anchor="start" fill="#698188" font-family="Heebo" font-size="12.5" font-weight="700"><tspan x="0" y="0">בליל ג׳ פרשת שמות</tspan></text>
  </g>
  <text transform="translate(156.5 238.5) scale(.7 1)" text-anchor="start" fill="#698188" font-family="Heebo" font-size="10" font-weight="700"><tspan x="0" y="0">שתתקיים אי״ה</tspan></text>
</svg>
