<svg xmlns="http://www.w3.org/2000/svg" id="Layer_1" data-name="Layer 1" viewBox="0 0 360 504">
  <text transform="translate(140.9 265.7) scale(.7 1)" text-anchor="start" fill="#c8b29c" font-family="Heebo" font-size="5.1" font-weight="600"><tspan x="0" y="0">הננו מזמינים בזה את ידידינו קרובינו ומכובדינו שיחי׳</tspan></text>
  <text transform="translate(156.7 272.3) scale(.7 1)" text-anchor="start" fill="#c8b29c" font-family="Heebo" font-size="7" font-weight="600"><tspan x="0" y="0">לבוא להשתתף בשמחת</tspan></text>
  <text transform="translate(132.2 259.8) scale(.7 1)" text-anchor="start" fill="#c8b29c" font-family="Heebo" font-size="6.4" font-weight="600"><tspan x="0" y="0">מתוך שבח והודאה להשי״ת על כל הטוב אשר גמלנו</tspan></text>
  <g id="street_2*">
    <text transform="translate(167.5 334.1) scale(.7 1)" text-anchor="start" fill="#c8b29c" font-family="Heebo" font-size="5.4" font-weight="400"><tspan x="0" y="0">5015 15th Ave</tspan></text>
  </g>
  <g id="hall*">
    <text transform="translate(167.6 328.8) scale(.7 1)" text-anchor="start" fill="#c8b29c" font-family="Heebo" font-size="5.4" font-weight="400"><tspan x="0" y="0">באולם פרדס נח</tspan></text>
  </g>
  <g id="date*">
    <text transform="translate(162.2 322.8) scale(.7 1)" text-anchor="start" fill="#c8b29c" font-family="Heebo" font-size="6" font-weight="600"><tspan x="0" y="0">בליל ג׳ פרשת שמות</tspan></text>
  </g>
  <text transform="translate(170.2 317.2) scale(.7 1)" text-anchor="start" fill="#c8b29c" font-family="Heebo" font-size="4.5" font-weight="400"><tspan x="0" y="0">שתתקיים אי״ה</tspan></text>
  <g id="father_name_2*">
    <text transform="translate(157.8 404.7) scale(.7 1)" text-anchor="start" fill="#c8b29c" font-family="Heebo" font-size="5.6" font-weight="400"><tspan x="0" y="0">חתן יהודה גרינבערגער הי״וו</tspan></text>
  </g>
  <g id="father_name_1*">
    <text transform="translate(163.1 399.1) scale(.7 1)" text-anchor="start" fill="#c8b29c" font-family="Heebo" font-size="5.6" font-weight="400"><tspan x="0" y="0">ב״ר שמחה ברוך הי״וו</tspan></text>
  </g>
  <g id="host_name*">
    <text transform="translate(159.6 391.2) scale(.7 1)" text-anchor="start" fill="#c8b29c" font-family="Heebo" font-size="6" font-weight="600"><tspan x="0" y="0">שמעון לוי ברענאוויטש</tspan></text>
  </g>
  <g id="street*">
    <text transform="translate(167.7 376.6) scale(.7 1)" text-anchor="start" fill="#c8b29c" font-family="Heebo" font-size="6" font-weight="400"><tspan x="0" y="0">1247 38th St</tspan></text>
  </g>
  <g id="location*">
    <text transform="translate(155.7 369.2) scale(.7 1)" text-anchor="start" fill="#c8b29c" font-family="Heebo" font-size="6" font-weight="600"><tspan x="0" y="0">בביהמ״ד קהל חסידי בעלזא</tspan></text>
  </g>
  <text transform="translate(168.8 361.6) scale(.7 1)" text-anchor="start" fill="#c8b29c" font-family="Heebo" font-size="5" font-weight="400"><tspan x="0" y="0">יתקיים למחרתו</tspan></text>
</svg>
