<svg xmlns="http://www.w3.org/2000/svg" id="Layer_1" data-name="Layer 1" viewBox="0 0 360 504">
  <g id="street_2*">
    <text transform="translate(161.6 283.5) scale(.7 1)" text-anchor="start" fill="#476c89" font-family="Heebo" font-size="8" font-weight="400"><tspan x="0" y="0">5015 15th Ave</tspan></text>
  </g>
  <g id="hall*">
    <text transform="translate(161.8 275.6) scale(.7 1)" text-anchor="start" fill="#476c89" font-family="Heebo" font-size="8" font-weight="400"><tspan x="0" y="0">באולם פרדס נח</tspan></text>
  </g>
  <g id="date*">
    <text transform="translate(155.4 268.4) scale(.7 1)" text-anchor="start" fill="#476c89" font-family="Heebo" font-size="8" font-weight="700"><tspan x="0" y="0">בליל ג׳ פרשת שמות</tspan></text>
  </g>
  <text transform="translate(165 259.9) scale(.7 1)" text-anchor="start" fill="#476c89" font-family="Heebo" font-size="7" font-weight="400"><tspan x="0" y="0">שתתקיים אי״ה</tspan></text>
  <text transform="translate(133.8 166.6) scale(.9 1)" text-anchor="start" fill="#476c89" font-family="Heebo" font-size="10" font-weight="700"><tspan x="0" y="0">לבוא להשתתף בשמחת</tspan></text>
  <g id="father_name_2*">
    <text transform="translate(151.9 370) scale(.8 1)" text-anchor="start" fill="#476c89" font-family="Heebo" font-size="6.7" font-weight="400"><tspan x="0" y="0">חתן יהודה גרינבערגער הי״וו</tspan></text>
  </g>
  <g id="father_name_1*">
    <text transform="translate(158.6 363.6) scale(.8 1)" text-anchor="start" fill="#476c89" font-family="Heebo" font-size="6.7" font-weight="400"><tspan x="0" y="0">ב״ר שמחה ברוך הי״וו</tspan></text>
  </g>
  <g id="host_name*">
    <text transform="translate(152 356.6) scale(.7 1)" text-anchor="start" fill="#476c89" font-family="Heebo" font-size="8" font-weight="700"><tspan x="0" y="0">שמעון לוי ברענאוויטש</tspan></text>
  </g>
  <g id="street*">
    <text transform="translate(160 342.6) scale(.7 1)" text-anchor="start" fill="#476c89" font-family="Heebo" font-size="9.8" font-weight="400"><tspan x="0" y="0">1247 38th St</tspan></text>
  </g>
  <g id="location*">
    <text transform="translate(139.7 332.5) scale(.7 1)" text-anchor="start" fill="#476c89" font-family="Heebo" font-size="9.8" font-weight="600"><tspan x="0" y="0">בביהמ״ד קהל חסידי בעלזא</tspan></text>
  </g>
  <text transform="translate(164.5 323) scale(.7 1)" text-anchor="start" fill="#476c89" font-family="Heebo" font-size="7" font-weight="400"><tspan x="0" y="0">יתקיים למחרתו</tspan></text>
</svg>
