<svg xmlns="http://www.w3.org/2000/svg" id="Layer_1" data-name="Layer 1" viewBox="0 0 360 504">
  <g id="father_name_2*">
    <text transform="translate(160.2 346) scale(.7 1)" text-anchor="start" fill="#0b1333" font-family="Heebo" font-size="5"><tspan x="0" y="0">חתן יהודה גרינבערגער הי״וו</tspan></text>
  </g>
  <g id="father_name_1*">
    <text transform="translate(165 342.1) scale(.7 1)" text-anchor="start" fill="#0b1333" font-family="Heebo" font-size="5"><tspan x="0" y="0">ב״ר שמחה ברוך הי״וו</tspan></text>
  </g>
  <g id="host_name*">
    <text transform="translate(155.5 335.9) scale(.7 1)" text-anchor="start" fill="#8e939a" font-family="Frank Ruhl Libre" font-size="8" font-weight="900"><tspan x="0" y="0">שמעון לוי ברענאוויטש</tspan></text>
  </g>
  <g id="street*">
    <text transform="translate(167.7 314.5) scale(.7 1)" text-anchor="start" fill="#0b1333" font-family="Heebo" font-size="6"><tspan x="0" y="0">1247 38th St</tspan></text>
  </g>
  <g id="location*">
    <text transform="translate(156.4 307.8) scale(.7 1)" text-anchor="start" fill="#0b1333" font-family="Heebo" font-size="6"><tspan x="0" y="0">בביהמ״ד קהל חסידי בעלזא</tspan></text>
  </g>
  <text transform="translate(166.6 302.4) scale(.7 1)" text-anchor="start" fill="#0b1333" font-family="Heebo" font-size="6"><tspan x="0" y="0">יתקיים למחרתו</tspan></text>
  <g id="street_2*">
    <text transform="translate(166.2 268) scale(.7 1)" text-anchor="start" fill="#0b1333" font-family="Heebo" font-size="6"><tspan x="0" y="0">5015 15th Ave</tspan></text>
  </g>
  <g id="hall*">
    <text transform="translate(166.2 261.3) scale(.7 1)" text-anchor="start" fill="#0b1333" font-family="Heebo" font-size="6"><tspan x="0" y="0">באולם פרדס נח</tspan></text>
  </g>
  <g id="date*">
    <text transform="translate(162.6 254.3) scale(.7 1)" text-anchor="start" fill="#0b1333" font-family="Heebo" font-size="6"><tspan x="0" y="0">בליל ג׳ פרשת שמות</tspan></text>
  </g>
  <text transform="translate(169.2 248) scale(.7 1)" text-anchor="start" fill="#0b1333" font-family="Heebo" font-size="5"><tspan x="0" y="0">שתתקיים אי״ה</tspan></text>
  <text transform="translate(150.1 193.3) scale(.7 1)" text-anchor="start" fill="#0b1333" font-family="Heebo" font-size="4"><tspan x="0" y="0">הננו מזמינים בזה את ידידינו קרובינו ומכובדינו שיחי׳</tspan></text>
  <text transform="translate(161.5 199.1) scale(.7 1)" text-anchor="start" fill="#0b1333" font-family="Heebo" font-size="5.4"><tspan x="0" y="0">לבוא להשתתף בשמחת</tspan></text>
  <text transform="translate(143.3 188.8) scale(.7 1)" text-anchor="start" fill="#0b1333" font-family="Heebo" font-size="5"><tspan x="0" y="0">מתוך שבח והודאה להשי״ת על כל הטוב אשר גמלנו</tspan></text>
</svg>
