<svg xmlns="http://www.w3.org/2000/svg" id="Layer_1" data-name="Layer 1" viewBox="0 0 360 504">
  <g id="father_name_2*">
    <text transform="translate(157.8 377) scale(.7 1)" text-anchor="start" fill="#c8b273" font-family="Heebo" font-size="5.6" font-weight="400"><tspan x="0" y="0">חתן יהודה גרינבערגער הי״וו</tspan></text>
  </g>
  <g id="father_name_1*">
    <text transform="translate(163.1 371.4) scale(.7 1)" text-anchor="start" fill="#c8b273" font-family="Heebo" font-size="5.6" font-weight="400"><tspan x="0" y="0">ב״ר שמחה ברוך הי״וו</tspan></text>
  </g>
  <g id="host_name*">
    <text transform="translate(152.5 363.4) scale(.7 1)" text-anchor="start" fill="#c8b273" font-family="Frank Ruhl Libre" font-size="9" font-weight="800"><tspan x="0" y="0">שמעון לוי ברענאוויטש</tspan></text>
  </g>
  <g id="street*">
    <text transform="translate(166.2 341.1) scale(.7 1)" text-anchor="start" fill="#c8b273" font-family="Heebo" font-size="6.7" font-weight="400"><tspan x="0" y="0">1247 38th St</tspan></text>
  </g>
  <g id="location*">
    <text transform="translate(153.5 334.7) scale(.7 1)" text-anchor="start" fill="#c8b273" font-family="Heebo" font-size="6.7" font-weight="400"><tspan x="0" y="0">בביהמ״ד קהל חסידי בעלזא</tspan></text>
  </g>
  <text transform="translate(164.9 326.9) scale(.7 1)" text-anchor="start" fill="#c8b273" font-family="Heebo" font-size="6.7" font-weight="400"><tspan x="0" y="0">יתקיים למחרתו</tspan></text>
  <g id="street_2*">
    <text transform="translate(164.4 289.2) scale(.7 1)" text-anchor="start" fill="#c8b273" font-family="Heebo" font-size="6.7" font-weight="400"><tspan x="0" y="0">5015 15th Ave</tspan></text>
  </g>
  <g id="hall*">
    <text transform="translate(164.5 282.2) scale(.7 1)" text-anchor="start" fill="#c8b273" font-family="Heebo" font-size="6.7" font-weight="400"><tspan x="0" y="0">באולם פרדס נח</tspan></text>
  </g>
  <g id="date*">
    <text transform="translate(160.4 273.3) scale(.7 1)" text-anchor="start" fill="#c8b273" font-family="Heebo" font-size="6.7" font-weight="400"><tspan x="0" y="0">בליל ג׳ פרשת שמות</tspan></text>
  </g>
  <text transform="translate(167.8 267.3) scale(.7 1)" text-anchor="start" fill="#c8b273" font-family="Heebo" font-size="5.6" font-weight="400"><tspan x="0" y="0">שתתקיים אי״ה</tspan></text>
  <text transform="translate(146.3 205.6) scale(.7 1)" text-anchor="start" fill="#c8b273" font-family="Heebo" font-size="4.5" font-weight="400"><tspan x="0" y="0">הננו מזמינים בזה את ידידינו קרובינו ומכובדינו שיחי׳</tspan></text>
  <text transform="translate(159.2 211.4) scale(.7 1)" text-anchor="start" fill="#c8b273" font-family="Heebo" font-size="6.1" font-weight="400"><tspan x="0" y="0">לבוא להשתתף בשמחת</tspan></text>
  <text transform="translate(138.7 200.5) scale(.7 1)" text-anchor="start" fill="#c8b273" font-family="Heebo" font-size="5.6" font-weight="400"><tspan x="0" y="0">מתוך שבח והודאה להשי״ת על כל הטוב אשר גמלנו</tspan></text>
</svg>
