<svg xmlns="http://www.w3.org/2000/svg" id="Layer_1" data-name="Layer 1" viewBox="0 0 360 504">
  <g id="father_name_2*">
    <text transform="translate(199.5 411.2) scale(.7 1)" text-anchor="start" fill="#c0b993" font-family="Heebo" font-size="8" font-weight="400"><tspan x="0" y="0">חתן יהודה גרינבערגער הי״וו</tspan></text>
  </g>
  <g id="father_name_1*">
    <text transform="translate(207.1 404.3) scale(.7 1)" text-anchor="start" fill="#c0b993" font-family="Heebo" font-size="8" font-weight="400"><tspan x="0" y="0">ב״ר שמחה ברוך הי״וו</tspan></text>
  </g>
  <g id="host_name*">
    <text transform="translate(194.7 393.9) scale(.7 1)" text-anchor="start" fill="#c0b993" font-family="Heebo" font-size="10.6" font-weight="700"><tspan x="0" y="0">שמעון לוי ברענאוויטש</tspan></text>
  </g>
  <g id="street*">
    <text transform="translate(209.7 365.5) scale(.7 1)" text-anchor="start" fill="#c0b993" font-family="Heebo" font-size="10.6" font-weight="400"><tspan x="0" y="0">1247 38th St</tspan></text>
  </g>
  <g id="location*">
    <text transform="translate(189.5 355.5) scale(.7 1)" text-anchor="start" fill="#c0b993" font-family="Heebo" font-size="10.6" font-weight="400"><tspan x="0" y="0">בביהמ״ד קהל חסידי בעלזא</tspan></text>
  </g>
  <text transform="translate(207.6 346.1) scale(.7 1)" text-anchor="start" fill="#c0b993" font-family="Heebo" font-size="10.6" font-weight="400"><tspan x="0" y="0">יתקיים למחרתו</tspan></text>
  <g id="street_2*">
    <text transform="translate(208.3 270.8) scale(.7 1)" text-anchor="start" fill="#c0b993" font-family="Heebo" font-size="10" font-weight="400"><tspan x="0" y="0">5015 15th Ave</tspan></text>
  </g>
  <g id="hall*">
    <text transform="translate(208.4 260.9) scale(.7 1)" text-anchor="start" fill="#c0b993" font-family="Heebo" font-size="10" font-weight="400"><tspan x="0" y="0">באולם פרדס נח</tspan></text>
  </g>
  <g id="date*">
    <text transform="translate(193.6 249.6) scale(.7 1)" text-anchor="start" fill="#c0b993" font-family="Heebo" font-size="12.5" font-weight="600"><tspan x="0" y="0">בליל ג׳ פרשת שמות</tspan></text>
  </g>
  <text transform="translate(209 236.6) scale(.7 1)" text-anchor="start" fill="#c0b993" font-family="Heebo" font-size="10.3" font-weight="400"><tspan x="0" y="0">שתתקיים אי״ה</tspan></text>
  <text transform="translate(140.8 101.2) scale(.7 1)" text-anchor="start" fill="#c0b993" font-family="Heebo" font-size="12" font-weight="400"><tspan x="0" y="0">הננו מזמינים בזה את ידידינו קרובינו ומכובדינו שיחי׳</tspan></text>
  <text transform="translate(183.6 116.6) scale(.7 1)" text-anchor="start" fill="#c0b993" font-family="Heebo" font-size="14" font-weight="400"><tspan x="0" y="0">לבוא להשתתף בשמחת</tspan></text>
  <text transform="translate(128 88.8) scale(.7 1)" text-anchor="start" fill="#c0b993" font-family="Heebo" font-size="14" font-weight="400"><tspan x="0" y="0">מתוך שבח והודאה להשי״ת על כל הטוב אשר גמלנו</tspan></text>
</svg>
