<svg xmlns="http://www.w3.org/2000/svg" id="Layer_1" data-name="Layer 1" viewBox="0 0 360 504">
  <g id="father_name_2*">
    <text transform="translate(136.6 409.9) scale(.7 1)" text-anchor="start" fill="#567995" font-family="Secular One" font-size="10.6"><tspan x="0" y="0">חתן יהודה גרינבערגער הי״וו</tspan></text>
  </g>
  <g id="father_name_1*">
    <text transform="translate(146.7 398.5) scale(.7 1)" text-anchor="start" fill="#567995" font-family="Secular One" font-size="10.6"><tspan x="0" y="0">ב״ר שמחה ברוך הי״וו</tspan></text>
  </g>
  <g id="host_name*">
    <text transform="translate(145.3 387.6) scale(.7 1)" text-anchor="start" fill="#567995" font-family="Secular One" font-size="10.6"><tspan x="0" y="0">שמעון לוי ברענאוויטש</tspan></text>
  </g>
  <g id="street*">
    <text transform="translate(159.4 359.7) scale(.7 1)" text-anchor="start" fill="#567995" font-family="Secular One" font-size="10.6"><tspan x="0" y="0">1247 38th St</tspan></text>
  </g>
  <g id="location*">
    <text transform="translate(137.9 349.3) scale(.7 1)" text-anchor="start" fill="#567995" font-family="Secular One" font-size="10.6"><tspan x="0" y="0">בביהמ״ד קהל חסידי בעלזא</tspan></text>
  </g>
  <text transform="translate(156.2 339.6) scale(.7 1)" text-anchor="start" fill="#567995" font-family="Secular One" font-size="10.6"><tspan x="0" y="0">יתקיים למחרתו</tspan></text>
  <g id="street_2*">
    <text transform="translate(156.5 282.1) scale(.7 1)" text-anchor="start" fill="#567995" font-family="Secular One" font-size="10.6"><tspan x="0" y="0">5015 15th Ave</tspan></text>
  </g>
  <g id="hall*">
    <text transform="translate(156.4 270.9) scale(.7 1)" text-anchor="start" fill="#567995" font-family="Secular One" font-size="10.6"><tspan x="0" y="0">באולם פרדס נח</tspan></text>
  </g>
  <g id="date*">
    <text transform="translate(144.2 258.6) scale(.7 1)" text-anchor="start" fill="#567995" font-family="Secular One" font-size="12.5"><tspan x="0" y="0">בליל ג׳ פרשת שמות</tspan></text>
  </g>
  <text transform="translate(157.1 245.3) scale(.7 1)" text-anchor="start" fill="#567995" font-family="Secular One" font-size="10.3"><tspan x="0" y="0">שתתקיים אי״ה</tspan></text>
  <text transform="translate(127.6 131.8) scale(.7 1)" text-anchor="start" fill="#567995" font-family="Secular One" font-size="6.8"><tspan x="0" y="0">הננו מזמינים בזה את ידידינו קרובינו ומכובדינו שיחי׳</tspan></text>
  <text transform="translate(149.9 144.1) scale(.7 1)" text-anchor="start" fill="#567995" font-family="Secular One" font-size="9.1"><tspan x="0" y="0">לבוא להשתתף בשמחת</tspan></text>
  <text transform="translate(106.9 122.2) scale(.7 1)" text-anchor="start" fill="#567995" font-family="Secular One" font-size="10.1"><tspan x="0" y="0">מתוך שבח והודאה להשי״ת על כל הטוב אשר גמלנו</tspan></text>
</svg>
