<svg xmlns="http://www.w3.org/2000/svg" id="Layer_1" data-name="Layer 1" viewBox="0 0 360 504">
  <g id="father_name_2*">
    <text transform="translate(142.2 387.2) scale(.7 1)" text-anchor="start" fill="#e5e9ec" font-family="Heebo" font-size="8.9" font-weight="700"><tspan x="0" y="0">חתן יהודה גרינבערגער הי״וו</tspan></text>
  </g>
  <g id="father_name_1*">
    <text transform="translate(151.2 377.1) scale(.7 1)" text-anchor="start" fill="#e5e9ec" font-family="Heebo" font-size="8.9" font-weight="700"><tspan x="0" y="0">ב״ר שמחה ברוך הי״וו</tspan></text>
  </g>
  <g id="host_name*">
    <text transform="translate(148.8 367.7) scale(.7 1)" text-anchor="start" fill="#e5e9ec" font-family="Heebo" font-size="8.9" font-weight="700"><tspan x="0" y="0">שמעון לוי ברענאוויטש</tspan></text>
  </g>
  <g id="street*">
    <text transform="translate(160.5 341.5) scale(.7 1)" text-anchor="start" fill="#e5e9ec" font-family="Heebo" font-size="9.3" font-weight="700"><tspan x="0" y="0">1247 38th St</tspan></text>
  </g>
  <g id="location*">
    <text transform="translate(141.1 332.4) scale(.7 1)" text-anchor="start" fill="#e5e9ec" font-family="Heebo" font-size="9.3" font-weight="700"><tspan x="0" y="0">בביהמ״ד קהל חסידי בעלזא</tspan></text>
  </g>
  <text transform="translate(158.1 323.9) scale(.7 1)" text-anchor="start" fill="#e5e9ec" font-family="Heebo" font-size="9.3" font-weight="700"><tspan x="0" y="0">יתקיים למחרתו</tspan></text>
  <g id="street_2*">
    <text transform="translate(158 277.4) scale(.7 1)" text-anchor="start" fill="#e5e9ec" font-family="Heebo" font-size="9.3" font-weight="700"><tspan x="0" y="0">5015 15th Ave</tspan></text>
  </g>
  <g id="hall*">
    <text transform="translate(157.7 266.8) scale(.7 1)" text-anchor="start" fill="#e5e9ec" font-family="Heebo" font-size="9.3" font-weight="700"><tspan x="0" y="0">באולם פרדס נח</tspan></text>
  </g>
  <g id="date*">
    <text transform="translate(149.8 255.8) scale(.7 1)" text-anchor="start" fill="#e5e9ec" font-family="Heebo" font-size="9.8" font-weight="700"><tspan x="0" y="0">בליל ג׳ פרשת שמות</tspan></text>
  </g>
  <text transform="translate(153 245.1) scale(.7 1)" text-anchor="start" fill="#e5e9ec" font-family="Heebo" font-size="11.6" font-weight="700"><tspan x="0" y="0">שתתקיים אי״ה</tspan></text>
  <text transform="translate(108.8 165.8) scale(.7 1)" text-anchor="start" fill="#e5e9ec" font-family="Heebo" font-size="8.9" font-weight="700"><tspan x="0" y="0">הננו מזמינים בזה את ידידינו קרובינו ומכובדינו שיחי׳</tspan></text>
  <text transform="translate(148.3 175.7) scale(.7 1)" text-anchor="start" fill="#e5e9ec" font-family="Heebo" font-size="8.9" font-weight="700"><tspan x="0" y="0">לבוא להשתתף בשמחת</tspan></text>
  <text transform="translate(110.8 155.1) scale(.7 1)" text-anchor="start" fill="#e5e9ec" font-family="Heebo" font-size="8.9" font-weight="700"><tspan x="0" y="0">מתוך שבח והודאה להשי״ת על כל הטוב אשר גמלנו</tspan></text>
</svg>
