<svg xmlns="http://www.w3.org/2000/svg" id="Layer_1" data-name="Layer 1" viewBox="0 0 360 504">
  <g id="father_name_2*">
    <text transform="translate(150.5 384.3) scale(.7 1)" text-anchor="start" fill="#606081" font-family="Heebo" font-size="7" font-weight="700"><tspan x="0" y="0">חתן יהודה גרינבערגער הי״וו</tspan></text>
  </g>
  <g id="father_name_1*">
    <text transform="translate(157.6 377.2) scale(.7 1)" text-anchor="start" fill="#606081" font-family="Heebo" font-size="7" font-weight="700"><tspan x="0" y="0">ב״ר שמחה ברוך הי״וו</tspan></text>
  </g>
  <g id="host_name*">
    <text transform="translate(143.3 369.4) scale(.7 1)" text-anchor="start" fill="#606081" font-family="Heebo" font-size="10.1" font-weight="900"><tspan x="0" y="0">שמעון לוי ברענאוויטש</tspan></text>
  </g>
  <g id="street*">
    <text transform="translate(160.6 349.2) scale(.7 1)" text-anchor="start" fill="#606081" font-family="Heebo" font-size="9.3" font-weight="700"><tspan x="0" y="0">1247 38th St</tspan></text>
  </g>
  <g id="location*">
    <text transform="translate(136.3 338.7) scale(.7 1)" text-anchor="start" fill="#606081" font-family="Heebo" font-size="10.1" font-weight="900"><tspan x="0" y="0">בביהמ״ד קהל חסידי בעלזא</tspan></text>
  </g>
  <text transform="translate(158.3 327.6) scale(.7 1)" text-anchor="start" fill="#606081" font-family="Heebo" font-size="9.3" font-weight="700"><tspan x="0" y="0">יתקיים למחרתו</tspan></text>
  <g id="street_2*">
    <text transform="translate(158.4 283.5) scale(.7 1)" text-anchor="start" fill="#606081" font-family="Heebo" font-size="9.6" font-weight="700"><tspan x="0" y="0">5015 15th Ave</tspan></text>
  </g>
  <g id="hall*">
    <text transform="translate(158.2 273.6) scale(.7 1)" text-anchor="start" fill="#606081" font-family="Heebo" font-size="9.6" font-weight="700"><tspan x="0" y="0">באולם פרדס נח</tspan></text>
  </g>
  <g id="date*">
    <text transform="translate(147 262.2) scale(.7 1)" text-anchor="start" fill="#606081" font-family="Heebo" font-size="10.1" font-weight="900"><tspan x="0" y="0">בליל ג׳ פרשת שמות</tspan></text>
  </g>
  <text transform="translate(159.5 251.3) scale(.7 1)" text-anchor="start" fill="#606081" font-family="Heebo" font-size="9.3" font-weight="700"><tspan x="0" y="0">שתתקיים אי״ה</tspan></text>
  <text transform="translate(112.1 161.5) scale(.7 1)" text-anchor="start" fill="#606081" font-family="Heebo" font-size="8.6" font-weight="700"><tspan x="0" y="0">הננו מזמינים בזה את ידידינו קרובינו ומכובדינו שיחי׳</tspan></text>
  <text transform="translate(141.8 173) scale(.7 1)" text-anchor="start" fill="#606081" font-family="Heebo" font-size="11" font-weight="700"><tspan x="0" y="0">לבוא להשתתף בשמחת</tspan></text>
  <text transform="translate(96 150.1) scale(.7 1)" text-anchor="start" fill="#606081" font-family="Heebo" font-size="11" font-weight="700"><tspan x="0" y="0">מתוך שבח והודאה להשי״ת על כל הטוב אשר גמלנו</tspan></text>
</svg>
