<svg xmlns="http://www.w3.org/2000/svg" id="Layer_1" data-name="Layer 1" viewBox="0 0 360 504">
  <g id="father_name_2*">
    <text transform="translate(128.3 407.7) scale(.7 1)" text-anchor="start" fill="#856760" font-family="Heebo" font-size="12" font-weight="800"><tspan x="0" y="0">חתן יהודה גרינבערגער הי״וו</tspan></text>
  </g>
  <g id="father_name_1*">
    <text transform="translate(140.7 397.5) scale(.7 1)" text-anchor="start" fill="#856760" font-family="Heebo" font-size="12" font-weight="800"><tspan x="0" y="0">ב״ר שמחה ברוך הי״וו</tspan></text>
  </g>
  <g id="host_name*">
    <text transform="translate(123.2 381.5) scale(.7 1)" text-anchor="start" fill="#856760" font-family="Heebo" font-size="16" font-weight="800"><tspan x="0" y="0">שמעון לוי ברענאוויטש</tspan></text>
  </g>
  <g id="street*">
    <text transform="translate(154.8 337.6) scale(.7 1)" text-anchor="start" fill="#856760" font-family="Heebo" font-size="12" font-weight="800"><tspan x="0" y="0">1247 38th St</tspan></text>
  </g>
  <g id="location*">
    <text transform="translate(129.2 324.5) scale(.7 1)" text-anchor="start" fill="#856760" font-family="Heebo" font-size="12" font-weight="800"><tspan x="0" y="0">בביהמ״ד קהל חסידי בעלזא</tspan></text>
  </g>
  <text transform="translate(155.3 312) scale(.7 1)" text-anchor="start" fill="#856760" font-family="Secular One" font-size="11"><tspan x="0" y="0">יתקיים למחרתו</tspan></text>
  <g id="street_2*">
    <text transform="translate(151.5 243.2) scale(.7 1)" text-anchor="start" fill="#856760" font-family="Heebo" font-size="12" font-weight="800"><tspan x="0" y="0">5015 15th Ave</tspan></text>
  </g>
  <g id="hall*">
    <text transform="translate(151 230.6) scale(.7 1)" text-anchor="start" fill="#856760" font-family="Heebo" font-size="12" font-weight="800"><tspan x="0" y="0">באולם פרדס נח</tspan></text>
  </g>
  <g id="date*">
    <text transform="translate(136.3 218.7) scale(.7 1)" text-anchor="start" fill="#856760" font-family="Heebo" font-size="14" font-weight="800"><tspan x="0" y="0">בליל ג׳ פרשת שמות</tspan></text>
  </g>
  <text transform="translate(155.4 206.2) scale(.7 1)" text-anchor="start" fill="#856760" font-family="Secular One" font-size="11"><tspan x="0" y="0">שתתקיים אי״ה</tspan></text>
  <text transform="translate(80.3 108.4) scale(.7 1)" text-anchor="start" fill="#856760" font-family="Heebo" font-size="12" font-weight="900"><tspan x="0" y="0">הננו מזמינים בזה את ידידינו קרובינו ומכובדינו שיחי׳</tspan></text>
  <text transform="translate(128.8 122.7) scale(.7 1)" text-anchor="start" fill="#856760" font-family="Heebo" font-size="14" font-weight="900"><tspan x="0" y="0">לבוא להשתתף בשמחת</tspan></text>
  <text transform="translate(67.5 95.7) scale(.7 1)" text-anchor="start" fill="#856760" font-family="Heebo" font-size="14" font-weight="900"><tspan x="0" y="0">מתוך שבח והודאה להשי״ת על כל הטוב אשר גמלנו</tspan></text>
</svg>
