<svg xmlns="http://www.w3.org/2000/svg" id="Layer_1" data-name="Layer 1" viewBox="0 0 360 504">
  <g id="text2">
    <text transform="translate(180 118) scale(.7 1)" text-anchor="middle" fill="#7ca0b4" font-family="Heebo" font-size="10.3" font-weight="400"><tspan x="0" y="0">מתוך שבח והודאה להשי״ת על כל הטוב אשר גמלנו</tspan></text>
  </g>
  <g id="text4">
    <text transform="translate(180 127) scale(.7 1)" text-anchor="middle" fill="#7ca0b4" font-family="Heebo" font-size="8.6" font-weight="400"><tspan x="0" y="0">הננו מזמינים בזה את ידידינו קרובינו ומכובדינו שיחי׳</tspan></text>
  </g>
  <g id="text3">
    <text transform="translate(180 137.5) scale(.7 1)" text-anchor="middle" fill="#7ca0b4" font-family="Heebo" font-size="10.3" font-weight="400"><tspan x="0" y="0">לבוא להשתתף בשמחת</tspan></text>
  </g>
  <g id="text5">
    <text transform="translate(180 237.8) scale(.7 1)" text-anchor="middle" fill="#7ca0b4" font-family="Heebo" font-size="12" font-weight="400"><tspan x="0" y="0">שתתקיים אי״ה</tspan></text>
  </g>
  <g id="date*">
    <text transform="translate(180 253.9) scale(.7 1)" text-anchor="middle" fill="#7ca0b4" font-family="Heebo" font-size="14" font-weight="600"><tspan x="0" y="0">בליל ג׳ פרשת שמות</tspan></text>
  </g>
  <g id="hall*">
    <text transform="translate(180 264.3) scale(.7 1)" text-anchor="middle" fill="#7ca0b4" font-family="Heebo" font-size="12.1" font-weight="400"><tspan x="0" y="0">באולם פרדס נח</tspan></text>
  </g>
  <g id="street_2*">
    <text transform="translate(180 278) scale(.7 1)" text-anchor="middle" fill="#7ca0b4" font-family="Heebo" font-size="12.1" font-weight="400"><tspan x="0" y="0">5015 15th Ave</tspan></text>
  </g>
  <g id="text6">
    <text transform="translate(180 345.6) scale(.7 1)" text-anchor="middle" fill="#7ca0b4" font-family="Heebo" font-size="10" font-weight="400"><tspan x="0" y="0">יתקיים למחרתו</tspan></text>
  </g>
  <g id="location*">
    <text transform="translate(180 356.2) scale(.7 1)" text-anchor="middle" fill="#7ca0b4" font-family="Heebo" font-size="12.1" font-weight="600"><tspan x="0" y="0">בביהמ״ד קהל חסידי בעלזא</tspan></text>
  </g>
  <g id="street*">
    <text transform="translate(180 369.1) scale(.7 1)" text-anchor="middle" fill="#7ca0b4" font-family="Heebo" font-size="12.1" font-weight="400"><tspan x="0" y="0">1247 38th St</tspan></text>
  </g>
  <g id="host_name*">
    <text transform="translate(180 392.6) scale(.7 1)" text-anchor="middle" fill="#7ca0b4" font-family="Heebo" font-size="12.1" font-weight="600"><tspan x="0" y="0">שמעון לוי ברענאוויטש</tspan></text>
  </g>
  <g id="father_name_1*">
    <text transform="translate(180 405.1) scale(.7 1)" text-anchor="middle" fill="#7ca0b4" font-family="Heebo" font-size="9.1" font-weight="400"><tspan x="0" y="0">ב״ר שמחה ברוך הי״וו</tspan></text>
  </g>
  <g id="father_name_2*">
    <text transform="translate(180 415.3) scale(.7 1)" text-anchor="middle" fill="#7ca0b4" font-family="Heebo" font-size="9.1" font-weight="400"><tspan x="0" y="0">חתן יהודה גרינבערגער הי״וו</tspan></text>
  </g>
</svg>