<?xml version="1.0" encoding="UTF-8"?>
<svg id="Layer_1" data-name="Layer 1" xmlns="http://www.w3.org/2000/svg" viewBox="0 0 360 504">

  <g id="date_vach">
    <text transform="translate(134.6 250.3) rotate(-15.8) scale(.9 1) skewX(.3)" fill="#415d72" font-family="GveretLevinAlefAlefAlef-Regular, 'Gveret Levin AlefAlefAlef'" font-size="4.8"><tspan x="0" y="0">שתתקיים אי''ה למחרתו ביום ה׳</tspan></text>
  </g>

  <g id="date_bris">
    <text transform="translate(151.3 302.6) rotate(-15.8) scale(.9 1) skewX(.3)" fill="#415d72" font-family="GveretLevinAlefAlefAlef-Regular, 'Gveret Levin AlefAlefAlef'" font-size="4.8"><tspan x="0" y="0">שתתקיים אי''ה למחרתו ביום ה׳</tspan></text>
  </g>

  <g id="synagogue_vach">
    <text transform="translate(145.2 269) rotate(-15.8) scale(.9 1) skewX(.3)" fill="#415d72" font-family="Arvo, Arvo" font-size="4.8"><tspan x="0" y="0">2267 56TH STREET</tspan></text>
  </g>

  <g id="synagogue_bris">
    <text transform="translate(159.5 315.7) rotate(-15.8) scale(.9 1) skewX(.3)" fill="#415d72" font-family="Arvo, Arvo" font-size="4.8"><tspan x="0" y="0">2267 56TH STREET</tspan></text>
  </g>

  <g id="host_house">
    <text transform="translate(147.8 260.1) rotate(-15.8) scale(.9 1) skewX(.3)" fill="#415d72" font-family="GveretLevinAlefAlefAlef-Regular, 'Gveret Levin AlefAlefAlef'" font-size="8.9"><tspan x="0" y="0">בבית מו״ח</tspan></text>
  </g>

  <g id="host_welcome">
    <text transform="translate(167.5 332.1) rotate(-15.8) scale(.9 1) skewX(.3)" fill="#415d72" font-family="GveretLevinAlefAlefAlef-Regular, 'Gveret Levin AlefAlefAlef'" font-size="6"><tspan x="0" y="0">המצפה לקבל פניכם</tspan></text>
  </g>

  <g id="father_name">
    <text transform="translate(180.5 366.6) rotate(-15.8) scale(.9 1) skewX(.3)" fill="#415d72" font-family="GveretLevinAlefAlefAlef-Regular, 'Gveret Levin AlefAlefAlef'" font-size="6"><tspan x="0" y="0">ב"ר שלמה הי"ו</tspan></text>
  </g>

  <g id="grandfather_name">
    <text transform="translate(175.6 375.3) rotate(-15.8) scale(.9 1) skewX(.3)" fill="#415d72" font-family="GveretLevinAlefAlefAlef-Regular, 'Gveret Levin AlefAlefAlef'" font-size="6"><tspan x="0" y="0">חתן ר' זרח ניישטיין הי"ו</tspan></text>
  </g>

  <g id="invite_text">
    <text transform="translate(101.5 210.1) rotate(-15.8) scale(.9 1) skewX(.3)" fill="#415d72" font-family="GveretLevinAlefAlefAlef-Regular, 'Gveret Levin AlefAlefAlef'" font-size="4.8"><tspan x="0" y="0">מע''כ לבוא להשתתף בשמחת</tspan></text>
  </g>

  <g id="praise">
    <text transform="translate(94.8 182) rotate(-15.8) scale(.9 1) skewX(.3)" fill="#415d72" font-family="GveretLevinAlefAlefAlef-Regular, 'Gveret Levin AlefAlefAlef'" font-size="8.9"><tspan x="0" y="0">ברוב שבח והודאה להשי״ת</tspan></text>
  </g>

  <g id="birth_text">
    <text transform="translate(92.7 199.4) rotate(-15.8) scale(.9 1) skewX(.3)" fill="#415d72" font-family="GveretLevinAlefAlefAlef-Regular, 'Gveret Levin AlefAlefAlef'" font-size="12"><tspan x="0" y="0">בהולדת בני נ״י למזל טוב</tspan></text>
  </g>

  <g id="invite_intro">
    <text transform="translate(146.2 197.3) rotate(-15.8) scale(.9 1) skewX(.3)" fill="#415d72" font-family="GveretLevinAlefAlefAlef-Regular, 'Gveret Levin AlefAlefAlef'" font-size="4.8"><tspan x="0" y="0">אתכבד בזה להזמין את כל</tspan></text>
  </g>

  <g id="title">
    <text transform="translate(111.3 237.5) rotate(-15.8) scale(.9 1) skewX(.3)" fill="#415d72" font-family="GveretLevinAlefAlefAlef-Regular, 'Gveret Levin AlefAlefAlef'" font-size="23.3"><tspan x="0" y="0">וואך נאכט</tspan></text>
  </g>

  <g id="bris_title">
    <text transform="translate(145.2 291.7) rotate(-15.8) scale(.9 1) skewX(.3)" fill="#415d72" font-family="GveretLevinAlefAlefAlef-Regular, 'Gveret Levin AlefAlefAlef'" font-size="13.8"><tspan x="0" y="0"> </tspan><tspan x="4" y="0">ברית מילה</tspan></text>
  </g>

  <g id="synagogue_name">
    <text transform="translate(158.6 307.8) rotate(-15.8) scale(.9 1) skewX(.3)" fill="#415d72" font-family="GveretLevinAlefAlefAlef-Regular, 'Gveret Levin AlefAlefAlef'" font-size="4.8"><tspan x="0" y="0">בביהמ''ד נחלת סקווירא</tspan></text>
  </g>

  <g id="baby_name">
    <text transform="translate(156.7 357.2) rotate(-15.8) scale(.9 1) skewX(.3)" fill="#415d72" font-family="GveretLevinAlefAlefAlef-Regular, 'Gveret Levin AlefAlefAlef'" font-size="14.4"><tspan x="0" y="0">משה יוסף שווארץ</tspan></text>
  </g>

</svg>
