<?xml version="1.0" encoding="UTF-8"?>
<svg id="Layer_1" data-name="Layer 1" xmlns="http://www.w3.org/2000/svg" viewBox="0 0 360 504">
  <g id="address" opacity=".6">
    <text transform="translate(138.3 265.3) rotate(.4) scale(.9 1)" fill="#004ca8" font-family="'Secular One'" font-size="11"><tspan x="0" y="0">2267 56TH STREET</tspan></text>
  </g>
  <g id="at_home_of*" opacity=".6">
    <text transform="translate(155.3 250.1) rotate(.4) scale(.9 1)" fill="#004ca8" font-family="'Gveret Levin AlefAlefAlef'" font-size="14"><tspan x="0" y="0">בבית מו״ח</tspan></text>
  </g>
  <g id="bris_date" opacity=".6">
    <text transform="translate(109.1 234.4) rotate(.4) scale(.9 1)" fill="#004ca8" font-family="'Gveret Levin AlefAlefAlef'" font-size="14"><tspan x="0" y="0">שתתקיים אי׳׳ה למחרתו ביום ה׳</tspan></text>
  </g>
  <g id="invite_text*" opacity=".6">
    <text transform="translate(98.2 122.2) rotate(.4) scale(.9 1)" fill="#004ca8" font-family="'Gveret Levin AlefAlefAlef'" font-size="9"><tspan x="0" y="0">אתכבד בזה להזמין את כמע׳׳כ לבוא להשתתף בשמחתל</tspan></text>
  </g>
  <g id="birth_celebration*" opacity=".6">
    <text transform="translate(103.7 104.2) rotate(.4) scale(.9 1)" fill="#004ca8" font-family="'Gveret Levin AlefAlefAlef'" font-size="19"><tspan x="0" y="0">בהולדת בני נ״י למזל טוב</tspan></text>
  </g>
  <g id="praise_text*" opacity=".6">
    <text transform="translate(130.8 78.1) rotate(.4) scale(.9 1)" fill="#004ca8" font-family="'Gveret Levin AlefAlefAlef'" font-size="11"><tspan x="0" y="0">ברוב שבח והודאה להשי״ת</tspan></text>
  </g>
  <g id="father_name" opacity=".6">
    <text transform="translate(129.8 316.1) rotate(.4) scale(.9 1)" fill="#d17f4a" font-family="'Gveret Levin AlefAlefAlef'" font-size="22"><tspan x="0" y="0">מרדכי ראטה</tspan></text>
  </g>
  <g id="vachnacht_title*" opacity=".6">
    <text transform="translate(65.2 190.2) rotate(.4) scale(.9 1)" fill="#d17f4a" font-family="'Gveret Levin AlefAlefAlef'" font-size="67.4"><tspan x="0" y="0">וואך נאכט</tspan></text>
  </g>
  <g id="awaiting_you*" opacity=".6">
    <text transform="translate(132.3 293.1) rotate(.4) scale(.9 1)" fill="#004ca8" font-family="'Gveret Levin AlefAlefAlef'" font-size="14"><tspan x="0" y="0">המצפה לקבל פניכם</tspan></text>
  </g>
</svg>
