<?xml version="1.0" encoding="UTF-8"?>
<svg id="Layer_1" data-name="Layer 1" xmlns="http://www.w3.org/2000/svg" viewBox="0 0 360 504">
  <g id="_שמאול_יצחק_וייס" data-name=" * שמאול יצחק וייס">
    <g id="chusen_name*">
      <text transform="translate(180 377.5)" fill="#606a73" font-family="Heebo" font-weight="900" font-size="23.1" text-anchor="middle"><tspan x="0" y="0">שמאול יצחק</tspan></text>
    </g>
  </g>
  <g id="_שמאול_יצחק_וייס-2" data-name=" * שמאול יצחק וייס">
    <g id="chusen_last_name*">
      <text transform="translate(180 401.9)" fill="#606a73" font-family="Heebo" font-weight="900" font-size="23.1" text-anchor="middle"><tspan x="0" y="0">ווייס</tspan></text>
    </g>
  </g>
  <g id="_החתן" data-name=" החתן">
    <g id="text1">
      <text transform="translate(180 353.1)" fill="#808a92" font-family="Heebo" font-weight="600" font-size="18.5" text-anchor="middle"><tspan x="0" y="0">החתן</tspan></text>
    </g>
  </g>
  <g id="_600-640_McDonald_Ave_" data-name="600-640 McDonald Ave *">
    <g id="address*">
      <text transform="translate(180 328)" fill="#949ea7" font-family="Heebo" font-weight="900" font-size="13.1" text-anchor="middle"><tspan x="0" y="0">600-640 McDonald Ave</tspan></text>
    </g>
  </g>
  <g id="_תפארת_מרדכי" data-name=" * תפארת מרדכי">
    <g id="hall_name*">
      <text transform="translate(180 312.8)" fill="#949ea7" font-family="Heebo" font-weight="900" font-size="17.7" text-anchor="middle"><tspan x="0" y="0">תפארת מרדכי</tspan></text>
    </g>
  </g>
  <g id="_פרשת_מקץ" data-name="* פרשת מקץ">
    <g id="parsha*">
      <text transform="translate(180 269.9)" fill="#626d73" font-family="Heebo" font-weight="900" font-size="16.6" text-anchor="middle"><tspan x="0" y="0">פרשת מקץ</tspan></text>
    </g>
  </g>
  <g id="_דינסטאג" data-name="* דינסטאג">
    <g id="date*">
      <text transform="translate(180 250.2)" fill="#626d73" font-family="Heebo" font-weight="900" font-size="15.7" text-anchor="middle"><tspan x="0" y="0">דינסטאג</tspan></text>
    </g>
  </g>
  <g id="text2">
    <text transform="translate(180 293.8)" fill="#808a92" font-family="Heebo" font-weight="600" font-size="11" text-anchor="middle"><tspan x="0" y="0">אין די זאלן פון</tspan></text>
  </g>
  <g id="text3">
    <text transform="translate(180 224.9)" fill="#808a92" font-family="Heebo" font-weight="600" font-size="11" text-anchor="middle"><tspan x="0" y="0">וואס וועט אי״ה פארקומען</tspan></text>
  </g>
  <g id="text4">
    <text transform="translate(180 126.2)" fill="#606a73" font-family="Heebo" font-weight="600" font-size="12" text-anchor="middle"><tspan x="0" y="0">אנליידינען צו מיין</tspan></text>
  </g>
  <g>
    <path d="M124.7,114.9v-8.2h-3.2v-1.2h4.7v9.4h-1.5Z" fill="#606a73"/>
    <path d="M128.7,109.4v-2.8h-1.2v-1.2h2.7v3.9h-1.5Z" fill="#606a73"/>
    <path d="M131.5,106.6v-3.2h1.5v2h3.5v1.2h-5ZM137,106.4l-2.4,6h-1.6l2.9-7h1.1v1Z" fill="#606a73"/>
    <path d="M139.1,112.5c-.2,0-.4,0-.6,0s-.4,0-.6-.1v-1.2c.3,0,.6,0,.9,0s.5,0,.7-.2.2-.4.2-.8v-3.7h-1.3v-1.2h2.8v5c0,.7-.2,1.2-.5,1.6s-.8.5-1.5.5Z" fill="#606a73"/>
    <path d="M145.1,112.6c-.4,0-.8,0-1.2-.1s-.9-.2-1.4-.4l.3-1.1c.4.2.8.3,1.1.3s.7.1,1,.1c.6,0,1.1-.2,1.4-.5s.5-.8.5-1.4v-4.1h1.5v4.1c0,.7-.1,1.2-.4,1.7s-.7.8-1.1,1-1.1.3-1.7.3ZM142.8,105.5h1.5l1.1,5c0,.3.1.5.2.7s.2.4.3.5h-1.1c-.2-.1-.4-.3-.5-.5s-.3-.5-.3-.8l-1.1-4.9Z" fill="#606a73"/>
    <path d="M151,112.4l-.8-5.7h-.4v-1.2h3.7v1.2h-1.7l.9,5.8h-1.6Z" fill="#606a73"/>
    <path d="M156.8,112.6c-.4,0-.8,0-1.2-.1s-.9-.2-1.4-.4l.3-1.1c.4.2.8.3,1.1.3s.7.1,1,.1c.6,0,1.1-.2,1.4-.5s.5-.8.5-1.4v-4.1h1.5v4.1c0,.7-.1,1.2-.4,1.7s-.7.8-1.1,1-1.1.3-1.7.3ZM154.5,105.5h1.5l1.1,5c0,.3.1.5.2.7s.2.4.3.5h-1.1c-.2-.1-.4-.3-.5-.5s-.3-.5-.3-.8l-1.1-4.9Z" fill="#606a73"/>
    <path d="M164.7,112.4v-4.7c0-.3,0-.6-.3-.8s-.5-.3-.8-.3h-2.2v-1.2h2.3c.8,0,1.4.2,1.9.6s.7,1,.7,1.7v4.6h-1.5Z" fill="#606a73"/>
    <path d="M170.5,112.6c-.4,0-.8,0-1.2-.1s-.9-.2-1.2-.3l.3-1.1c.4.1.7.2,1.1.2s.7,0,1,0c.6,0,1.1-.1,1.4-.4s.5-.7.5-1.2v-3.1h-2.4c-.1.2-.2.5-.2.7s0,.5,0,.8v.4c0,0,.2,0,.3,0s.3,0,.4,0v1.1c-.3,0-.6,0-.9,0s-.5,0-.7-.1-.4-.2-.6-.3v-.8c0-.4,0-.8.1-1.1s.2-.7.4-.9h-.8v-1.2h6v4c0,.7-.1,1.3-.4,1.8s-.7.8-1.2,1-1,.3-1.7.3Z" fill="#606a73"/>
    <path d="M181.4,114.9v-8.2h-3.2v-1.2h4.7v9.4h-1.5Z" fill="#606a73"/>
    <path d="M185.4,109.4v-2.8h-1.2v-1.2h2.7v3.9h-1.5Z" fill="#606a73"/>
    <path d="M188.1,105.5h5.8v1.2h-1.2v5.8h-1.5v-5.8h-3.1v-1.2Z" fill="#606a73"/>
    <path d="M197.8,106.6v-3.2h1.5v2h3.5v1.2h-5ZM203.3,106.4l-2.4,6h-1.6l2.9-7h1.1v1Z" fill="#606a73"/>
    <path d="M205.2,109.4v-2.8h-1.2v-1.2h2.7v3.9h-1.5Z" fill="#606a73"/>
    <path d="M208.8,112.4v-5.8h-.7v-1.2h2.2v7h-1.5Z" fill="#606a73"/>
    <path d="M212.5,112.4v-5.8h-.7v-1.2h2.2v7h-1.5Z" fill="#606a73"/>
    <path d="M221.7,114.9v-8.2h-3.2v-1.2h4.7v9.4h-1.5Z" fill="#606a73"/>
    <path d="M225.6,109.4v-2.8h-1.2v-1.2h2.7v3.9h-1.5Z" fill="#606a73"/>
    <path d="M233.7,112.4l-4.9-7h1.7l4.9,7h-1.7ZM229.1,112.4v-2.4c0-.7.1-1.2.4-1.6s.6-.7,1.2-.9l.6.8c-.4.2-.6.6-.6,1.1v3h-1.5ZM235.5,105.5l-2.3,4.3-1-1.2,1.6-3.1h1.7Z" fill="#606a73"/>
  </g>
</svg>