<?xml version="1.0" encoding="UTF-8"?>
<svg id="Layer_1" data-name="Layer 1" xmlns="http://www.w3.org/2000/svg" viewBox="0 0 215 288">
  <g id="groom_first_name*">
    <text transform="translate(107.5 219.5)" fill="#e6b765" font-family="Heebo" font-weight="900" font-size="13.4" text-anchor="middle"><tspan x="0" y="0">שמאול יצחק</tspan></text>
  </g>
  <g id="groom_last_name*">
    <text transform="translate(107.5 233.7)" fill="#e6b765" font-family="Heebo" font-weight="900" font-size="13.4" text-anchor="middle"><tspan x="0" y="0">וייס</tspan></text>
  </g>
  <text transform="translate(107.5 205.3)" fill="#218b77" font-family="Heebo" font-weight="600" font-size="10.5" text-anchor="middle"><tspan x="0" y="0">החתן</tspan></text>
  <g id="address*">
    <text transform="translate(107.5 188.9)" fill="#218b77" font-family="Heebo" font-weight="900" font-size="7.7" text-anchor="middle"><tspan x="0" y="0">600-640 McDonald Ave</tspan></text>
  </g>
  <g id="hall*">
    <text transform="translate(107.5 180)" fill="#218b77" font-family="Heebo" font-weight="900" font-size="10.3" text-anchor="middle"><tspan x="0" y="0">תפארת מרדכי</tspan></text>
  </g>
  <g id="parsha*">
    <text transform="translate(107.5 155.1)" fill="#e6b765" font-family="Heebo" font-weight="900" font-size="9.7" text-anchor="middle"><tspan x="0" y="0">פרשת מקץ</tspan></text>
  </g>
  <g id="day*">
    <text transform="translate(107.5 143.6)" fill="#e6b765" font-family="Heebo" font-weight="900" font-size="9.1" text-anchor="middle"><tspan x="0" y="0">דינסטאג</tspan></text>
  </g>
  <text transform="translate(107.5 169)" fill="#218b77" font-family="Heebo" font-weight="600" font-size="6.4" text-anchor="middle"><tspan x="0" y="0">אין די זאלן פון</tspan></text>
  <text transform="translate(107.5 132)" fill="#218b77" font-family="Heebo" font-weight="600" font-size="6.4" text-anchor="middle"><tspan x="0" y="0">וואס וועט אי״ה פארקומען</tspan></text>
  <text transform="translate(107.5 80.6)" fill="#218b77" font-family="Heebo" font-weight="600" font-size="7" text-anchor="middle"><tspan x="0" y="0">אנליידינען צו מיין</tspan></text>
  <g>
    <path d="M73.4,74v-4.8h-1.9v-.7h2.7v5.5h-.9Z" fill="#218b77"/>
    <path d="M75.8,70.8v-1.6h-.7v-.7h1.6v2.3h-.9Z" fill="#218b77"/>
    <path d="M77.4,69.2v-1.9h.9v1.2h2v.7h-2.9ZM80.6,69.1l-1.4,3.5h-.9l1.7-4.1h.7v.6Z" fill="#218b77"/>
    <path d="M81.8,72.7c-.1,0-.2,0-.4,0-.1,0-.2,0-.4,0v-.7c.2,0,.3,0,.5,0s.3,0,.4-.1c0,0,.1-.2.1-.4v-2.1h-.7v-.7h1.6v2.9c0,.4-.1.7-.3.9-.2.2-.5.3-.9.3Z" fill="#218b77"/>
    <path d="M85.3,72.7c-.2,0-.5,0-.7,0-.3,0-.5-.1-.8-.2l.2-.6c.2,0,.5.2.7.2s.4,0,.6,0c.4,0,.6,0,.8-.3.2-.2.3-.4.3-.8v-2.4h.9v2.4c0,.4,0,.7-.2,1-.2.3-.4.5-.7.6-.3.1-.6.2-1,.2ZM84,68.5h.9l.6,2.9c0,.1,0,.3.1.4,0,.1.1.2.2.3h-.7c-.1,0-.2-.2-.3-.3,0-.1-.2-.3-.2-.5l-.6-2.8Z" fill="#218b77"/>
    <path d="M88.8,72.6l-.5-3.3h-.3v-.7h2.1v.7h-1l.5,3.4h-.9Z" fill="#218b77"/>
    <path d="M92.1,72.7c-.2,0-.5,0-.7,0-.3,0-.5-.1-.8-.2l.2-.6c.2,0,.5.2.7.2s.4,0,.6,0c.4,0,.6,0,.8-.3.2-.2.3-.4.3-.8v-2.4h.9v2.4c0,.4,0,.7-.2,1-.2.3-.4.5-.7.6-.3.1-.6.2-1,.2ZM90.8,68.5h.9l.6,2.9c0,.1,0,.3.1.4,0,.1.1.2.2.3h-.7c-.1,0-.2-.2-.3-.3,0-.1-.2-.3-.2-.5l-.6-2.8Z" fill="#218b77"/>
    <path d="M96.7,72.6v-2.7c0-.2,0-.4-.2-.5-.1-.1-.3-.2-.5-.2h-1.3v-.7h1.3c.5,0,.8.1,1.1.4.3.2.4.6.4,1v2.7h-.9Z" fill="#218b77"/>
    <path d="M100.1,72.7c-.2,0-.4,0-.7,0-.3,0-.5-.1-.7-.2l.2-.6c.2,0,.4.1.7.1s.4,0,.6,0c.3,0,.6,0,.8-.2.2-.2.3-.4.3-.7v-1.8h-1.4c0,.1-.1.3-.1.4,0,.2,0,.3,0,.5v.2s.1,0,.2,0c0,0,.2,0,.3,0v.6c-.2,0-.3,0-.5,0-.2,0-.3,0-.4,0-.1,0-.3,0-.4-.2v-.4c0-.2,0-.4,0-.6,0-.2.1-.4.2-.5h-.5v-.7h3.5v2.3c0,.4,0,.8-.3,1-.2.3-.4.5-.7.6-.3.1-.6.2-1,.2Z" fill="#218b77"/>
    <path d="M106.4,74v-4.8h-1.9v-.7h2.7v5.5h-.9Z" fill="#218b77"/>
    <path d="M108.8,70.8v-1.6h-.7v-.7h1.6v2.3h-.9Z" fill="#218b77"/>
    <path d="M110.4,68.5h3.4v.7h-.7v3.4h-.9v-3.4h-1.8v-.7Z" fill="#218b77"/>
    <path d="M116,69.2v-1.9h.9v1.2h2v.7h-2.9ZM119.2,69.1l-1.4,3.5h-.9l1.7-4.1h.7v.6Z" fill="#218b77"/>
    <path d="M120.3,70.8v-1.6h-.7v-.7h1.6v2.3h-.9Z" fill="#218b77"/>
    <path d="M122.4,72.6v-3.4h-.4v-.7h1.3v4.1h-.9Z" fill="#218b77"/>
    <path d="M124.6,72.6v-3.4h-.4v-.7h1.3v4.1h-.9Z" fill="#218b77"/>
    <path d="M129.9,74v-4.8h-1.9v-.7h2.7v5.5h-.9Z" fill="#218b77"/>
    <path d="M132.2,70.8v-1.6h-.7v-.7h1.6v2.3h-.9Z" fill="#218b77"/>
    <path d="M136.9,72.6l-2.9-4.1h1l2.9,4.1h-1ZM134.2,72.6v-1.4c0-.4,0-.7.2-1,.1-.2.4-.4.7-.5l.3.4c-.2.1-.4.4-.4.7v1.8h-.9ZM137.9,68.5l-1.4,2.5-.6-.7,1-1.8h1Z" fill="#218b77"/>
  </g>
</svg>
