<?xml version="1.0" encoding="UTF-8"?>
<svg id="Layer_1" data-name="Layer 1" xmlns="http://www.w3.org/2000/svg" viewBox="0 0 360 504">
  <g id="invite_text">
    <text transform="translate(180 62)" text-anchor="middle" fill="#e9c47d" font-family="Playpen Sans Hebrew" font-size="11.6" font-weight="700"><tspan x="0" y="0">אנליידינען צו מיין</tspan></text>
  </g>
  <g>
    <path d="M126.1,43c-.3,0-.5,0-.7.1-.2,0-.3.2-.5.3-.1.1-.3.2-.4.3s-.3.1-.4.1c-.1,0-.3,0-.4-.2-.1,0-.3-.2-.4-.4,0-.2-.1-.3-.1-.5s0-.3,0-.4c0-.1.1-.3.2-.4.3-.3.7-.6,1.1-.8s.9-.3,1.5-.3.8,0,1.2.2c.4.1.8.3,1.1.5.3.2.6.5.8.9s.3.8.3,1.2c0,.7-.2,1.3-.6,1.7s-1,.6-1.7.7c-.2,0-.3,0-.4.2-.1.1-.2.3-.2.5,0,.4,0,.9,0,1.4,0,.5,0,.9-.1,1.3,0,.4-.1.7-.2.9,0,.2-.2.4-.3.5-.1.1-.3.2-.5.2s-.3,0-.5,0c-.2,0-.3-.2-.4-.3-.1-.1-.2-.3-.2-.6s0-.1,0-.2c0,0,0-.1,0-.2,0-.4.1-1,.2-1.6,0-.6,0-1.2,0-1.8,0-.4,0-.7.1-.9,0-.2.2-.4.3-.5.2,0,.4-.2.7-.2.5,0,.9-.1,1.2-.3.3-.1.5-.4.5-.7s0-.4-.2-.5c-.2-.1-.3-.3-.5-.3-.2,0-.4-.1-.6-.1Z" fill="#e9c47d"/>
    <path d="M130.8,41.8c0-.3,0-.5.3-.6s.5-.2.8-.2.5,0,.6.2c.1.1.2.4.2.6,0,.4,0,.8,0,1.3,0,.5,0,.9,0,1.4,0,.5-.3.8-.8.8s-.3,0-.5,0-.3-.1-.3-.2c0-.1-.1-.3-.1-.5,0-.4,0-.9,0-1.4,0-.5,0-.9,0-1.3Z" fill="#e9c47d"/>
    <path d="M135,48.2c-.4,0-.8-.1-1.1-.4-.4-.3-.7-.6-.9-1.2,0-.1,0-.2-.1-.3s0-.2,0-.3c0-.1,0-.2.1-.4,0-.1.2-.2.3-.2.1,0,.2,0,.3,0s.2,0,.3,0,.2.2.3.4c.1.2.2.3.3.4,0,0,.2.1.3.1s.2,0,.2-.1c0,0,0-.2.1-.4s0-.4,0-.7c0-.6,0-1.2,0-1.8,0-.6,0-1.2,0-1.8s.2-1.1.4-1.6c.2-.5.6-.9,1-1.3,0,0,.2-.1.3-.2s.2,0,.3,0,.3,0,.4.1c.1,0,.3.2.4.4.1.1.2.3.2.5s0,.2,0,.3c0,0-.1.2-.2.2-.3.3-.5.6-.7.9-.2.3-.3.7-.3,1.1s0,.7,0,1.1c0,.4,0,.7,0,1v1.3c0,1-.2,1.8-.5,2.2-.3.5-.8.7-1.4.7Z" fill="#e9c47d"/>
    <path d="M140.7,42.7c0,.3,0,.6,0,1s0,.8,0,1.2c0,.8,0,1.5,0,2.1,0,.6,0,1-.1,1.4,0,.4-.1.7-.2.9,0,.2-.2.4-.3.6-.2.2-.4.4-.7.6-.3.1-.5.2-.8.2s-.6,0-.8-.3c-.2-.2-.3-.4-.3-.7s0-.2,0-.3c0,0,.1-.1.2-.1s.2,0,.3-.1c.1,0,.2-.1.3-.2,0,0,.2-.2.2-.3,0-.1.1-.3.2-.6s0-.7,0-1.2c0-.5,0-1.2,0-2.1,0-.7,0-1.2,0-1.7s0-.9,0-1.3c0-.3,0-.5.2-.7s.4-.3.7-.3.4,0,.6.2c.1.1.2.3.3.5,0,.1,0,.3,0,.5s0,.4,0,.5Z" fill="#e9c47d"/>
    <path d="M145.9,43.2c-.4.2-.7.4-.9.7-.2.2-.4.5-.5.8,0,.3-.1.5-.1.8s0,.5.2.6c.1.1.3.2.5.2s.3,0,.4,0c.1,0,.2-.2.3-.3s.1-.3.1-.5,0-.4,0-.6-.2-.4-.3-.5c-.1-.2-.3-.3-.5-.5s-.4-.3-.6-.4c-.3-.1-.6-.2-1-.3-.4,0-.7-.1-1.1-.2-.3,0-.4-.1-.5-.2-.1-.1-.2-.3-.2-.5s0-.4,0-.5c0-.2.2-.3.3-.5s.3-.2.5-.2c.3,0,.7,0,1.1.1.4,0,.8.2,1.1.3.4.1.8.3,1.1.6.4.3.7.6,1,.9.3.3.5.7.7,1.2.2.4.2.9.2,1.4s-.1,1.2-.3,1.6c-.2.4-.5.8-.9,1-.4.2-.9.3-1.4.3s-.9-.1-1.3-.3c-.4-.2-.6-.5-.8-.9-.2-.4-.3-.9-.3-1.4s0-1.1.3-1.6c.2-.5.4-.9.8-1.3s.7-.7,1.2-1c.5-.3.8-.5,1.1-.6.3-.1.5-.2.7-.3.1,0,.2,0,.3,0,.1,0,.2,0,.3,0,.2,0,.4,0,.5,0,.2,0,.3.1.4.2.1.1.2.3.2.5s0,.4-.2.5c-.1.1-.2.2-.4.2-.3.1-.6.2-.9.4-.3.1-.6.3-1,.5Z" fill="#e9c47d"/>
    <path d="M154.9,45.6c0,.6-.1,1.2-.4,1.6s-.7.8-1.1,1.1c-.5.3-1,.4-1.7.4s-.6,0-.9,0-.7-.2-1-.3-.6-.3-.9-.5c-.2-.1-.3-.3-.4-.4s-.2-.3-.2-.5,0-.3.1-.4c0-.2.2-.3.3-.5.1-.1.3-.2.4-.2s.2,0,.3,0c.1,0,.2,0,.3.1.3.2.6.3.9.4.3.1.7.2,1,.2s.5,0,.7-.1c.2,0,.3-.2.4-.4.1-.2.2-.4.2-.6s0-.4-.2-.6c-.1-.2-.3-.3-.5-.5-.2-.1-.5-.2-.9-.3-.2,0-.3.1-.5.2s-.3,0-.5,0c-.3,0-.5,0-.6-.2-.2-.1-.2-.3-.2-.6s0-.4.3-.6.4-.2.6-.3c0-.2,0-.4,0-.6,0-.2,0-.4,0-.5,0-.2.1-.4.3-.5.2-.1.4-.2.8-.2s.4,0,.5.1c.1,0,.2.2.2.5s0,.4,0,.6,0,.5-.1.6c.5.1,1,.3,1.4.5s.7.5,1,.9c.2.4.4.8.4,1.3Z" fill="#e9c47d"/>
    <path d="M159.4,43.4c-.6.3-1,.7-1.3,1s-.4.6-.4,1,0,.4.2.6c.1.1.3.2.6.2s.4,0,.5-.1c.2,0,.3-.2.4-.4,0-.2.1-.3.1-.5s0-.4-.2-.6c-.1-.2-.2-.3-.4-.5-.2-.2-.4-.3-.6-.4-.2-.1-.5-.2-.8-.4-.3-.1-.5-.2-.8-.3-.3,0-.6-.1-.9-.2-.2,0-.4-.1-.5-.2s-.1-.3-.1-.5,0-.4.1-.5.2-.3.3-.4c.2-.1.3-.2.6-.2s.4,0,.6,0c.2,0,.4,0,.6,0,.2,0,.4,0,.6.2.5.2,1,.4,1.4.6.4.2.8.5,1.1.8.3.3.5.7.7,1.1.2.4.2.9.2,1.4s-.1,1.2-.4,1.6c-.2.5-.6.8-1,1.1-.4.3-1,.4-1.5.4s-.9,0-1.3-.3-.7-.5-.9-.8c-.2-.4-.3-.8-.3-1.3s.1-1.1.3-1.6c.2-.4.5-.8.9-1.2.4-.4.8-.7,1.3-1,.5-.3.8-.5,1.1-.6.3-.1.5-.2.7-.3.1,0,.3-.1.5-.1s.3,0,.4,0c.3,0,.5,0,.7.2.2.1.2.3.2.5s0,.4-.1.5c0,.1-.2.2-.4.3-.2,0-.4.2-.6.3-.2.1-.5.2-.7.3-.2.1-.5.2-.7.4Z" fill="#e9c47d"/>
    <path d="M168.5,45.4c0,.3,0,.7,0,1.1,0,.4,0,.7-.1.9,0,.2-.2.4-.3.6s-.4.2-.6.2-.5,0-.6-.1c-.1,0-.2-.2-.2-.4h0c0-.1,0-.1,0-.2,0-.2,0-.5,0-.8,0-.3,0-.7,0-1,0-.7,0-1.2-.2-1.6s-.4-.7-.7-.8c-.3-.2-.7-.2-1.2-.2s-.6,0-.8,0c-.2,0-.4,0-.5,0-.2,0-.4,0-.5-.2-.1-.1-.2-.2-.3-.4,0-.2,0-.3,0-.5s0-.3.1-.5c0-.1.2-.2.4-.3.3-.1.5-.2.9-.3.3,0,.6,0,.9,0,.8,0,1.5.2,2.1.5.6.3,1,.8,1.3,1.4.3.7.5,1.5.5,2.6Z" fill="#e9c47d"/>
    <path d="M176.1,44.4c0,.7-.2,1.3-.5,1.9s-.7,1-1.2,1.3c-.5.3-1.1.5-1.8.5s-1,0-1.4-.3c-.4-.2-.7-.4-1-.8-.2-.3-.4-.8-.4-1.2s0-.7.2-.9c.1-.3.3-.5.6-.6.2-.1.5-.2.8-.2s.5,0,.8.2c.2.1.4.3.6.4s.2.4.2.7,0,.3-.2.4c-.1.1-.3.2-.4.2s-.2,0-.3-.2c0,0,0-.1-.1-.2,0,0-.1,0-.2,0s-.1,0-.2,0c0,0,0,.1,0,.2,0,.2,0,.4.3.5.2.1.4.2.7.2s.6,0,.9-.2c.2-.2.4-.4.6-.6s.2-.6.2-.9,0-.8-.3-1.1c-.2-.3-.5-.4-.8-.5-.3-.1-.7-.1-1-.1s-.4,0-.6,0c-.2,0-.4,0-.7.2-.1,0-.2,0-.3,0,0,0-.1,0-.2,0-.2,0-.4,0-.6-.3-.2-.2-.2-.4-.2-.8s0-.4.1-.5c0-.1.2-.3.5-.4.3-.1.6-.2.9-.3.3,0,.6,0,1,0,.6,0,1.1,0,1.6.2.5.1.9.3,1.3.6s.7.6.9,1.1.3,1,.3,1.6Z" fill="#e9c47d"/>
    <path d="M186.4,44.8c0,.6,0,1.1-.3,1.4-.2.4-.5.7-.8.8-.3.2-.7.3-1.1.3s-.5,0-.8-.1c-.2,0-.5-.2-.7-.3,0,.6,0,1.2,0,1.8,0,.6,0,1.1-.1,1.6,0,.3-.1.5-.3.6s-.4.1-.7.1-.5,0-.6-.3c-.1-.2-.1-.4-.1-.6,0-.5,0-1,.1-1.5s0-1.1,0-1.6c0-.6,0-1.1,0-1.6,0-.2,0-.3.3-.5.2-.1.4-.2.6-.2s.1,0,.2,0,.1,0,.2,0c.3.2.6.3.8.4.2,0,.4.1.7.1s.3,0,.4,0c.1,0,.2-.1.3-.3,0-.1,0-.3,0-.5,0-.3,0-.6-.3-.8-.2-.2-.4-.4-.7-.5-.3-.1-.6-.2-.9-.2s-.4,0-.6,0c-.2,0-.4,0-.5.2-.2,0-.4.1-.6.1s-.3,0-.5-.2c-.1-.1-.2-.3-.3-.5,0-.2,0-.3,0-.5,0-.2,0-.4.2-.5.1-.1.3-.3.5-.4.3-.2.6-.3.9-.3.3,0,.6-.1,1-.1.7,0,1.2.1,1.8.4.5.3,1,.7,1.3,1.3.3.6.5,1.3.5,2.1Z" fill="#e9c47d"/>
    <path d="M187.8,44.4c0-.3,0-.5,0-.9,0-.3,0-.7,0-1s0-.6,0-.9c0-.2,0-.4.1-.5,0-.1.2-.2.3-.2s.3,0,.5,0c.3,0,.5,0,.6.2.1.1.2.3.2.6,0,.3,0,.6,0,.9v1c0,.3,0,.6,0,.9,0,.3,0,.5-.2.6-.1.1-.4.2-.7.2s-.5,0-.7-.2c-.2-.1-.2-.4-.2-.7Z" fill="#e9c47d"/>
    <path d="M196.7,43.3c0,.6-.2,1.1-.5,1.5-.3.4-.7.7-1.3.9.1.1.2.3.3.5s0,.4,0,.5,0,.3,0,.5c0,.2-.2.4-.3.5-.1.1-.2.2-.4.3-.2,0-.3,0-.5,0s-.2,0-.3,0c-.1,0-.2,0-.3-.1,0,0-.1-.2-.1-.3s0,0,0,0c0,0,0,0,0-.1,0-.2,0-.3.2-.5s0-.4,0-.6,0-.2,0-.2c0,0,0-.1,0-.2h-.1c-.3,0-.6,0-.8-.2-.2-.1-.4-.3-.4-.6s0-.3.1-.4c0-.1.2-.2.5-.2s.3,0,.5,0c.2,0,.4.1.6.2.2,0,.3-.1.4-.2.1,0,.2-.2.3-.3,0-.1,0-.3,0-.5s0-.3-.1-.4-.2-.2-.3-.3-.2-.1-.4-.1-.3,0-.4,0c-.3,0-.5,0-.8.1s-.5.2-.8.4c-.1,0-.2.1-.3.2s-.2,0-.3,0c-.2,0-.3,0-.5-.2-.1-.1-.2-.3-.3-.4,0-.2-.1-.3-.1-.5s0-.4.2-.5c.1-.1.2-.3.4-.4.3-.2.7-.4,1.1-.5.5-.1,1-.2,1.5-.2s.7,0,1,.1c.4,0,.7.2,1,.4s.5.4.7.7c.2.3.3.7.3,1.1Z" fill="#e9c47d"/>
    <path d="M202.6,48.2c-.3,0-.6,0-.9-.2-.3-.1-.5-.3-.8-.6,0-.1-.2-.2-.3-.3,0-.1-.1-.2-.1-.4s0-.3.2-.5c.1-.1.3-.2.4-.2s.3,0,.5.2c0,0,.1,0,.2,0s.2,0,.3,0c.2,0,.3,0,.4-.3s0-.4,0-.7,0-.4,0-.7c0-.3,0-.6,0-1,0-.4,0-.7,0-1,0-.3,0-.6,0-.8,0-.8,0-1.5.3-1.9.2-.5.4-.8.7-1.1.3-.2.6-.4.9-.5,0,0,.1,0,.2,0s.1,0,.2,0c.2,0,.3,0,.4.2s.2.2.3.4,0,.3,0,.4c0,.2,0,.4-.2.5-.1.1-.3.2-.4.2-.2,0-.3.2-.4.3-.1.1-.2.3-.2.6,0,.3,0,.6,0,1.1s0,.4,0,.8,0,.7,0,1c0,.4,0,.7,0,1,0,.3,0,.6,0,.8,0,.5,0,.9-.2,1.3s-.3.7-.5.9c-.2.2-.6.3-1,.3Z" fill="#e9c47d"/>
    <path d="M206,44.4c0-.3,0-.5,0-.9,0-.3,0-.7,0-1,0-.3,0-.6,0-.9,0-.2,0-.4.1-.5s.2-.2.3-.2.3,0,.5,0c.3,0,.5,0,.6.2s.2.3.2.6c0,.3,0,.6,0,.9v1c0,.3,0,.6,0,.9,0,.3,0,.5-.2.6s-.4.2-.7.2-.5,0-.7-.2c-.2-.1-.2-.4-.2-.7Z" fill="#e9c47d"/>
    <path d="M211.3,43.7c0,.5,0,1,0,1.5,0,.5,0,1.1-.1,1.6,0,.4-.2.8-.3,1-.2.2-.4.3-.7.3s-.4,0-.6-.2c-.1-.2-.2-.4-.2-.7,0-.4,0-.9,0-1.3,0-.4,0-.8,0-1.2,0-.4,0-.8,0-1.2v-1.9c0-.3,0-.5.2-.6s.3-.2.6-.2.5,0,.7.2c.1.1.2.3.3.7,0,.2,0,.4,0,.6,0,.2,0,.4,0,.7,0,.2,0,.4,0,.7Z" fill="#e9c47d"/>
    <path d="M214.5,47.3c0,.2,0,.4-.2.5-.1.1-.3.2-.6.2s-.6,0-.7-.2c-.1-.1-.2-.3-.2-.6v-1.2c0-.4,0-.8,0-1.2s0-.8,0-1.2,0-.8,0-1.1,0-.7,0-1c0-.3,0-.5.2-.5s.3-.1.7-.1.5,0,.6.2c.1.1.2.3.2.6,0,.3,0,.6,0,1v1.2c0,.4,0,.8,0,1.2,0,.4,0,.8,0,1.2s0,.7,0,1Z" fill="#e9c47d"/>
    <path d="M221.9,43c-.3,0-.5,0-.7.1-.2,0-.3.2-.5.3-.1.1-.3.2-.4.3s-.3.1-.4.1c-.1,0-.3,0-.4-.2-.1,0-.3-.2-.4-.4,0-.2-.1-.3-.1-.5s0-.3,0-.4c0-.1.1-.3.2-.4.3-.3.7-.6,1.1-.8s.9-.3,1.5-.3.8,0,1.2.2c.4.1.8.3,1.1.5.3.2.6.5.8.9s.3.8.3,1.2c0,.7-.2,1.3-.6,1.7-.4.4-1,.6-1.7.7-.2,0-.3,0-.4.2-.1.1-.2.3-.2.5,0,.4,0,.9,0,1.4,0,.5,0,.9-.1,1.3,0,.4-.1.7-.2.9,0,.2-.2.4-.3.5s-.3.2-.5.2-.3,0-.5,0c-.2,0-.3-.2-.4-.3-.1-.1-.2-.3-.2-.6s0-.1,0-.2c0,0,0-.1,0-.2,0-.4.2-1,.2-1.6,0-.6,0-1.2,0-1.8,0-.4,0-.7.1-.9,0-.2.2-.4.3-.5.2,0,.4-.2.7-.2.5,0,.9-.1,1.2-.3s.5-.4.5-.7,0-.4-.2-.5c-.1-.1-.3-.3-.5-.3-.2,0-.4-.1-.6-.1Z" fill="#e9c47d"/>
    <path d="M226.5,41.8c0-.3,0-.5.3-.6s.5-.2.8-.2.5,0,.6.2c.1.1.2.4.2.6,0,.4,0,.8,0,1.3,0,.5,0,.9,0,1.4,0,.5-.3.8-.8.8s-.3,0-.5,0-.3-.1-.3-.2c0-.1-.1-.3-.1-.5,0-.4,0-.9,0-1.4s0-.9,0-1.3Z" fill="#e9c47d"/>
    <path d="M231.5,44.8c0,0,0,.2,0,.4,0,.2,0,.4,0,.6,0,.2,0,.5,0,.7,0,.3,0,.5,0,.7,0,.4-.1.6-.3.7-.1.1-.3.2-.5.2-.3,0-.6-.1-.7-.3s-.2-.6-.2-1.2v-.5c0-.4,0-.9,0-1.4,0-.5,0-1,0-1.6,0-.6,0-1.1,0-1.6,0-.4.1-.7.2-.8.1-.1.3-.2.6-.2s.4,0,.5.1.2.2.3.3c0,.2,0,.4,0,.6v1c0,.2,0,.4,0,.6,0,.2,0,.5,0,.7s0,.5,0,.8ZM232,44.8c0-.5,0-1,.2-1.5.1-.5.3-.9.5-1.2.2-.4.5-.6.9-.8.4-.2.8-.3,1.3-.3s.5,0,.7,0c.2,0,.3.1.5.2.1,0,.2.2.3.3s.1.3.1.5,0,.3-.1.5c0,.2-.2.3-.3.5-.1.1-.3.2-.4.2s0,0-.2,0c-.1,0-.2,0-.4-.1-.1,0-.3,0-.4,0-.2,0-.4,0-.5.1-.1,0-.2.2-.3.4,0,.2-.1.3-.2.5,0,.2,0,.4,0,.7s0,.5,0,.7c0,.2.1.3.2.5,0,.1.2.2.3.2s.3,0,.5-.1.3-.2.4-.4c0-.1.2-.2.3-.3.1,0,.2,0,.3,0s.3,0,.5.2c.1.1.2.3.3.5s0,.4,0,.5,0,.2,0,.3c0,0,0,.2-.2.3-.3.4-.6.7-1,.9-.4.2-.8.3-1.1.3s-.9-.1-1.3-.4-.6-.6-.8-1.1c-.2-.5-.3-1.1-.3-1.8Z" fill="#e9c47d"/>
  </g>
  <g id="event_intro">
    <text transform="translate(180 156.8)" text-anchor="middle" fill="#e9c47d" font-family="Playpen Sans Hebrew" font-size="13.6" font-weight="700"><tspan x="0" y="0">וואס וועט אי״ה פארקומען</tspan></text>
  </g>
  <g id="day*">
    <text transform="translate(180 188)" text-anchor="middle" fill="#846a4b" font-family="Playpen Sans Hebrew" font-size="19.4" font-weight="700"><tspan x="0" y="0">דינסטאג</tspan></text>
  </g>
  <g id="parasha*">
    <text transform="translate(180 212.4)" text-anchor="middle" fill="#846a4b" font-family="Playpen Sans Hebrew" font-size="20.6" font-weight="700"><tspan x="0" y="0">פרשת מקץ</tspan></text>
  </g>
  <g id="hall_intro">
    <text transform="translate(180 242)" text-anchor="middle" fill="#e9c47d" font-family="Playpen Sans Hebrew" font-size="13.6" font-weight="700"><tspan x="0" y="0">אין די זאלן פון</tspan></text>
  </g>
  <g id="hall*">
    <text transform="translate(180 265.4)" text-anchor="middle" fill="#846a4b" font-family="Playpen Sans Hebrew" font-size="21.9" font-weight="700"><tspan x="0" y="0">תפארת מרדכי</tspan></text>
  </g>
  <g id="address*">
    <text transform="translate(180 279.9)" text-anchor="middle" fill="#846a4b" font-family="Playpen Sans Hebrew" font-size="11.2" font-weight="700"><tspan x="0" y="0">600-640 McDonald Ave</tspan></text>
  </g>
  <g id="groom_title">
    <text transform="translate(180 400.9)" text-anchor="middle" fill="#e9c47d" font-family="Playpen Sans Hebrew" font-size="16.9" font-weight="700"><tspan x="0" y="0">החתן</tspan></text>
  </g>
  <g id="groom_name*">
    <text transform="translate(180 430.9)" text-anchor="middle" fill="#846a4b" font-family="Playpen Sans Hebrew" font-size="21.1" font-weight="700"><tspan x="0" y="0">שמאול יצחק</tspan></text>
  </g>
  <g id="groom_last*">
    <text transform="translate(180 453.2)" text-anchor="middle" fill="#846a4b" font-family="Playpen Sans Hebrew" font-size="21.1" font-weight="700"><tspan x="0" y="0">ווייס</tspan></text>
  </g>
</svg>
