<?xml version="1.0" encoding="UTF-8"?>
<svg id="Layer_1" data-name="Layer 1" xmlns="http://www.w3.org/2000/svg" viewBox="0 0 360 504">
  <text transform="translate(211.7 374.1) rotate(.6)" fill="#7f0700" font-family="Playpen Sans Hebrew" font-weight="400" font-size="17.6"><tspan x="0" y="0">החתן</tspan></text>
  <text transform="translate(105.8 413.2) rotate(.6)" fill="#eae3a1" font-family="Playpen Sans Hebrew" font-weight="800" font-size="39.5"><tspan x="0" y="0">דוד ברוך</tspan></text>
  <text transform="translate(115.4 454.2) rotate(.6)" fill="#eae3a1" font-family="Playpen Sans Hebrew" font-weight="800" font-size="39.5"><tspan x="0" y="0">ווייסמאן</tspan></text>
  <text transform="translate(238 327.6)" fill="#7f0700" font-family="Heebo" font-weight="900" font-size="15.4"><tspan x="2.7" y="0">פרשת וירא</tspan></text>
  <text transform="translate(246.9 310.8)" fill="#7f0700" font-family="Heebo" font-weight="900" font-size="15.4"><tspan x="0" y="0">דינסטאג</tspan></text>
  <text transform="translate(56.9 293.3)" fill="#7f0700" font-family="Heebo" font-weight="600" font-size="10.3"><tspan x="0" y="0">אין די זאלן פון</tspan></text>
  <text transform="translate(223 293.6)" fill="#7f0700" font-family="Heebo" font-weight="600" font-size="10.3"><tspan x="0" y="0">וואס וועט אי״ה פארקומען</tspan></text>
  <text transform="translate(106 113.3)" fill="#eae3a1" font-family="Playpen Sans Hebrew" font-weight="600" font-size="23.8"><tspan x="0" y="0">אנליידינען צו מיין</tspan></text>
  <g>
    <path d="M81.8,79.3c-.6,0-1.1,0-1.6.3-.4.2-.8.4-1.2.8-.2.2-.5.4-.7.5-.2.1-.5.2-.7.2-.2,0-.5,0-.7-.2s-.4-.4-.6-.6c-.2-.2-.2-.5-.2-.7s0-.5,0-.7c0-.2.2-.5.4-.7.6-.6,1.4-1.1,2.2-1.5.8-.4,1.8-.6,3-.6s1.6.1,2.4.4,1.5.6,2.2,1c.7.5,1.2,1,1.6,1.7.4.7.6,1.5.6,2.4,0,1.4-.4,2.5-1.2,3.3-.8.7-2,1.2-3.5,1.4-.4,0-.7.2-.9.4-.2.2-.3.6-.3,1.1,0,1,0,2.1-.1,3.1,0,1-.2,2-.3,2.8-.1.8-.2,1.5-.4,2-.1.4-.3.8-.5,1-.2.2-.5.3-.8.3s-.5,0-.8-.1c-.3,0-.5-.3-.7-.5-.2-.2-.3-.6-.3-1s0-.2,0-.3c0-.1,0-.2,0-.4.2-.9.3-2,.4-3.3,0-1.3.1-2.7.2-4.2,0-.7,0-1.3.2-1.7.1-.4.3-.7.7-.9.3-.2.8-.3,1.3-.3,1.1,0,2-.3,2.7-.6s1-.9,1-1.6-.2-1-.5-1.3-.8-.6-1.3-.8-1-.3-1.6-.3Z" fill="#eae3a1"/>
    <path d="M90.6,77.5c0-.6.1-.9.5-1.2.3-.2.7-.3,1.2-.3s.9.1,1,.4c.2.3.3.6.3,1.1,0,.8,0,1.7,0,2.7,0,1,0,1.9-.1,2.8,0,.9-.5,1.3-1.4,1.3s-.5,0-.8-.1-.4-.2-.6-.4c-.1-.2-.2-.5-.2-.9,0-.9,0-1.8,0-2.7,0-.9,0-1.8,0-2.7Z" fill="#eae3a1"/>
    <path d="M97.5,90.6c-.7,0-1.4-.2-2.1-.7-.7-.5-1.2-1.2-1.6-2.1,0-.2-.2-.4-.2-.6,0-.2,0-.4,0-.5,0-.2,0-.4.2-.6.1-.2.3-.3.5-.4.2-.1.4-.2.6-.2s.4,0,.5.2c.2.1.4.4.6.7.2.3.4.6.6.8.2.2.4.3.7.3s.4,0,.5-.3c.1-.2.2-.5.3-.9,0-.4,0-1.1,0-1.9,0-1.2,0-2.4,0-3.7,0-1.3,0-2.5.2-3.7.1-1.2.4-2.3.9-3.4.5-1,1.2-1.9,2.2-2.7.2-.1.3-.2.5-.3.2,0,.3-.1.5-.1.3,0,.5,0,.7.2.2.2.4.4.6.6.2.2.2.5.2.8s0,.4-.1.5c0,.1-.2.3-.3.4-.7.6-1.2,1.3-1.6,2-.3.8-.6,1.6-.7,2.4-.1.8-.2,1.7-.2,2.5,0,.8,0,1.6,0,2.3s0,1,0,1.5,0,.9,0,1.3c0,2-.3,3.4-.8,4.3s-1.4,1.4-2.5,1.4Z" fill="#eae3a1"/>
    <path d="M107.5,79.2c0,.6,0,1.2,0,1.9s0,1.6,0,2.6c0,1.7,0,3.1-.2,4.3s-.1,2.1-.2,2.9c0,.8-.2,1.4-.3,1.9-.1.5-.3.9-.5,1.3-.3.5-.7,1-1.2,1.3-.5.3-1,.5-1.6.5s-1-.2-1.4-.5c-.4-.3-.6-.7-.6-1.3s0-.4.2-.5.2-.2.4-.3c.2,0,.4-.1.5-.2.3,0,.5-.2.7-.3.2-.2.4-.4.5-.7.1-.3.3-.8.3-1.4,0-.6.1-1.5.2-2.6,0-1.1,0-2.6.1-4.5,0-1.3,0-2.4,0-3.3,0-.9,0-1.7,0-2.5,0-.5.1-1,.4-1.3.2-.3.6-.5,1.2-.5s.7.1,1,.3c.2.2.4.5.5.9,0,.2,0,.6,0,1,0,.4,0,.8,0,1.1Z" fill="#eae3a1"/>
    <path d="M117.2,80.1c-.8.5-1.5,1-2,1.6-.5.6-.9,1.2-1.1,1.8-.2.6-.3,1.2-.3,1.9s.2,1.3.5,1.7c.3.4.7.5,1.2.5s.7,0,1-.3c.3-.2.5-.4.7-.8.2-.4.3-.8.3-1.4s0-1.2-.3-1.7c-.2-.5-.4-1-.8-1.4-.3-.4-.7-.8-1.1-1.1-.4-.3-.9-.6-1.4-.8-.6-.3-1.2-.5-2-.6-.7-.2-1.4-.3-2.2-.4-.4,0-.7-.2-.9-.3-.2-.2-.3-.5-.3-.8s0-.6.2-.9c.1-.3.3-.6.5-.8.2-.2.5-.3.9-.3.6,0,1.3,0,2,.2s1.5.3,2.1.6c.8.3,1.6.7,2.3,1.2s1.4,1.1,2,1.9,1,1.5,1.4,2.4.5,1.8.5,2.9-.2,2.3-.7,3.2c-.5.9-1.1,1.5-1.8,2s-1.7.7-2.7.7-1.8-.2-2.4-.6c-.7-.4-1.2-1-1.6-1.8-.4-.8-.5-1.7-.5-2.8s.2-2.2.5-3.2c.4-1,.9-1.9,1.6-2.7s1.5-1.5,2.5-2c.9-.6,1.6-1,2.2-1.2.5-.2,1-.4,1.5-.6.2,0,.4-.1.6-.2s.5,0,.6,0c.3,0,.6,0,.8.1.3,0,.5.2.6.4.2.2.2.5.2.8s0,.6-.3.8-.4.3-.7.4c-.6.2-1.2.4-1.9.7-.6.3-1.3.6-2,1Z" fill="#eae3a1"/>
    <path d="M134.1,85.6c0,1.2-.3,2.3-.8,3.2-.5.9-1.3,1.6-2.2,2.2-1,.5-2,.8-3.3.8s-1.1,0-1.8-.2c-.7-.1-1.3-.3-2-.6-.7-.3-1.3-.6-1.8-1-.3-.2-.6-.5-.7-.7-.2-.3-.3-.5-.3-.8s0-.5.2-.8c.1-.3.3-.5.5-.7.2-.2.5-.3.7-.3s.4,0,.6.1c.2,0,.4.2.5.3.6.4,1.3.7,2,1,.7.2,1.4.3,2,.3s1.2-.1,1.6-.3c.5-.2.8-.6,1.1-1,.3-.4.4-.9.4-1.5s-.1-1-.4-1.4c-.3-.4-.7-.8-1.2-1.1s-1.3-.5-2.1-.7c-.3.2-.6.3-.9.4s-.6.1-.9.1c-.4,0-.8-.1-1.1-.3-.3-.2-.4-.6-.4-1s.2-.8.5-1.1c.3-.3.7-.5,1.2-.6,0-.5.1-.9.2-1.4,0-.5.1-.9.2-1.3,0-.4.2-.6.6-.9.3-.2.7-.3,1.2-.3s.7,0,.9.2c.2.2.3.4.3.8,0,.4,0,.8-.1,1.4,0,.6-.1,1-.2,1.5,1.1.2,2.1.6,2.9,1.1.8.5,1.5,1.1,2,1.9.5.8.7,1.7.7,2.7Z" fill="#eae3a1"/>
    <path d="M142.3,80.6c-1.2.8-2.1,1.5-2.7,2.3-.6.8-.9,1.6-.9,2.5s.2,1.2.5,1.5c.3.3.8.5,1.4.5s.9-.1,1.3-.4.7-.6.9-1c.2-.4.3-.9.3-1.5s-.1-1.1-.4-1.6c-.2-.5-.6-.9-1-1.2-.4-.4-.9-.7-1.4-1-.5-.3-1.1-.5-1.7-.8-.6-.2-1.2-.4-1.7-.6-.6-.1-1.2-.2-1.8-.3-.4,0-.7-.2-.8-.4s-.2-.5-.2-.9,0-.6.2-.9c.1-.3.3-.5.6-.7.3-.2.6-.3,1-.3s.8,0,1.2,0c.4,0,.8.1,1.2.2.4,0,.8.2,1.2.4,1,.4,1.9.8,2.7,1.3.8.5,1.6,1,2.2,1.7.6.6,1.1,1.4,1.4,2.2.3.8.5,1.8.5,2.8s-.2,2.4-.7,3.3-1.2,1.7-2,2.2-1.9.8-3,.8-1.7-.2-2.4-.6c-.7-.4-1.3-.9-1.7-1.7s-.6-1.6-.6-2.7.2-2.3.6-3.2c.4-.9,1-1.7,1.7-2.5.7-.7,1.6-1.4,2.6-2.1.9-.6,1.7-1,2.3-1.3.6-.3,1.1-.5,1.5-.7.3-.1.6-.2.9-.3.3,0,.6,0,.8,0,.5,0,.8.1,1.1.3.2.2.4.5.4.9s0,.6-.2.8c-.2.2-.4.3-.7.5-.4.2-.8.3-1.3.6-.5.2-1,.5-1.5.7s-1,.5-1.5.8Z" fill="#eae3a1"/>
    <path d="M159.6,84.9c0,.8,0,1.6-.1,2.4,0,.8-.2,1.5-.2,2,0,.4-.3.8-.6,1s-.6.3-1.1.3-.8,0-1.1-.2-.4-.4-.4-.7h0c0-.2,0-.2,0-.3,0-.5.2-1.1.2-1.8,0-.7,0-1.4,0-2.2,0-1.5-.2-2.6-.5-3.5-.3-.9-.9-1.5-1.6-1.9-.7-.4-1.6-.6-2.8-.6s-1.3,0-1.7.1c-.5,0-.8.1-1,.1-.3,0-.6,0-.8-.3s-.4-.4-.4-.7c0-.3-.1-.5-.1-.8s0-.6.2-.8c.2-.2.4-.4.7-.6.5-.2,1-.4,1.6-.5s1.2-.2,1.8-.2c1.6,0,3,.3,4.2.9,1.1.6,2,1.6,2.6,2.9.6,1.3.9,3,.9,5.2Z" fill="#eae3a1"/>
    <path d="M174.2,83c0,1.5-.3,2.8-.9,3.9-.6,1.1-1.4,2-2.5,2.7-1.1.6-2.3,1-3.6,1s-1.9-.2-2.7-.5c-.8-.4-1.4-.9-1.9-1.6-.5-.7-.7-1.5-.7-2.4s.1-1.3.4-1.8c.3-.5.7-.9,1.1-1.2.5-.3,1-.4,1.6-.4s1.1.1,1.6.4c.5.2.8.6,1.1,1,.3.4.4.8.4,1.3s-.1.5-.3.7c-.2.2-.4.3-.7.3s-.5-.2-.6-.5c0-.2-.2-.4-.4-.5-.2-.1-.4-.2-.6-.2s-.4,0-.5.2c-.1.2-.2.4-.2.7,0,.6.2,1,.7,1.4.5.3,1.1.5,1.8.5s1.5-.2,2.1-.5c.6-.4,1.1-.9,1.4-1.5.3-.7.5-1.4.5-2.3s-.2-1.9-.7-2.5c-.5-.6-1.1-1.1-1.8-1.3-.7-.3-1.6-.4-2.4-.4s-.9,0-1.3,0c-.4,0-.9.2-1.4.3-.2,0-.4.1-.5.1-.1,0-.3,0-.4,0-.4,0-.7-.1-1-.4s-.4-.7-.4-1.3,0-.7.2-.9c.1-.3.4-.5.9-.6.6-.2,1.2-.4,1.9-.5s1.3-.1,1.9-.1c1.1,0,2.2.1,3.1.4,1,.3,1.8.7,2.5,1.3.7.6,1.3,1.3,1.7,2.2.4.9.6,2,.6,3.3Z" fill="#eae3a1"/>
    <path d="M193.5,83.6c0,1.2-.2,2.1-.6,2.9s-.9,1.3-1.6,1.7c-.7.4-1.4.5-2.2.5s-1.2-.1-1.7-.3c-.5-.2-1.1-.5-1.6-.8,0,1.4,0,2.8-.1,4.1,0,1.3-.2,2.6-.2,3.7,0,.5-.2.8-.5,1-.3.2-.6.3-1.2.3s-.8-.2-1-.5-.2-.7-.2-1.1c0-1,.2-2.1.2-3.2s.1-2.2.2-3.4c0-1.2,0-2.3,0-3.4,0-.4.2-.7.5-.9.3-.2.7-.3,1-.3s.2,0,.4,0c.1,0,.2,0,.3.2.7.4,1.2.7,1.7,1,.5.2,1,.3,1.5.3s.7,0,1-.2c.3-.1.5-.4.7-.7.2-.3.2-.7.2-1.2,0-.7-.2-1.4-.6-1.9-.4-.5-.9-.9-1.5-1.2-.6-.3-1.3-.4-2.1-.4s-1,0-1.4.2c-.4.1-.9.3-1.3.5-.3.1-.6.2-.9.2s-.6-.1-.8-.4c-.2-.2-.4-.5-.5-.8-.1-.3-.2-.6-.2-.8,0-.3.1-.6.3-.9s.5-.4.8-.6c.7-.3,1.3-.6,2-.7.6-.2,1.3-.2,2.1-.2,1.3,0,2.5.3,3.5.9,1.1.6,1.9,1.4,2.5,2.5.6,1.1.9,2.5.9,4Z" fill="#eae3a1"/>
    <path d="M195.9,82.8c0-.5,0-1.1,0-1.8s0-1.3,0-2c0-.7,0-1.3,0-1.8,0-.4,0-.7.2-.9.1-.2.3-.3.6-.4s.5,0,.8,0c.5,0,.8.1,1,.4s.3.6.3,1c0,.6,0,1.2,0,1.9v2c0,.7,0,1.2,0,1.7,0,.5-.1.9-.4,1.1-.2.2-.6.4-1.1.4s-.9-.1-1.2-.4c-.3-.2-.4-.6-.4-1.2Z" fill="#eae3a1"/>
    <path d="M212.5,80.6c0,1.3-.3,2.3-1,3.1-.7.8-1.5,1.4-2.6,1.7.3.3.5.6.6,1,.2.4.2.8.2,1.3s0,.7-.2,1.1c-.1.4-.3.8-.6,1.1-.2.2-.4.4-.6.5s-.5.2-.9.2-.4,0-.6,0c-.2,0-.4-.1-.5-.2-.1-.1-.2-.3-.2-.5s0-.1,0-.2,0-.1,0-.2c.1-.3.2-.7.4-1.1.1-.4.2-.8.2-1.2s0-.5-.2-.7c-.1-.2-.2-.4-.4-.5h-.4c-.6,0-1.1-.1-1.5-.4s-.7-.6-.7-1,0-.5.3-.8c.2-.2.5-.3.9-.3s.6,0,1,.2c.4.1.8.3,1.2.5.4-.1.8-.3,1.1-.5s.6-.5.8-.8c.2-.3.3-.7.3-1.2s0-.7-.3-1c-.2-.3-.4-.5-.7-.6-.3-.2-.6-.3-.9-.3-.3,0-.6-.1-1-.1-.6,0-1.2.1-1.9.3-.6.2-1.2.5-1.7.8-.2.1-.3.2-.5.2-.2,0-.3,0-.5,0-.3,0-.5,0-.8-.3-.2-.2-.4-.4-.5-.7-.1-.3-.2-.6-.2-.9s0-.6.3-.9c.2-.2.4-.5.8-.7.6-.4,1.4-.7,2.2-1,.9-.3,1.8-.4,2.9-.4s1.4,0,2.1.2c.7.2,1.4.4,1.9.7.6.3,1.1.8,1.4,1.4.4.6.5,1.3.5,2.2Z" fill="#eae3a1"/>
    <path d="M222.6,90.6c-.6,0-1.1-.1-1.6-.3-.5-.2-.9-.5-1.3-1-.2-.2-.3-.4-.5-.6-.1-.2-.2-.5-.2-.7s0-.6.3-.8c.2-.3.4-.4.7-.4s.6.1,1,.3c.1,0,.3,0,.4.1.2,0,.3,0,.5,0,.4,0,.6-.2.8-.6s.2-1,.2-1.8,0-.9,0-1.6-.1-1.4-.2-2.1c0-.8-.1-1.5-.2-2.2,0-.7,0-1.3,0-1.7,0-1.6.2-2.9.5-3.9s.8-1.7,1.4-2.2c.6-.5,1.2-.8,1.9-.9.1,0,.2,0,.3,0,0,0,.2,0,.3,0,.3,0,.5,0,.7.3.2.2.3.4.4.6s.1.5.1.6c0,.4-.1.7-.3.9-.2.2-.5.3-.7.4-.4.1-.7.3-1,.6s-.5.7-.7,1.3c-.2.6-.2,1.4-.2,2.4s0,1,0,1.7c0,.7.1,1.4.2,2.2s.1,1.5.2,2.2c0,.7,0,1.3,0,1.8,0,1,0,1.9-.3,2.7-.2.8-.5,1.4-1,1.8-.5.4-1.1.7-1.9.7Z" fill="#eae3a1"/>
    <path d="M228.7,82.8c0-.5,0-1.1,0-1.8s0-1.3,0-2c0-.7,0-1.3,0-1.8,0-.4,0-.7.2-.9.1-.2.3-.3.6-.4s.5,0,.8,0c.5,0,.8.1,1,.4s.3.6.3,1c0,.6,0,1.2,0,1.9v2c0,.7,0,1.2,0,1.7,0,.5-.1.9-.4,1.1-.2.2-.6.4-1.1.4s-.9-.1-1.2-.4c-.3-.2-.4-.6-.4-1.2Z" fill="#eae3a1"/>
    <path d="M237.7,81.5c0,1,0,2.1,0,3.3s-.1,2.3-.2,3.5c0,.8-.2,1.4-.6,1.8-.3.4-.7.6-1.2.6s-.8-.1-.9-.4c-.2-.3-.3-.7-.2-1.2,0-.9,0-1.8.1-2.6,0-.8,0-1.7,0-2.5,0-.8,0-1.6,0-2.4v-4c0-.5.1-.8.3-1.1.2-.3.5-.4,1-.4s.9.1,1.1.3c.2.2.4.6.4,1.2,0,.3,0,.7,0,1.2,0,.5,0,.9,0,1.4,0,.5,0,1,0,1.4Z" fill="#eae3a1"/>
    <path d="M243.3,89.2c0,.4-.1.7-.3.9-.2.2-.5.3-1,.3s-1-.1-1.1-.3c-.2-.2-.3-.6-.3-1,0-.7,0-1.5,0-2.4,0-.8,0-1.7,0-2.5s0-1.7,0-2.6c0-.8,0-1.6,0-2.4,0-.8,0-1.4,0-2.1,0-.5.1-.8.3-1,.2-.2.6-.3,1.2-.3s.9.1,1.1.3c.2.2.3.6.3,1.1,0,.6,0,1.2,0,2v2.5c0,.9,0,1.8,0,2.7,0,.9,0,1.7,0,2.6,0,.8,0,1.5,0,2.2Z" fill="#eae3a1"/>
    <path d="M256.9,79.3c-.6,0-1.1,0-1.6.3-.4.2-.8.4-1.2.8-.2.2-.5.4-.7.5-.2.1-.5.2-.7.2-.2,0-.5,0-.7-.2-.2-.2-.4-.4-.6-.6-.2-.2-.2-.5-.2-.7s0-.5,0-.7c0-.2.2-.5.4-.7.7-.6,1.4-1.1,2.2-1.5.8-.4,1.8-.6,3-.6s1.6.1,2.4.4c.8.2,1.5.6,2.2,1,.7.5,1.2,1,1.6,1.7.4.7.6,1.5.6,2.4,0,1.4-.4,2.5-1.2,3.3-.8.7-2,1.2-3.5,1.4-.4,0-.7.2-.9.4s-.3.6-.3,1.1c0,1,0,2.1-.1,3.1s-.2,2-.3,2.8c-.1.8-.2,1.5-.4,2-.1.4-.3.8-.5,1-.2.2-.5.3-.8.3s-.5,0-.8-.1-.5-.3-.7-.5-.3-.6-.3-1,0-.2,0-.3c0-.1,0-.2,0-.4.2-.9.3-2,.4-3.3,0-1.3.1-2.7.2-4.2,0-.7,0-1.3.2-1.7.1-.4.3-.7.7-.9.3-.2.8-.3,1.3-.3,1.1,0,2-.3,2.7-.6.6-.3,1-.9,1-1.6s-.2-1-.5-1.3c-.3-.4-.8-.6-1.3-.8-.5-.2-1-.3-1.6-.3Z" fill="#eae3a1"/>
    <path d="M265.7,77.5c0-.6.1-.9.5-1.2.3-.2.7-.3,1.2-.3s.9.1,1,.4c.2.3.3.6.3,1.1,0,.8,0,1.7,0,2.7s0,1.9-.1,2.8c0,.9-.5,1.3-1.4,1.3s-.5,0-.8-.1c-.2,0-.4-.2-.6-.4-.1-.2-.2-.5-.2-.9,0-.9,0-1.8,0-2.7s0-1.8,0-2.7Z" fill="#eae3a1"/>
    <path d="M274.2,83.9c0,.2,0,.5,0,.9,0,.4,0,.9,0,1.4,0,.5,0,1.1,0,1.6,0,.5,0,1,0,1.3,0,.6-.2,1-.5,1.2-.2.2-.5.3-.8.3-.6,0-1-.2-1.2-.6s-.3-1.1-.3-2.1v-1c0-.9,0-1.8,0-2.9,0-1.1,0-2.2,0-3.4,0-1.2,0-2.3.1-3.5,0-.8.2-1.4.4-1.7.2-.3.6-.4,1-.4s.7,0,.9.2c.2.2.4.4.5.7,0,.3.1.7.1,1.1s0,.6,0,1c0,.4,0,.8,0,1.3s0,.9,0,1.5,0,1,0,1.5c0,.5,0,1,0,1.5ZM275.5,83.9c0-1.1.1-2.1.3-3.1s.5-1.8,1-2.5c.5-.7,1-1.3,1.8-1.7.7-.4,1.6-.6,2.7-.6s1,0,1.4.2.8.3,1.1.5c.2.2.4.4.5.6.1.2.2.5.2.8s0,.5-.2.8c-.1.3-.3.6-.5.8-.2.2-.4.3-.7.3s-.2,0-.3,0c-.3-.1-.6-.2-.9-.3-.3,0-.6-.1-.9-.1-.5,0-1,.1-1.3.4s-.6.6-.8,1-.4.9-.4,1.4c0,.5-.1,1.1-.1,1.6s0,1.2.2,1.7c.1.5.3.9.6,1.2.3.3.6.4,1,.4s.8-.1,1.2-.4.7-.6,1.1-1c.2-.2.3-.3.5-.4.2-.1.4-.2.6-.2s.6.1.7.3.4.5.5.8c.1.3.2.6.2.9s0,.4-.1.6c0,.2-.2.4-.3.5-.6.8-1.3,1.4-2,1.7s-1.5.6-2.3.6-1.7-.2-2.4-.7-1.2-1.2-1.6-2.2c-.4-1-.6-2.2-.6-3.6Z" fill="#eae3a1"/>
  </g>
  <g id="address*">
    <text transform="translate(51.6 328.7)" fill="#7f0700" font-family="Heebo" font-weight="900" font-size="11.4"><tspan x="0" y="0">5015 15th Ave</tspan></text>
  </g>
  <g id="hall*">
    <text transform="translate(37.5 313.1)" fill="#7f0700" font-family="Heebo" font-weight="900" font-size="15.4"><tspan x="0" y="0">באולם פרדס נח</tspan></text>
  </g>
</svg>