<?xml version="1.0" encoding="UTF-8"?>
<svg id="Layer_1" data-name="Layer 1" xmlns="http://www.w3.org/2000/svg" viewBox="0 0 360 504">
  <text transform="translate(180 360.4)" fill="#133725" font-family="Heebo" font-weight="600" font-size="18" text-anchor="middle"><tspan x="0" y="0">החתן</tspan></text>
  <text transform="translate(180 387.6)" fill="#46674c" font-family="Playpen Sans Hebrew" font-weight="800" font-size="21.9" text-anchor="middle"><tspan x="0" y="0">דוד ברוך</tspan></text>
  <text transform="translate(180 410.9)" fill="#46674c" font-family="Playpen Sans Hebrew" font-weight="800" font-size="21.9" text-anchor="middle"><tspan x="0" y="0">ווייסמאן</tspan></text>
  <text transform="translate(180 260.2)" fill="#133725" font-family="Heebo" font-weight="900" font-size="14.9" text-anchor="middle"><tspan x="0" y="0">פרשת וירא</tspan></text>
  <text transform="translate(180 244)" fill="#133725" font-family="Heebo" font-weight="900" font-size="14.9" text-anchor="middle"><tspan x="0" y="0">דינסטאג</tspan></text>
  <text transform="translate(180 291)" fill="#133725" font-family="Heebo" font-weight="600" font-size="10" text-anchor="middle"><tspan x="0" y="0">אין די זאלן פון</tspan></text>
  <text transform="translate(180 227.4)" fill="#133725" font-family="Heebo" font-weight="600" font-size="10" text-anchor="middle"><tspan x="0" y="0">וואס וועט אי״ה פארקומען</tspan></text>
  <text transform="translate(180 127.3)" fill="#133725" font-family="Heebo" font-weight="600" font-size="13" text-anchor="middle"><tspan x="0" y="0">אנליידינען צו מיין</tspan></text>
  <g>
    <path d="M124.7,117.3v-8.9h-3.5v-1.3h5.1v10.2h-1.6Z" fill="#133725"/>
    <path d="M128.6,111.4v-3h-1.3v-1.3h2.9v4.3h-1.6Z" fill="#133725"/>
    <path d="M131.2,108.4v-3.5h1.6v2.2h3.8v1.3h-5.4ZM137.2,108.2l-2.6,6.5h-1.7l3.1-7.6h1.2v1Z" fill="#133725"/>
    <path d="M138.9,114.8c-.2,0-.5,0-.7,0-.2,0-.4,0-.7-.1v-1.3c.3,0,.6,0,.9,0s.5,0,.7-.3c.2-.2.2-.4.2-.8v-4h-1.4v-1.3h3v5.4c0,.7-.2,1.3-.6,1.7-.4.4-.9.6-1.6.6Z" fill="#133725"/>
    <path d="M144.9,114.9c-.4,0-.9,0-1.3-.1-.5,0-1-.2-1.5-.4l.4-1.2c.4.2.8.3,1.2.4.4,0,.7.1,1,.1.7,0,1.2-.2,1.6-.5.4-.3.6-.8.6-1.5v-4.5h1.6v4.4c0,.7-.1,1.3-.4,1.8-.3.5-.7.9-1.2,1.1-.5.3-1.1.4-1.9.4ZM142.4,107.1h1.6l1.2,5.4c0,.3.1.5.2.7s.2.4.4.6h-1.2c-.2-.2-.4-.3-.6-.6-.2-.2-.3-.5-.4-.8l-1.2-5.3Z" fill="#133725"/>
    <path d="M150.9,114.7l-.9-6.2h-.5v-1.3h4v1.3h-1.9l1,6.3h-1.7Z" fill="#133725"/>
    <path d="M156.7,114.9c-.4,0-.9,0-1.3-.1-.5,0-1-.2-1.5-.4l.4-1.2c.4.2.8.3,1.2.4.4,0,.7.1,1,.1.7,0,1.2-.2,1.6-.5.4-.3.6-.8.6-1.5v-4.5h1.6v4.4c0,.7-.1,1.3-.4,1.8-.3.5-.7.9-1.2,1.1-.5.3-1.1.4-1.9.4ZM154.2,107.1h1.6l1.2,5.4c0,.3.1.5.2.7s.2.4.4.6h-1.2c-.2-.2-.4-.3-.6-.6-.2-.2-.3-.5-.4-.8l-1.2-5.3Z" fill="#133725"/>
    <path d="M164.8,114.7v-5.1c0-.4-.1-.7-.3-.9s-.5-.3-.9-.3h-2.4v-1.3h2.5c.9,0,1.5.2,2,.7.5.4.7,1.1.7,1.9v5h-1.6Z" fill="#133725"/>
    <path d="M170.6,114.8c-.4,0-.8,0-1.3-.1s-.9-.2-1.3-.3l.3-1.2c.4.1.8.2,1.2.3.4,0,.7,0,1,0,.6,0,1.1-.2,1.5-.5s.5-.7.5-1.3v-3.3h-2.6c-.1.2-.2.5-.3.8s0,.6,0,.9v.5c0,0,.2,0,.3,0,.1,0,.3,0,.5,0v1.2c-.3,0-.6,0-.9,0-.3,0-.5,0-.8-.1s-.5-.2-.7-.3v-.8c0-.4,0-.8.1-1.2,0-.4.2-.7.4-1h-.8v-1.3h6.5v4.3c0,.8-.2,1.4-.5,1.9-.3.5-.7.9-1.3,1.1-.5.2-1.1.4-1.8.3Z" fill="#133725"/>
    <path d="M181.5,117.3v-8.9h-3.5v-1.3h5.1v10.2h-1.6Z" fill="#133725"/>
    <path d="M185.3,111.4v-3h-1.3v-1.3h2.9v4.3h-1.6Z" fill="#133725"/>
    <path d="M187.8,107.1h6.3v1.3h-1.3v6.3h-1.6v-6.3h-3.4v-1.3Z" fill="#133725"/>
    <path d="M197.3,108.4v-3.5h1.6v2.2h3.8v1.3h-5.4ZM203.3,108.2l-2.6,6.5h-1.7l3.1-7.6h1.2v1Z" fill="#133725"/>
    <path d="M204.9,111.4v-3h-1.3v-1.3h2.9v4.3h-1.6Z" fill="#133725"/>
    <path d="M208.4,114.7v-6.3h-.8v-1.3h2.4v7.6h-1.6Z" fill="#133725"/>
    <path d="M211.9,114.7v-6.3h-.8v-1.3h2.4v7.6h-1.6Z" fill="#133725"/>
    <path d="M220.9,117.3v-8.9h-3.5v-1.3h5.1v10.2h-1.6Z" fill="#133725"/>
    <path d="M224.7,111.4v-3h-1.3v-1.3h2.9v4.3h-1.6Z" fill="#133725"/>
    <path d="M233,114.7l-5.3-7.6h1.8l5.3,7.6h-1.8ZM228,114.7v-2.6c0-.7.1-1.3.4-1.8s.7-.8,1.3-1l.6.8c-.5.2-.7.7-.7,1.2v3.3h-1.6ZM234.9,107.1l-2.5,4.7-1.1-1.3,1.8-3.4h1.8Z" fill="#133725"/>
  </g>
  <g id="address*">
    <text transform="translate(180 325.3)" fill="#133725" font-family="Heebo" font-weight="900" font-size="11" text-anchor="middle"><tspan x="0" y="0">5015 15th Ave</tspan></text>
  </g>
  <g id="hall*">
    <text transform="translate(180 310.2)" fill="#133725" font-family="Heebo" font-weight="900" font-size="14.9" text-anchor="middle"><tspan x="0" y="0">באולם פרדס נח</tspan></text>
  </g>
</svg>