<?xml version="1.0" encoding="UTF-8"?>
<svg id="Layer_1" data-name="Layer 1" xmlns="http://www.w3.org/2000/svg" viewBox="0 0 215 288">
  <text transform="translate(176.3 183.7) rotate(.6)" fill="#852d0c" font-family="Heebo" font-weight="600" font-size="11.2"><tspan x="0" y="0">החתן</tspan></text>
  <text transform="translate(165.4 200.7) rotate(.6)" fill="#d7731f" font-family="Playpen Sans Hebrew" font-weight="800" font-size="9.6"><tspan x="0" y="0">דוד ברוך</tspan></text>
  <text transform="translate(168.4 212.8) rotate(.6)" fill="#d7731f" font-family="Playpen Sans Hebrew" font-weight="800" font-size="9.6"><tspan x="0" y="0">ווייסמאן</tspan></text>
  <text transform="translate(157.8 121.7)" fill="#852d0c" font-family="Heebo" font-weight="900" font-size="9.3"><tspan x="1.6" y="0">פרשת וירא</tspan></text>
  <text transform="translate(168.5 111.6)" fill="#852d0c" font-family="Heebo" font-weight="900" font-size="9.3"><tspan x="0" y="0">דינסטאג</tspan></text>
  <text transform="translate(166.3 140.8)" fill="#852d0c" font-family="Heebo" font-weight="600" font-size="6.2"><tspan x="0" y="0">אין די זאלן פון</tspan></text>
  <text transform="translate(139.7 101.3)" fill="#852d0c" font-family="Heebo" font-weight="600" font-size="6.2"><tspan x="0" y="0">וואס וועט אי״ה פארקומען</tspan></text>
  <text transform="translate(145.3 39.1)" fill="#852d0c" font-family="Heebo" font-weight="600" font-size="8.1"><tspan x="0" y="0">אנליידינען צו מיין</tspan></text>
  <g>
    <path d="M131.1,32.9v-5.5h-2.2v-.8h3.2v6.3h-1Z" fill="#852d0c"/>
    <path d="M133.5,29.2v-1.9h-.8v-.8h1.8v2.6h-1Z" fill="#852d0c"/>
    <path d="M135.1,27.4v-2.2h1v1.4h2.3v.8h-3.4ZM138.8,27.2l-1.6,4h-1.1l1.9-4.7h.8v.6Z" fill="#852d0c"/>
    <path d="M139.9,31.4c-.1,0-.3,0-.4,0s-.3,0-.4,0v-.8c.2,0,.4,0,.6,0s.3,0,.4-.2c0-.1.1-.3.1-.5v-2.5h-.9v-.8h1.9v3.3c0,.5-.1.8-.4,1.1-.2.2-.6.4-1,.4Z" fill="#852d0c"/>
    <path d="M143.6,31.4c-.3,0-.5,0-.8,0-.3,0-.6-.1-.9-.3l.2-.7c.3.1.5.2.8.2s.5,0,.6,0c.4,0,.7-.1,1-.3.2-.2.4-.5.4-.9v-2.8h1v2.7c0,.4,0,.8-.3,1.1-.2.3-.4.5-.8.7-.3.2-.7.2-1.1.2ZM142.1,26.6h1l.7,3.4c0,.2,0,.3.1.5s.1.2.2.3h-.8c-.1,0-.2-.2-.4-.4-.1-.1-.2-.3-.2-.5l-.7-3.3Z" fill="#852d0c"/>
    <path d="M147.4,31.3l-.6-3.9h-.3v-.8h2.5v.8h-1.2l.6,3.9h-1Z" fill="#852d0c"/>
    <path d="M151,31.4c-.3,0-.5,0-.8,0-.3,0-.6-.1-.9-.3l.2-.7c.3.1.5.2.8.2s.5,0,.6,0c.4,0,.7-.1,1-.3.2-.2.4-.5.4-.9v-2.8h1v2.7c0,.4,0,.8-.3,1.1-.2.3-.4.5-.8.7-.3.2-.7.2-1.1.2ZM149.4,26.6h1l.7,3.4c0,.2,0,.3.1.5s.1.2.2.3h-.8c-.1,0-.2-.2-.4-.4-.1-.1-.2-.3-.2-.5l-.7-3.3Z" fill="#852d0c"/>
    <path d="M156,31.3v-3.2c0-.2,0-.4-.2-.5-.1-.1-.3-.2-.6-.2h-1.5v-.8h1.5c.5,0,1,.1,1.3.4.3.3.5.7.5,1.2v3.1h-1Z" fill="#852d0c"/>
    <path d="M159.6,31.4c-.2,0-.5,0-.8,0-.3,0-.6-.1-.8-.2l.2-.7c.3,0,.5.1.8.2.2,0,.5,0,.6,0,.4,0,.7,0,.9-.3s.3-.5.3-.8v-2.1h-1.6c0,.1-.1.3-.2.5,0,.2,0,.4,0,.5v.3c0,0,.1,0,.2,0,0,0,.2,0,.3,0v.7c-.2,0-.4,0-.6,0-.2,0-.3,0-.5,0-.2,0-.3-.1-.4-.2v-.5c0-.3,0-.5,0-.7,0-.2.1-.4.2-.6h-.5v-.8h4v2.7c0,.5,0,.9-.3,1.2s-.5.5-.8.7c-.3.1-.7.2-1.1.2Z" fill="#852d0c"/>
    <path d="M166.3,32.9v-5.5h-2.2v-.8h3.2v6.3h-1Z" fill="#852d0c"/>
    <path d="M168.7,29.2v-1.9h-.8v-.8h1.8v2.6h-1Z" fill="#852d0c"/>
    <path d="M170.3,26.6h3.9v.8h-.8v3.9h-1v-3.9h-2.1v-.8Z" fill="#852d0c"/>
    <path d="M176.2,27.4v-2.2h1v1.4h2.3v.8h-3.4ZM179.9,27.2l-1.6,4h-1.1l1.9-4.7h.8v.6Z" fill="#852d0c"/>
    <path d="M180.9,29.2v-1.9h-.8v-.8h1.8v2.6h-1Z" fill="#852d0c"/>
    <path d="M183,31.3v-3.9h-.5v-.8h1.5v4.7h-1Z" fill="#852d0c"/>
    <path d="M185.3,31.3v-3.9h-.5v-.8h1.5v4.7h-1Z" fill="#852d0c"/>
    <path d="M190.8,32.9v-5.5h-2.2v-.8h3.2v6.3h-1Z" fill="#852d0c"/>
    <path d="M193.2,29.2v-1.9h-.8v-.8h1.8v2.6h-1Z" fill="#852d0c"/>
    <path d="M198.4,31.3l-3.3-4.7h1.1l3.3,4.7h-1.1ZM195.2,31.3v-1.6c0-.5,0-.8.2-1.1s.4-.5.8-.6l.4.5c-.3.2-.4.4-.4.8v2h-1ZM199.5,26.6l-1.6,2.9-.7-.8,1.1-2.1h1.1Z" fill="#852d0c"/>
  </g>
  <g id="address*">
    <text transform="translate(159.9 162.1)" fill="#852d0c" font-family="Heebo" font-weight="900" font-size="6.8"><tspan x="0" y="0">5015 15th Ave</tspan></text>
  </g>
  <g id="hall*">
    <text transform="translate(143.1 152.7)" fill="#852d0c" font-family="Heebo" font-weight="900" font-size="9.3"><tspan x="0" y="0">באולם פרדס נח</tspan></text>
  </g>
</svg>