<?xml version="1.0" encoding="UTF-8"?>
<svg id="Layer_1" data-name="Layer 1" xmlns="http://www.w3.org/2000/svg" viewBox="0 0 360 504">
  <text transform="translate(173.5 370.7) rotate(.6)" fill="#ebad28" font-family="Playpen Sans Hebrew" font-weight="500" font-size="19.4"><tspan x="0" y="0">החתן</tspan></text>
  <text transform="translate(100.4 415.1) rotate(.6)" fill="#713d8e" font-family="Playpen Sans Hebrew" font-weight="800" font-size="48.4"><tspan x="0" y="0">דוד ברוך</tspan></text>
  <text transform="translate(113.7 462) rotate(.6)" fill="#713d8e" font-family="Playpen Sans Hebrew" font-weight="800" font-size="48.4"><tspan x="0" y="0">ווייסמאן</tspan></text>
  <text transform="translate(218.5 332.6)" fill="#542077" font-family="Playpen Sans Hebrew" font-weight="800" font-size="14.9"><tspan x="3.7" y="0">פרשת וירא</tspan></text>
  <text transform="translate(231.3 315.3)" fill="#542077" font-family="Playpen Sans Hebrew" font-weight="800" font-size="14.9"><tspan x="0" y="0">דינסטאג</tspan></text>
  <text transform="translate(77.7 298.9)" fill="#ebad28" font-family="Playpen Sans Hebrew" font-weight="800" font-size="10"><tspan x="0" y="0">אין די זאלן פון</tspan></text>
  <text transform="translate(197.1 298.9)" fill="#ebad28" font-family="Playpen Sans Hebrew" font-weight="800" font-size="10"><tspan x="0" y="0">וואס וועט אי״ה פארקומען</tspan></text>
  <text transform="translate(191.4 214)" fill="#542077" font-family="Playpen Sans Hebrew" font-weight="800" font-size="13"><tspan x="0" y="0">אנליידינען צו מיין</tspan></text>
  <g>
    <path d="M177.7,195.9c-.3,0-.5,0-.7.1-.2,0-.3.2-.5.3-.2.1-.3.2-.5.3-.2,0-.3.1-.5.1s-.3,0-.5-.2c-.2-.1-.3-.3-.4-.5-.1-.2-.2-.4-.2-.5s0-.3,0-.5.1-.3.3-.5c.4-.4.8-.7,1.3-.9.5-.2,1-.3,1.7-.3s.9,0,1.4.2c.5.1.9.3,1.3.6.4.3.7.6.9,1,.2.4.4.9.4,1.4,0,.8-.2,1.5-.7,1.9-.4.4-1.1.7-1.9.8-.2,0-.4,0-.5.2-.1.1-.2.3-.2.6,0,.5,0,1,0,1.5,0,.5,0,1-.2,1.4,0,.4-.1.8-.2,1,0,.3-.2.5-.4.6-.2.1-.3.2-.6.2s-.4,0-.6,0-.4-.2-.5-.4c-.1-.2-.2-.4-.2-.7s0-.1,0-.2,0-.1,0-.2c.1-.5.2-1.1.2-1.7,0-.6,0-1.3,0-1.9,0-.4,0-.8.1-1,0-.3.2-.4.4-.6.2-.1.5-.2.8-.2.5,0,1-.1,1.3-.3.3-.2.5-.4.5-.8s0-.4-.2-.6c-.2-.2-.4-.3-.6-.3-.2,0-.5-.1-.7-.1Z" fill="#542077"/>
    <path d="M182.4,194.5c0-.4.1-.6.3-.8s.5-.2.9-.2.6,0,.8.3c.1.2.2.4.2.7,0,.5,0,1,0,1.5,0,.5,0,1.1,0,1.6,0,.6-.4.9-1,.9s-.4,0-.6,0c-.2,0-.3-.1-.4-.3-.1-.1-.2-.4-.2-.6,0-.5,0-1,0-1.5,0-.5,0-1,0-1.5Z" fill="#542077"/>
    <path d="M187,201.6c-.5,0-.9-.1-1.3-.4s-.8-.7-1.1-1.4c0-.1-.1-.3-.2-.4,0-.1,0-.2,0-.3,0-.2,0-.3.2-.4.1-.1.2-.2.4-.3.1,0,.3-.1.4-.1s.2,0,.4.1.3.2.4.4c.1.2.2.3.3.4s.2.1.3.1.2,0,.2-.1.1-.2.1-.4,0-.4,0-.7c0-.7,0-1.3,0-2s0-1.4,0-2,.2-1.3.5-1.8c.2-.6.6-1,1.1-1.4,0,0,.2-.2.3-.2s.3-.1.4-.1.3,0,.5.2c.2.1.3.3.4.4.1.2.2.4.2.6s0,.3,0,.4-.1.2-.2.3c-.3.3-.5.7-.7,1s-.3.8-.3,1.2c0,.4,0,.8,0,1.2,0,.4,0,.8,0,1.1v1.5c0,1.2-.2,2-.5,2.5-.4.5-.9.8-1.6.8Z" fill="#542077"/>
    <path d="M193.1,195.5c0,.3,0,.7,0,1.1s0,.9,0,1.4c0,.9,0,1.7,0,2.4s0,1.2-.1,1.6-.1.8-.2,1-.2.5-.4.7c-.2.3-.5.5-.8.7-.3.2-.6.2-1,.2s-.7-.1-1-.3c-.3-.2-.4-.5-.4-.9s0-.3.1-.3.2-.1.3-.2c.1,0,.2-.1.4-.2.1,0,.2-.1.3-.2,0,0,.2-.2.3-.4,0-.1.1-.4.2-.6,0-.3,0-.7.1-1.3,0-.6,0-1.3,0-2.3,0-.7,0-1.4,0-1.9,0-.5,0-1,0-1.4,0-.4,0-.6.3-.8.2-.2.5-.3.9-.3s.5,0,.7.2.3.4.3.6c0,.1,0,.3,0,.6,0,.2,0,.4,0,.6Z" fill="#542077"/>
    <path d="M198.5,196.2c-.4.2-.7.5-.9.7-.2.3-.4.5-.5.8s-.1.5-.1.8,0,.5.2.6c.1.1.3.2.5.2s.3,0,.4,0,.2-.2.3-.3.1-.3.1-.5,0-.4,0-.6c0-.2-.2-.4-.3-.6s-.3-.3-.5-.5c-.2-.1-.4-.3-.6-.4-.3-.1-.7-.3-1.1-.4-.4,0-.8-.2-1.3-.2-.3,0-.5-.1-.7-.2-.1-.1-.2-.3-.2-.6s0-.4.1-.7c0-.2.2-.4.3-.6.2-.2.4-.2.6-.2s.8,0,1.2.1c.5,0,.9.2,1.2.3.5.2.9.4,1.3.7.4.3.8.6,1.1,1,.3.4.6.8.8,1.3s.3,1,.3,1.6-.1,1.3-.4,1.8c-.3.5-.6.9-1.1,1.1-.5.3-1,.4-1.6.4s-1.1-.1-1.5-.4c-.4-.3-.7-.6-.9-1.1-.2-.5-.3-1-.3-1.6s.1-1.3.3-1.8c.2-.5.5-1,.9-1.4s.8-.8,1.4-1.1c.5-.3.9-.5,1.2-.7.3-.1.6-.2.8-.3.1,0,.3,0,.4,0,.1,0,.3,0,.4,0,.2,0,.4,0,.6,0,.2,0,.3.2.5.3.1.1.2.3.2.6s0,.4-.2.5c-.1.1-.3.2-.5.3-.3.1-.7.3-1,.4-.3.2-.7.4-1.1.6Z" fill="#542077"/>
    <path d="M208.2,198.7c0,.7-.2,1.3-.5,1.9-.3.5-.8.9-1.3,1.2-.6.3-1.2.4-1.9.4s-.7,0-1-.1-.8-.2-1.1-.3c-.4-.1-.7-.3-1-.5-.2-.1-.4-.3-.5-.5-.1-.2-.2-.4-.2-.6s0-.3.1-.5.2-.4.4-.6c.2-.2.3-.2.5-.2s.3,0,.4,0,.3,0,.4.2c.3.2.7.3,1,.5.4.1.7.2,1.1.2s.5,0,.7-.2.3-.2.4-.4.2-.4.2-.6,0-.4-.1-.6c-.1-.2-.3-.4-.5-.5-.2-.2-.6-.3-1-.3-.2,0-.4.2-.6.2s-.4,0-.5,0c-.3,0-.5,0-.7-.2-.2-.2-.3-.4-.3-.7s.1-.5.3-.7c.2-.2.5-.3.7-.4,0-.2,0-.4,0-.6,0-.2,0-.4,0-.6,0-.2.2-.4.4-.6.2-.1.5-.2.9-.2s.5,0,.6.2c.1.1.2.3.2.6s0,.4,0,.6c0,.3,0,.5-.1.7.6.1,1.1.3,1.5.6s.8.6,1.1,1c.3.4.4.9.4,1.5Z" fill="#542077"/>
    <path d="M212.9,196.4c-.6.4-1.1.7-1.4,1.1-.3.3-.5.7-.5,1s0,.4.2.6.3.2.6.2.4,0,.5-.1c.2,0,.3-.2.4-.4,0-.2.1-.3.1-.5s0-.4-.2-.6-.3-.3-.5-.5c-.2-.2-.4-.3-.7-.4s-.6-.3-.9-.4c-.3-.1-.6-.2-.9-.3-.3,0-.7-.1-1-.2-.3,0-.5-.1-.6-.3-.1-.2-.2-.4-.2-.6s0-.4.1-.6c0-.2.2-.4.4-.5.2-.1.4-.2.7-.2s.4,0,.6,0c.2,0,.4,0,.6.1.2,0,.4.1.7.2.6.2,1.2.4,1.7.7.5.3.9.6,1.3.9.3.4.6.8.8,1.2.2.5.3,1,.3,1.5s-.1,1.3-.4,1.9-.7.9-1.2,1.2c-.5.3-1.1.4-1.8.4s-1-.1-1.5-.3c-.4-.2-.8-.5-1-.9-.2-.4-.4-.9-.4-1.5s.1-1.3.4-1.8c.2-.5.6-1,1-1.3.4-.4.9-.8,1.5-1.1.5-.3.9-.6,1.2-.7.3-.1.6-.3.8-.4.2,0,.4-.1.6-.2.2,0,.4,0,.5,0,.3,0,.6,0,.8.2s.3.4.3.7,0,.4-.2.6c-.1.1-.3.3-.5.4-.2,0-.5.2-.7.3-.3.1-.5.2-.8.4-.3.1-.5.3-.8.4Z" fill="#542077"/>
    <path d="M222.8,198.5c0,.4,0,.8,0,1.2,0,.4,0,.7-.1,1,0,.3-.2.5-.4.7-.2.2-.5.2-.8.2s-.6,0-.8-.1c-.2,0-.3-.3-.3-.5h0c0-.1,0-.1,0-.2,0-.2,0-.5,0-.9s0-.7,0-1.1c0-.7,0-1.3-.2-1.7-.2-.4-.4-.7-.7-.9s-.8-.3-1.3-.3-.6,0-.9,0c-.3,0-.5,0-.6,0-.3,0-.5,0-.6-.2s-.2-.3-.3-.5c0-.2,0-.4,0-.6s0-.4.1-.5c0-.2.3-.3.5-.4.3-.2.6-.3,1-.3.4,0,.7-.1,1.1-.1.9,0,1.7.2,2.4.5.6.3,1.1.9,1.5,1.6.3.7.5,1.7.5,2.9Z" fill="#542077"/>
    <path d="M230.9,197.4c0,.8-.2,1.5-.5,2.1-.3.6-.8,1.1-1.4,1.5-.6.4-1.3.5-2.1.5s-1.1-.1-1.6-.3-.8-.5-1.1-.9-.4-.9-.4-1.4,0-.8.3-1.1c.2-.3.4-.5.7-.7.3-.2.6-.3,1-.3s.6,0,.9.2c.3.1.5.3.7.5s.2.5.2.8,0,.4-.2.5c-.1.1-.3.2-.5.2s-.3,0-.4-.2c0,0,0-.1-.1-.1,0,0,0,0-.2,0s-.1,0-.1,0,0,0,0,.2c0,.2,0,.4.3.5s.4.2.8.2.7,0,.9-.2.5-.4.6-.7c.1-.3.2-.6.2-1s-.1-.9-.3-1.1c-.2-.3-.5-.5-.8-.6-.3-.1-.7-.2-1.1-.2s-.5,0-.7,0c-.2,0-.5,0-.7.2-.1,0-.2,0-.3,0,0,0-.2,0-.2,0-.3,0-.5-.1-.7-.3-.2-.2-.3-.5-.3-.9s0-.5.1-.6c0-.2.3-.3.6-.4.4-.1.7-.2,1.1-.3.4,0,.7,0,1.1,0,.6,0,1.2,0,1.8.2.6.1,1,.4,1.5.7s.7.7,1,1.2c.2.5.4,1.1.4,1.9Z" fill="#542077"/>
    <path d="M241.6,197.9c0,.7-.1,1.2-.3,1.6s-.5.8-.9,1c-.4.2-.8.3-1.3.3s-.6,0-.9-.1c-.3,0-.5-.2-.8-.3,0,.7,0,1.3,0,1.9,0,.6,0,1.2-.1,1.8,0,.3-.1.5-.3.7s-.5.2-.8.2-.6,0-.7-.3c-.1-.2-.2-.4-.1-.7,0-.5,0-1.1.1-1.7,0-.6,0-1.2.1-1.8s0-1.2,0-1.8c0-.2.1-.4.3-.5.2-.1.5-.2.7-.2s.2,0,.2,0c0,0,.2,0,.2,0,.3.2.6.3.9.4s.5.2.7.2.3,0,.4,0c.1,0,.2-.1.3-.3,0-.1,0-.3,0-.5,0-.3,0-.6-.3-.8-.2-.2-.4-.4-.7-.5-.3-.1-.6-.2-1-.2s-.4,0-.6,0c-.2,0-.4,0-.6.2-.2,0-.5.1-.7.1s-.4,0-.6-.3c-.2-.2-.3-.4-.3-.6,0-.2-.1-.4-.1-.6,0-.3,0-.5.2-.6s.3-.3.6-.4c.4-.2.7-.3,1.1-.4s.7-.1,1.2-.1c.7,0,1.4.2,2,.5s1.1.8,1.5,1.5c.4.6.5,1.4.5,2.4Z" fill="#542077"/>
    <path d="M242.6,197.5c0-.3,0-.6,0-1,0-.4,0-.7,0-1.1s0-.7,0-1c0-.3,0-.5.2-.6s.2-.2.4-.3.4,0,.6,0c.3,0,.6,0,.7.3.2.2.2.4.3.7,0,.3,0,.7,0,1.1,0,.4,0,.8,0,1.1s0,.7,0,1c0,.3,0,.6-.3.7-.2.2-.5.2-.8.2s-.7,0-.9-.2-.3-.4-.3-.8Z" fill="#542077"/>
    <path d="M252.5,196.2c0,.7-.2,1.3-.5,1.7-.3.4-.8.8-1.4,1,.1.2.2.3.3.5,0,.2,0,.4,0,.6s0,.4,0,.6-.2.4-.4.6c-.1.1-.3.2-.5.3s-.4.1-.6.1-.3,0-.4,0-.3,0-.4-.2c-.1,0-.2-.2-.2-.4s0,0,0-.1c0,0,0,0,0-.1,0-.2.1-.4.2-.6,0-.2.1-.5.1-.6s0-.1,0-.2c0,0,0-.1,0-.2h-.1c-.3,0-.6,0-.9-.3s-.4-.4-.4-.7,0-.3.2-.5c.1-.1.3-.2.6-.2s.4,0,.6,0c.2,0,.5.2.7.3.2,0,.3-.1.4-.2.1,0,.2-.2.3-.4,0-.1,0-.3,0-.5s0-.3-.1-.4c0-.1-.2-.2-.3-.3-.1,0-.2-.1-.4-.1-.1,0-.3,0-.4,0-.3,0-.6,0-.9.2s-.6.2-.9.4c-.1,0-.2.1-.4.2-.1,0-.2,0-.4,0-.2,0-.4,0-.6-.2s-.3-.3-.4-.5c0-.2-.1-.4-.1-.6s0-.4.2-.6c.1-.2.3-.3.5-.5.3-.2.8-.4,1.3-.6s1.1-.2,1.7-.2.8,0,1.2.1c.4,0,.8.2,1.1.4s.6.5.8.8c.2.3.3.8.3,1.3Z" fill="#542077"/>
    <path d="M258.2,201.7c-.4,0-.8,0-1.1-.2s-.6-.4-.9-.7c-.1-.1-.2-.3-.3-.4,0-.1-.1-.3-.1-.4s0-.4.2-.6c.1-.2.3-.3.5-.3s.4,0,.6.2c0,0,.1,0,.2,0,0,0,.2,0,.3,0,.2,0,.3,0,.4-.3,0-.2.1-.5.1-.8s0-.4,0-.7c0-.3,0-.7-.1-1.1,0-.4,0-.8-.1-1.1,0-.4,0-.6,0-.9,0-.9,0-1.7.3-2.2s.4-1,.8-1.2c.3-.3.7-.4,1.1-.5,0,0,.2,0,.2,0,0,0,.1,0,.2,0,.2,0,.4,0,.5.2.1.1.2.3.3.5s.1.3.1.5c0,.3,0,.5-.2.6-.2.1-.3.2-.5.3-.2,0-.3.2-.4.3s-.2.3-.2.6c0,.3,0,.7,0,1.2s0,.5,0,.9c0,.4,0,.7,0,1.2s0,.8,0,1.2c0,.4,0,.6,0,.9,0,.6,0,1.1-.2,1.5s-.3.8-.6,1.1c-.3.3-.7.4-1.2.4Z" fill="#542077"/>
    <path d="M261.6,197.5c0-.3,0-.6,0-1,0-.4,0-.7,0-1.1s0-.7,0-1c0-.3,0-.5.2-.6s.2-.2.4-.3.4,0,.6,0c.3,0,.6,0,.7.3.2.2.2.4.3.7,0,.3,0,.7,0,1.1s0,.8,0,1.1,0,.7,0,1c0,.3,0,.6-.3.7-.2.2-.5.2-.8.2s-.7,0-.9-.2-.3-.4-.3-.8Z" fill="#542077"/>
    <path d="M267.2,196.6c0,.5,0,1.1,0,1.7,0,.6,0,1.2-.1,1.8,0,.5-.2.9-.4,1.2-.2.3-.5.4-.9.4s-.5,0-.7-.3c-.1-.2-.2-.4-.2-.8,0-.5,0-1,0-1.4,0-.4,0-.9,0-1.3,0-.4,0-.9,0-1.3v-2.1c0-.3,0-.6.2-.7.1-.2.4-.2.7-.2s.6,0,.8.2.3.4.3.8c0,.2,0,.4,0,.6s0,.5,0,.7,0,.5,0,.7Z" fill="#542077"/>
    <path d="M270.4,200.7c0,.3,0,.5-.2.6-.1.1-.4.2-.8.2s-.7,0-.8-.2-.2-.4-.2-.7v-1.3c0-.4,0-.9,0-1.3,0-.4,0-.9,0-1.3,0-.4,0-.8,0-1.2,0-.4,0-.8,0-1.1,0-.3,0-.5.2-.6s.4-.2.8-.2.6,0,.8.2c.1.1.2.4.2.8,0,.3,0,.7,0,1.1v1.3c0,.5,0,.9,0,1.4,0,.5,0,.9,0,1.3,0,.4,0,.8,0,1.2Z" fill="#542077"/>
    <path d="M277.8,195.9c-.3,0-.5,0-.7.1-.2,0-.3.2-.5.3-.2.1-.3.2-.5.3-.2,0-.3.1-.5.1s-.3,0-.5-.2c-.2-.1-.3-.3-.4-.5-.1-.2-.2-.4-.2-.5s0-.3,0-.5c0-.1.1-.3.3-.5.4-.4.8-.7,1.3-.9.5-.2,1-.3,1.7-.3s.9,0,1.4.2.9.3,1.3.6c.4.3.7.6.9,1,.2.4.4.9.4,1.4,0,.8-.2,1.5-.7,1.9s-1.1.7-1.9.8c-.2,0-.4,0-.5.2-.1.1-.2.3-.2.6,0,.5,0,1,0,1.5,0,.5,0,1-.2,1.4,0,.4-.1.8-.2,1,0,.3-.2.5-.4.6-.2.1-.3.2-.6.2s-.4,0-.6,0c-.2,0-.4-.2-.5-.4-.1-.2-.2-.4-.2-.7s0-.1,0-.2c0,0,0-.1,0-.2.1-.5.2-1.1.2-1.7s0-1.3,0-1.9c0-.4,0-.8.1-1,0-.3.2-.4.4-.6s.5-.2.8-.2c.5,0,1-.1,1.3-.3.3-.2.5-.4.5-.8s0-.4-.2-.6c-.2-.2-.4-.3-.6-.3s-.5-.1-.7-.1Z" fill="#542077"/>
    <path d="M282.5,194.5c0-.4.1-.6.3-.8s.5-.2.9-.2.6,0,.8.3c.1.2.2.4.2.7,0,.5,0,1,0,1.5,0,.5,0,1.1,0,1.6,0,.6-.4.9-1,.9s-.4,0-.6,0c-.2,0-.3-.1-.4-.3-.1-.1-.2-.4-.2-.6,0-.5,0-1,0-1.5,0-.5,0-1,0-1.5Z" fill="#542077"/>
    <path d="M287.9,197.8c0,0,0,.2,0,.4,0,.2,0,.4,0,.7s0,.5,0,.8c0,.3,0,.6,0,.8,0,.4-.2.7-.3.9-.2.1-.4.2-.6.2-.4,0-.7-.1-.9-.4s-.3-.7-.3-1.4v-.5c0-.5,0-1,0-1.5s0-1.1,0-1.7c0-.6,0-1.2,0-1.8,0-.5.1-.8.3-1,.2-.2.4-.2.7-.2s.5,0,.7.1c.2,0,.3.2.4.4,0,.2.1.4.1.7v1.1c0,.2,0,.4,0,.7s0,.5,0,.8c0,.3,0,.6,0,1ZM288.3,197.9c0-.6,0-1.2.2-1.7.1-.5.3-1,.6-1.4s.6-.7,1-.9c.4-.2.9-.3,1.5-.3s.5,0,.7,0c.2,0,.4.1.6.2.2.1.3.2.4.4,0,.2.1.3.1.5s0,.4-.1.6c0,.2-.2.4-.3.6-.1.2-.3.2-.5.2s0,0-.2,0c-.1,0-.3,0-.4-.1-.1,0-.3,0-.4,0s-.4,0-.5.1c-.1,0-.3.2-.3.4,0,.2-.1.3-.2.5s0,.4,0,.7,0,.5,0,.7c0,.2.1.3.2.5,0,.1.2.2.3.2s.3,0,.5-.1c.1,0,.3-.2.4-.4.1-.1.2-.2.4-.3.1,0,.3-.1.4-.1s.4,0,.6.2.3.4.4.6c0,.2.1.4.1.6s0,.3,0,.4c0,.1-.1.2-.2.3-.3.5-.7.8-1.2,1-.5.2-.9.3-1.3.3s-1-.1-1.4-.4c-.4-.3-.7-.7-.9-1.2-.2-.5-.3-1.2-.3-2.1Z" fill="#542077"/>
  </g>
  <g id="address*">
    <text transform="translate(72.4 333.1)" fill="#542077" font-family="Playpen Sans Hebrew" font-weight="800" font-size="11"><tspan x="0" y="0">5015 15th Ave</tspan></text>
  </g>
  <g id="hall*">
    <text transform="translate(60.3 318)" fill="#542077" font-family="Playpen Sans Hebrew" font-weight="800" font-size="14.9"><tspan x="0" y="0">באולם פרדס נח</tspan></text>
  </g>
</svg>