<?xml version="1.0" encoding="UTF-8"?>
<svg id="Layer_1" data-name="Layer 1" xmlns="http://www.w3.org/2000/svg" viewBox="0 0 360 504">
  <text transform="translate(291.8 384.2) rotate(.6)" fill="#9e654b" font-family="Heebo" font-weight="600" font-size="16.6"><tspan x="0" y="0">החתן</tspan></text>
  <text transform="translate(260 405.7) rotate(.6)" fill="#713e29" font-family="Heebo" font-weight="900" font-size="18.7"><tspan x="0" y="0">דוד ברוך</tspan></text>
  <text transform="translate(258.8 427.9) rotate(.6)" fill="#713e29" font-family="Heebo" font-weight="900" font-size="18.7"><tspan x="0" y="0">ווייסמאן</tspan></text>
  <text transform="translate(235.2 238.5)" fill="#56200e" font-family="Heebo" font-weight="900" font-size="18.8"><tspan x="3.3" y="0">פרשת וירא</tspan></text>
  <text transform="translate(256.8 218.1)" fill="#56200e" font-family="Heebo" font-weight="900" font-size="18.8"><tspan x="0" y="0">דינסטאג</tspan></text>
  <text transform="translate(251.8 284.6)" fill="#9e654b" font-family="Heebo" font-weight="600" font-size="12.6"><tspan x="0" y="0">אין די זאלן פון</tspan></text>
  <text transform="translate(198.6 197.1)" fill="#9e654b" font-family="Heebo" font-weight="600" font-size="12.6"><tspan x="0" y="0">וואס וועט אי״ה פארקומען</tspan></text>
  <text transform="translate(209.8 71.2)" fill="#9e654b" font-family="Heebo" font-weight="600" font-size="16.4"><tspan x="0" y="0">אנליידינען צו מיין</tspan></text>
  <g>
    <path d="M181.1,58.6v-11.2h-4.4v-1.6h6.4v12.8h-2Z" fill="#9e654b"/>
    <path d="M185.9,51.2v-3.8h-1.6v-1.6h3.7v5.4h-2.1Z" fill="#9e654b"/>
    <path d="M189.2,47.4v-4.4h2.1v2.8h4.7v1.6h-6.8ZM196.8,47.1l-3.3,8.2h-2.2l3.9-9.5h1.6v1.3Z" fill="#9e654b"/>
    <path d="M198.9,55.5c-.3,0-.6,0-.8,0s-.5,0-.9-.1v-1.6c.4,0,.8,0,1.2,0s.7-.1.9-.3c.2-.2.3-.6.3-1v-5h-1.7v-1.6h3.8v6.8c0,.9-.2,1.6-.7,2.1-.5.5-1.1.7-2,.7Z" fill="#9e654b"/>
    <path d="M206.5,55.5c-.5,0-1.1,0-1.7-.2s-1.2-.3-1.9-.5l.5-1.5c.6.2,1.1.4,1.5.5.5.1.9.2,1.3.2.8,0,1.5-.2,2-.6.5-.4.7-1.1.7-1.9v-5.6h2.1v5.6c0,.9-.2,1.7-.6,2.3-.4.6-.9,1.1-1.6,1.4-.7.3-1.4.5-2.3.5ZM203.4,45.8h2.1l1.5,6.8c0,.4.2.7.3.9.1.3.3.5.5.7h-1.6c-.3-.2-.5-.4-.7-.7-.2-.3-.4-.7-.5-1.1l-1.5-6.7Z" fill="#9e654b"/>
    <path d="M214.1,55.3l-1.2-7.8h-.6v-1.7h5v1.6h-2.4l1.3,7.9h-2.1Z" fill="#9e654b"/>
    <path d="M221.4,55.5c-.5,0-1.1,0-1.7-.2s-1.2-.3-1.9-.5l.5-1.5c.6.2,1.1.4,1.5.5.5.1.9.2,1.3.2.8,0,1.5-.2,2-.6.5-.4.7-1.1.7-1.9v-5.6h2.1v5.6c0,.9-.2,1.7-.6,2.3-.4.6-.9,1.1-1.6,1.4-.7.3-1.4.5-2.3.5ZM218.2,45.8h2.1l1.5,6.8c0,.4.2.7.3.9.1.3.3.5.5.7h-1.6c-.3-.2-.5-.4-.7-.7-.2-.3-.4-.7-.5-1.1l-1.5-6.7Z" fill="#9e654b"/>
    <path d="M231.5,55.3v-6.4c0-.5-.1-.8-.4-1.1-.3-.3-.6-.4-1.1-.4h-3v-1.6h3.1c1.1,0,1.9.3,2.5.8.6.6.9,1.3.9,2.4v6.3h-2.1Z" fill="#9e654b"/>
    <path d="M238.9,55.5c-.5,0-1,0-1.6-.1-.6,0-1.2-.2-1.7-.4l.4-1.5c.5.1,1,.3,1.5.3s.9.1,1.3.1c.8,0,1.4-.2,1.9-.6.4-.4.6-.9.6-1.7v-4.2h-3.3c-.1.3-.2.6-.3,1,0,.4-.1.7-.1,1.1v.6c.1,0,.3,0,.4,0,.2,0,.4,0,.6,0v1.5c-.4,0-.8,0-1.2,0-.4,0-.7,0-1-.2-.3,0-.6-.2-.8-.4v-1c0-.5,0-1,.2-1.5.1-.5.3-.9.5-1.2h-1.1v-1.6h8.1v5.5c0,1-.2,1.8-.6,2.4-.4.6-.9,1.1-1.6,1.4-.7.3-1.4.4-2.3.4Z" fill="#9e654b"/>
    <path d="M252.5,58.6v-11.2h-4.4v-1.6h6.4v12.8h-2Z" fill="#9e654b"/>
    <path d="M257.4,51.2v-3.8h-1.6v-1.6h3.7v5.4h-2.1Z" fill="#9e654b"/>
    <path d="M260.6,45.8h7.9v1.6h-1.6v7.9h-2.1v-7.9h-4.2v-1.6Z" fill="#9e654b"/>
    <path d="M272.5,47.4v-4.4h2.1v2.8h4.7v1.6h-6.8ZM280,47.1l-3.3,8.2h-2.2l3.9-9.5h1.6v1.3Z" fill="#9e654b"/>
    <path d="M282,51.2v-3.8h-1.6v-1.6h3.7v5.4h-2.1Z" fill="#9e654b"/>
    <path d="M286.4,55.3v-7.9h-1v-1.6h3v9.5h-2.1Z" fill="#9e654b"/>
    <path d="M290.9,55.3v-7.9h-1v-1.6h3v9.5h-2.1Z" fill="#9e654b"/>
    <path d="M302.1,58.6v-11.2h-4.4v-1.6h6.4v12.8h-2Z" fill="#9e654b"/>
    <path d="M307,51.2v-3.8h-1.6v-1.6h3.7v5.4h-2.1Z" fill="#9e654b"/>
    <path d="M317.4,55.3l-6.7-9.5h2.3l6.7,9.5h-2.3ZM311,55.3v-3.3c0-.9.2-1.7.5-2.2.3-.5.9-1,1.6-1.2l.8,1c-.6.3-.9.8-.9,1.6v4.1h-2ZM319.8,45.8l-3.2,5.9-1.3-1.6,2.2-4.3h2.3Z" fill="#9e654b"/>
  </g>
  <g id="address*">
    <text transform="translate(238.8 327.7)" fill="#9e654b" font-family="Heebo" font-weight="900" font-size="13.8"><tspan x="0" y="0">5015 15th Ave</tspan></text>
  </g>
  <g id="hall*">
    <text transform="translate(204.7 308.7)" fill="#9e654b" font-family="Heebo" font-weight="900" font-size="18.8"><tspan x="0" y="0">באולם פרדס נח</tspan></text>
  </g>
</svg>