<?xml version="1.0" encoding="UTF-8"?>
<svg id="Layer_1" data-name="Layer 1" xmlns="http://www.w3.org/2000/svg" viewBox="0 0 360 504">
  <text transform="translate(289.5 419.5) rotate(.6)" fill="#d8630c" font-family="Playpen Sans Hebrew" font-weight="600" font-size="22.8"><tspan x="0" y="0">החתן</tspan></text>
  <text transform="translate(235.1 451) rotate(.6)" fill="#44759b" font-family="Playpen Sans Hebrew" font-weight="800" font-size="27.8"><tspan x="0" y="0">דוד ברוך</tspan></text>
  <text transform="translate(242.8 480.6) rotate(.6)" fill="#44759b" font-family="Playpen Sans Hebrew" font-weight="800" font-size="27.8"><tspan x="0" y="0">ווייסמאן</tspan></text>
  <text transform="translate(207.9 217.1)" fill="#d8630c" font-family="Heebo" font-weight="900" font-size="15.8"><tspan x="2.8" y="0">פרשת וירא</tspan></text>
  <text transform="translate(217 202)" fill="#d8630c" font-family="Heebo" font-weight="900" font-size="15.8"><tspan x="0" y="0">דינסטאג</tspan></text>
  <text transform="translate(60.3 186.6)" fill="#d8630c" font-family="Heebo" font-weight="600" font-size="11.3"><tspan x="0" y="0">אין די זאלן פון</tspan></text>
  <text transform="translate(189.1 186.6)" fill="#d8630c" font-family="Heebo" font-weight="600" font-size="11.3"><tspan x="0" y="0">וואס וועט אי״ה פארקומען</tspan></text>
  <text transform="translate(118 65)" fill="#d8630c" font-family="Heebo" font-weight="600" font-size="16.5"><tspan x="0" y="0">אנליידינען צו מיין</tspan></text>
  <g>
    <path d="M106.1,52.3v-11.3h-4.4v-1.6h6.5v12.9h-2Z" fill="#d8630c"/>
    <path d="M110.9,44.8v-3.8h-1.6v-1.6h3.7v5.4h-2.1Z" fill="#d8630c"/>
    <path d="M114.3,41v-4.4h2.1v2.8h4.8v1.6h-6.8ZM121.9,40.7l-3.3,8.3h-2.2l4-9.6h1.6v1.3Z" fill="#d8630c"/>
    <path d="M124,49.1c-.3,0-.6,0-.8,0-.3,0-.5,0-.9-.1v-1.6c.4,0,.8,0,1.2,0s.7-.1.9-.3c.2-.2.3-.6.3-1v-5h-1.8v-1.6h3.8v6.8c0,.9-.2,1.7-.7,2.2-.5.5-1.2.8-2,.8Z" fill="#d8630c"/>
    <path d="M131.7,49.2c-.5,0-1.1,0-1.7-.2s-1.2-.3-1.9-.5l.5-1.5c.6.2,1.1.4,1.6.5.5.1.9.2,1.3.2.8,0,1.5-.2,2-.6.5-.4.7-1.1.7-1.9v-5.7h2.1v5.6c0,.9-.2,1.7-.6,2.3s-.9,1.1-1.6,1.4c-.7.3-1.5.5-2.3.5ZM128.5,39.4h2.1l1.5,6.9c0,.4.2.7.3.9.1.3.3.5.5.7h-1.6c-.3-.2-.5-.4-.7-.7s-.4-.7-.5-1.1l-1.5-6.7Z" fill="#d8630c"/>
    <path d="M139.3,49l-1.2-7.9h-.6v-1.7h5v1.6h-2.4l1.3,8h-2.1Z" fill="#d8630c"/>
    <path d="M146.6,49.2c-.5,0-1.1,0-1.7-.2-.6-.1-1.2-.3-1.9-.5l.5-1.5c.6.2,1.1.4,1.6.5.5.1.9.2,1.3.2.8,0,1.5-.2,2-.6.5-.4.7-1.1.7-1.9v-5.7h2.1v5.6c0,.9-.2,1.7-.6,2.3-.4.6-.9,1.1-1.6,1.4-.7.3-1.5.5-2.3.5ZM143.5,39.4h2.1l1.5,6.9c0,.4.2.7.3.9s.3.5.5.7h-1.6c-.3-.2-.5-.4-.7-.7s-.4-.7-.5-1.1l-1.5-6.7Z" fill="#d8630c"/>
    <path d="M156.8,49v-6.5c0-.5-.1-.8-.4-1.1-.3-.3-.6-.4-1.1-.4h-3v-1.6h3.2c1.1,0,1.9.3,2.6.8.6.6.9,1.4.9,2.4v6.4h-2.1Z" fill="#d8630c"/>
    <path d="M164.3,49.2c-.5,0-1,0-1.6-.1-.6,0-1.2-.2-1.7-.4l.4-1.5c.5.1,1,.3,1.5.3.5,0,.9.1,1.3.1.8,0,1.4-.2,1.9-.6.4-.4.6-.9.6-1.7v-4.2h-3.3c-.1.3-.2.6-.3,1s-.1.7-.1,1.1v.6c.1,0,.3,0,.4,0,.2,0,.4,0,.6,0v1.5c-.4,0-.8,0-1.2,0-.4,0-.7,0-1-.2-.3,0-.6-.2-.9-.4v-1c0-.5,0-1,.2-1.5.1-.5.3-.9.5-1.2h-1.1v-1.6h8.2v5.5c0,1-.2,1.8-.6,2.4s-.9,1.1-1.6,1.4-1.4.4-2.3.4Z" fill="#d8630c"/>
    <path d="M178,52.3v-11.3h-4.4v-1.6h6.5v12.9h-2Z" fill="#d8630c"/>
    <path d="M182.9,44.8v-3.8h-1.6v-1.6h3.7v5.4h-2.1Z" fill="#d8630c"/>
    <path d="M186.1,39.4h8v1.6h-1.6v8h-2.1v-8h-4.3v-1.6Z" fill="#d8630c"/>
    <path d="M198.1,41v-4.4h2.1v2.8h4.8v1.6h-6.8ZM205.7,40.7l-3.3,8.3h-2.2l4-9.6h1.6v1.3Z" fill="#d8630c"/>
    <path d="M207.7,44.8v-3.8h-1.6v-1.6h3.7v5.4h-2.1Z" fill="#d8630c"/>
    <path d="M212.1,49v-8h-1v-1.6h3v9.6h-2.1Z" fill="#d8630c"/>
    <path d="M216.6,49v-8h-1v-1.6h3v9.6h-2.1Z" fill="#d8630c"/>
    <path d="M228,52.3v-11.3h-4.4v-1.6h6.5v12.9h-2Z" fill="#d8630c"/>
    <path d="M232.8,44.8v-3.8h-1.6v-1.6h3.7v5.4h-2.1Z" fill="#d8630c"/>
    <path d="M243.4,49l-6.8-9.6h2.3l6.8,9.6h-2.3ZM237,49v-3.3c0-.9.2-1.7.5-2.2.3-.6.9-1,1.6-1.2l.8,1c-.6.3-.9.8-.9,1.6v4.1h-2ZM245.7,39.4l-3.2,5.9-1.4-1.6,2.2-4.3h2.3Z" fill="#d8630c"/>
  </g>
  <g id="address*">
    <text transform="translate(55.1 218.4)" fill="#d8630c" font-family="Heebo" font-weight="900" font-size="12.2"><tspan x="0" y="0">5015 15th Ave</tspan></text>
  </g>
  <g id="hall*">
    <text transform="translate(42.2 204.4)" fill="#d8630c" font-family="Heebo" font-weight="900" font-size="15.8"><tspan x="0" y="0">באולם פרדס נח</tspan></text>
  </g>
</svg>