<?xml version="1.0" encoding="UTF-8"?>
<svg id="Layer_1" data-name="Layer 1" xmlns="http://www.w3.org/2000/svg" viewBox="0 0 360 504">

  <!-- static_text: never edited by user -->
  <g id="static_text">
    <text transform="translate(132.8 134.1) rotate(-1.1) scale(.9 1)" fill="#998881" font-family="GveretLevinAlefAlefAlef-Regular, 'Gveret Levin AlefAlefAlef'" font-size="31"><tspan x="0" y="0">!</tspan><tspan x="7.1" y="0">מזל טוב</tspan></text>
    <text transform="translate(128.7 178.2) rotate(-1.1) scale(.9 1)" fill="#998881" font-family="GveretLevinAlefAlefAlef-Regular, 'Gveret Levin AlefAlefAlef'" font-size="11.3"><tspan x="0" y="0">בכבוד רב הננו להזמינכם</tspan></text>
    <text transform="translate(147 202.1) rotate(-1.1) scale(.9 1)" fill="#998881" font-family="GveretLevinAlefAlefAlef-Regular, 'Gveret Levin AlefAlefAlef'" font-size="11.3"><tspan x="0" y="0">לשמחת נישואי בננו</tspan></text>
    <text transform="translate(138.3 276) rotate(-1.1) scale(.9 1)" fill="#998881" font-family="GveretLevinAlefAlefAlef-Regular, 'Gveret Levin AlefAlefAlef'" font-size="11.3"><tspan x="0" y="0">אשר יתקיימו בעזרת ה׳</tspan></text>
    <text transform="translate(148.7 349.7) rotate(-1.1) scale(.9 1)" fill="#998881" font-family="GveretLevinAlefAlefAlef-Regular, 'Gveret Levin AlefAlefAlef'" font-size="11.3"><tspan x="0" y="0">ונזכה כולנו לראות</tspan><tspan x="-38.1" y="13.6">בנין עדי עד על יסודי התורה והיראה</tspan></text>
    <text transform="translate(156.9 315.9) rotate(-1.1) scale(.9 1)" fill="#998881" font-family="GveretLevinAlefAlefAlef-Regular, 'Gveret Levin AlefAlefAlef'" font-size="11.3"><tspan x="0" y="0" xml:space="preserve">  </tspan><tspan x="6.6" y="0">7:00</tspan><tspan x="26.9" y="0">בשעה </tspan></text>
  </g>

  <!-- name: editable — person's full name -->
  <g id="name">
    <text transform="translate(114.9 230.2) rotate(-1.1) scale(.9 1)" fill="#998881" font-family="GveretLevinAlefAlefAlef-Regular, 'Gveret Levin AlefAlefAlef'" font-size="13.6"><tspan x="0" y="0">מרדכי בן הרה״ג ר׳ ישראל</tspan></text>
  </g>

  <!-- date: editable — date line -->
  <g id="date">
    <text transform="translate(117.8 297.7) rotate(-1.1) scale(.9 1)" fill="#998881" font-family="GveretLevinAlefAlefAlef-Regular, 'Gveret Levin AlefAlefAlef'" font-size="11.3"><tspan x="0" y="0" xml:space="preserve">יום ב׳  לחודש אדרצ, שנת תשפ״ו</tspan></text>
  </g>

  <!-- name_signature: editable — short signing name -->
  <g id="name_signature">
    <text transform="translate(160.1 394.5) rotate(-1.1) scale(.9 1)" fill="#998881" font-family="GveretLevinAlefAlefAlef-Regular, 'Gveret Levin AlefAlefAlef'" font-size="11.3"><tspan x="0" y="0">מוטי ראטה</tspan></text>
  </g>

</svg>
