<?xml version="1.0" encoding="UTF-8"?>
<svg id="Layer_1" data-name="Layer 1" xmlns="http://www.w3.org/2000/svg" viewBox="0 0 360 504">
  <text transform="translate(188.2 287) scale(.9 1)" fill="#fff" font-family="GveretLevinAlefAlefAlef-Regular, &apos;Gveret Levin AlefAlefAlef&apos;" font-size="12.1"><tspan x="0" y="0" xml:space="preserve">יום ב׳  לחודש אדרצ, שנת תשפ״ו</tspan></text>
  <text transform="translate(229.4 307.1) scale(.9 1)" fill="#fff" font-family="GveretLevinAlefAlefAlef-Regular, &apos;Gveret Levin AlefAlefAlef&apos;" font-size="12.1"><tspan x="0" y="0" xml:space="preserve">  </tspan><tspan x="7" y="0">7:00</tspan><tspan x="28.6" y="0">בשעה </tspan></text>
  <text transform="translate(202.2 160) scale(.9 1)" fill="#fff" font-family="GveretLevinAlefAlefAlef-Regular, &apos;Gveret Levin AlefAlefAlef&apos;" font-size="12.1"><tspan x="0" y="0">בכבוד רב הננו להזמינכם</tspan></text>
  <text transform="translate(207.4 113.2) scale(.9 1)" fill="#fff" font-family="GveretLevinAlefAlefAlef-Regular, &apos;Gveret Levin AlefAlefAlef&apos;" font-size="33"><tspan x="0" y="0">!</tspan><tspan x="7.6" y="0">מזל טוב</tspan></text>
  <text transform="translate(221.2 185.8) scale(.9 1)" fill="#fff" font-family="GveretLevinAlefAlefAlef-Regular, &apos;Gveret Levin AlefAlefAlef&apos;" font-size="12.1"><tspan x="0" y="0">לשמחת נישואי בננו</tspan></text>
  <text transform="translate(210.5 264.3) scale(.9 1)" fill="#fff" font-family="GveretLevinAlefAlefAlef-Regular, &apos;Gveret Levin AlefAlefAlef&apos;" font-size="12.1"><tspan x="0" y="0">אשר יתקיימו בעזרת ה׳</tspan></text>
  <text transform="translate(220.1 343) scale(.9 1)" fill="#fff" font-family="GveretLevinAlefAlefAlef-Regular, &apos;Gveret Levin AlefAlefAlef&apos;" font-size="12.1"><tspan x="0" y="0">ונזכה כולנו לראות</tspan><tspan x="-40.6" y="14.5">בנין עדי עד על יסודי התורה והיראה</tspan></text>
  <text transform="translate(186.5 215.1) scale(.9 1)" fill="#fff" font-family="GveretLevinAlefAlefAlef-Regular, &apos;Gveret Levin AlefAlefAlef&apos;" font-size="14.5"><tspan x="0" y="0">מרדכי בן הרה״ג ר׳ ישראל</tspan></text>
  <text transform="translate(231.3 390.8) scale(.9 1)" fill="#fff" font-family="GveretLevinAlefAlefAlef-Regular, &apos;Gveret Levin AlefAlefAlef&apos;" font-size="12.1"><tspan x="0" y="0">מוטי ראטה</tspan></text>
</svg>