<?xml version="1.0" encoding="UTF-8"?>
<svg id="Layer_1" data-name="Layer 1" xmlns="http://www.w3.org/2000/svg" viewBox="0 0 360 504">
  <text transform="translate(130.3 277.9) scale(.9 1)" fill="#fff" font-family="GveretLevinAlefAlefAlef-Regular, &apos;Gveret Levin AlefAlefAlef&apos;" font-size="8.9"><tspan x="0" y="0" xml:space="preserve">יום ב׳  לחודש אדרצ, שנת תשפ״ו</tspan></text>
  <text transform="translate(160.8 292.8) scale(.9 1)" fill="#fff" font-family="GveretLevinAlefAlefAlef-Regular, &apos;Gveret Levin AlefAlefAlef&apos;" font-size="8.9"><tspan x="0" y="0" xml:space="preserve">  </tspan><tspan x="5.2" y="0">7:00</tspan><tspan x="21.2" y="0">בשעה </tspan></text>
  <text transform="translate(140.6 183.9) scale(.9 1)" fill="#fff" font-family="GveretLevinAlefAlefAlef-Regular, &apos;Gveret Levin AlefAlefAlef&apos;" font-size="8.9"><tspan x="0" y="0">בכבוד רב הננו להזמינכם</tspan></text>
  <text transform="translate(144.5 149.2) scale(.9 1)" fill="#fff" font-family="GveretLevinAlefAlefAlef-Regular, &apos;Gveret Levin AlefAlefAlef&apos;" font-size="24.4"><tspan x="0" y="0">!</tspan><tspan x="5.6" y="0">מזל טוב</tspan></text>
  <text transform="translate(154.7 203) scale(.9 1)" fill="#fff" font-family="GveretLevinAlefAlefAlef-Regular, &apos;Gveret Levin AlefAlefAlef&apos;" font-size="8.9"><tspan x="0" y="0">לשמחת נישואי בננו</tspan></text>
  <text transform="translate(146.8 261.1) scale(.9 1)" fill="#fff" font-family="GveretLevinAlefAlefAlef-Regular, &apos;Gveret Levin AlefAlefAlef&apos;" font-size="8.9"><tspan x="0" y="0">אשר יתקיימו בעזרת ה׳</tspan></text>
  <text transform="translate(153.9 319.4) scale(.9 1)" fill="#fff" font-family="GveretLevinAlefAlefAlef-Regular, &apos;Gveret Levin AlefAlefAlef&apos;" font-size="8.9"><tspan x="0" y="0">ונזכה כולנו לראות</tspan><tspan x="-30.1" y="10.7">בנין עדי עד על יסודי התורה והיראה</tspan></text>
  <text transform="translate(129 224.7) scale(.9 1)" fill="#fff" font-family="GveretLevinAlefAlefAlef-Regular, &apos;Gveret Levin AlefAlefAlef&apos;" font-size="10.7"><tspan x="0" y="0">מרדכי בן הרה״ג ר׳ ישראל</tspan></text>
  <text transform="translate(162.2 354.8) scale(.9 1)" fill="#fff" font-family="GveretLevinAlefAlefAlef-Regular, &apos;Gveret Levin AlefAlefAlef&apos;" font-size="8.9"><tspan x="0" y="0">מוטי ראטה</tspan></text>
</svg>