<?xml version="1.0" encoding="UTF-8"?>
<svg id="Layer_1" data-name="Layer 1" xmlns="http://www.w3.org/2000/svg" viewBox="0 0 360 504">
  <text transform="translate(126.1 286.8) scale(.9 1)" fill="#fff" font-family="GveretLevinAlefAlefAlef-Regular, &apos;Gveret Levin AlefAlefAlef&apos;" font-size="9.7"><tspan x="0" y="0" xml:space="preserve">יום ב׳  לחודש אדרצ, שנת תשפ״ו</tspan></text>
  <text transform="translate(159.2 302.9) scale(.9 1)" fill="#fff" font-family="GveretLevinAlefAlefAlef-Regular, &apos;Gveret Levin AlefAlefAlef&apos;" font-size="9.7"><tspan x="0" y="0" xml:space="preserve">  </tspan><tspan x="5.6" y="0">7:00</tspan><tspan x="23" y="0">בשעה </tspan></text>
  <text transform="translate(137.3 184.9) scale(.9 1)" fill="#fff" font-family="GveretLevinAlefAlefAlef-Regular, &apos;Gveret Levin AlefAlefAlef&apos;" font-size="9.7"><tspan x="0" y="0">בכבוד רב הננו להזמינכם</tspan></text>
  <text transform="translate(141.5 147.3) scale(.9 1)" fill="#fff" font-family="GveretLevinAlefAlefAlef-Regular, &apos;Gveret Levin AlefAlefAlef&apos;" font-size="26.5"><tspan x="0" y="0">!</tspan><tspan x="6.1" y="0">מזל טוב</tspan></text>
  <text transform="translate(152.6 205.6) scale(.9 1)" fill="#fff" font-family="GveretLevinAlefAlefAlef-Regular, &apos;Gveret Levin AlefAlefAlef&apos;" font-size="9.7"><tspan x="0" y="0">לשמחת נישואי בננו</tspan></text>
  <text transform="translate(144 268.6) scale(.9 1)" fill="#fff" font-family="GveretLevinAlefAlefAlef-Regular, &apos;Gveret Levin AlefAlefAlef&apos;" font-size="9.7"><tspan x="0" y="0">אשר יתקיימו בעזרת ה׳</tspan></text>
  <text transform="translate(151.7 331.7) scale(.9 1)" fill="#fff" font-family="GveretLevinAlefAlefAlef-Regular, &apos;Gveret Levin AlefAlefAlef&apos;" font-size="9.7"><tspan x="0" y="0">ונזכה כולנו לראות</tspan><tspan x="-32.6" y="11.6">בנין עדי עד על יסודי התורה והיראה</tspan></text>
  <text transform="translate(124.7 229.1) scale(.9 1)" fill="#fff" font-family="GveretLevinAlefAlefAlef-Regular, &apos;Gveret Levin AlefAlefAlef&apos;" font-size="11.6"><tspan x="0" y="0">מרדכי בן הרה״ג ר׳ ישראל</tspan></text>
  <text transform="translate(160.7 370.1) scale(.9 1)" fill="#fff" font-family="GveretLevinAlefAlefAlef-Regular, &apos;Gveret Levin AlefAlefAlef&apos;" font-size="9.7"><tspan x="0" y="0">מוטי ראטה</tspan></text>
</svg>