<?xml version="1.0" encoding="UTF-8"?>
<svg id="Layer_2" data-name="Layer 2" xmlns="http://www.w3.org/2000/svg" viewBox="0 0 360 504">
  <text transform="translate(127 218.3) scale(.7 1)" fill="#ec8c00" font-family="Heebo" font-size="106" font-weight="500"><tspan x="0" y="0">שלום זכר</tspan></text>
  <text transform="translate(144.7 249.9)" fill="#fff" font-family="Heebo" font-size="18" font-weight="500"><tspan x="0" y="0">שתקיים אי״ה בליל שבת קודש</tspan><tspan x="173.4" y="0"> </tspan></text>
  <text transform="translate(178.5 273.8)" fill="#f1f2f2" font-family="Heebo" font-size="25" font-weight="500"><tspan x="0" y="0">פרשת במדבר</tspan></text>
  <text transform="translate(191.6 354.6)" fill="#f09b00" font-family="Heebo" font-size="25" font-weight="500"><tspan x="0" y="0">שלום גרוס</tspan><tspan x="78.5" y="0"> </tspan></text>
  <text transform="translate(197 291)" fill="#f09b00" font-family="Heebo" font-size="12" font-weight="500"><tspan x="0" y="0">בביהמ״ד בית יוסף</tspan><tspan x="69.8" y="0"> </tspan><tspan x="34.1" y="14.4">רח׳ הלווים </tspan><tspan x="74.6" y="14.4"> </tspan></text>
  <text transform="translate(178.7 328.9)" fill="#fff" font-family="Heebo" font-size="12" font-weight="500"><tspan x="0" y="0">ידידכם המצפה לקבל פניכם</tspan><tspan x="106.6" y="0"> </tspan></text>
  <text transform="translate(210 368)" fill="#fff" font-family="Heebo" font-size="8" font-weight="500"><tspan x="0" y="0">ב״ר יצחק כהן הי״וו</tspan></text>
  <text transform="translate(210 377.8)" fill="#fff" font-family="Heebo" font-size="8" font-weight="500"><tspan x="0" y="0">ב״ר יצחק כהן הי״וו</tspan></text>
  <text transform="translate(171 44.1) scale(1.2 1)" font-family="Heebo" font-weight="500"><tspan fill="#fff" font-size="11.9"><tspan x="0" y="0">מתוך שבח והודאה להשי״ת</tspan></tspan><tspan fill="#fff" font-size="11.9"><tspan x="7.9" y="14.2">על כל הטוב אשר גמלנו</tspan></tspan><tspan fill="#f09b00" font-size="18.3"><tspan x="-23.8" y="36.2">בשמחת הולדת בני שיחי׳</tspan><tspan x="120.6" y="36.2"> </tspan></tspan><tspan fill="#f1f2f2" font-size="14"><tspan x="27.9" y="53.1">למזל טוב</tspan><tspan x="69.6" y="53.1"> </tspan></tspan><tspan fill="#fff" font-size="12.9"><tspan x="-30.1" y="68.6">אתכבד בזה להזמין את כל קרובי וידידי</tspan><tspan x="127.8" y="68.6"> </tspan></tspan><tspan fill="#fff" font-size="12.9"><tspan x="-12.4" y="84.1">לבוא ולהשתתף בשמחתי אצל</tspan><tspan x="110.1" y="84.1"> </tspan></tspan><tspan fill="#fff" font-size="14"><tspan x="48.8" y="100.9"> </tspan></tspan></text>
</svg>