<svg xmlns="http://www.w3.org/2000/svg" id="Layer_1" data-name="Layer 1" viewBox="0 0 360 504">
  <text transform="translate(180 136.8) scale(1 1)" text-anchor="middle" fill="#321b0f" font-family="Heebo" font-size="13.6" font-weight="200"><tspan x="0" y="0">מתוך שבח והודאה להשי״ת</tspan></text>
  <text transform="translate(180 153.2) scale(1 1)" text-anchor="middle" fill="#321b0f" font-family="Heebo" font-size="13.6" font-weight="200"><tspan x="0" y="0">על כל הטוב אשר גמלנו</tspan></text>
  <text transform="translate(180 175.7) scale(1 1)" text-anchor="middle" fill="#321b0f" font-family="Heebo" font-size="20.9" font-weight="300"><tspan x="0" y="0">בשמחת הולדת בני שיחי׳</tspan></text>
  <text transform="translate(180 194.4) scale(1 1)" text-anchor="middle" fill="#321b0f" font-family="Heebo" font-size="14.7" font-weight="200"><tspan x="0" y="0">למזל טוב</tspan></text>
  <text transform="translate(180 210.8) scale(1 1)" text-anchor="middle" fill="#321b0f" font-family="Heebo" font-size="13.6" font-weight="200"><tspan x="0" y="0">אתכבד בזה להזמין את כל קרובי וידידי</tspan></text>
  <text transform="translate(180 228.8) scale(1 1)" text-anchor="middle" fill="#321b0f" font-family="Heebo" font-size="13.6" font-weight="200"><tspan x="0" y="0">לבוא ולהשתתף בשמחתי אצל</tspan></text>
  <text transform="translate(180 285.2) scale(.7 1)" text-anchor="middle" fill="#321b0f" font-family="Heebo" font-size="61.3"><tspan x="0" y="0">שלום זכר</tspan></text>
  <text transform="translate(180 310.7) scale(.8 1)" text-anchor="middle" fill="#311a0f" font-family="Heebo" font-size="13.8" font-weight="300"><tspan x="0" y="0">שתקיים אי״ה בליל שבת קודש</tspan></text>
  <g id="parsha*">
    <text transform="translate(180 328.8) scale(.8 1)" text-anchor="middle" fill="#311a0f" font-family="Heebo" font-size="19.5" font-weight="300"><tspan x="0" y="0">פרשת נשא</tspan></text>
  </g>
  <text transform="translate(180 368.7) scale(.8 1)" text-anchor="middle" fill="#311a0f" font-family="Heebo" font-size="12" font-weight="300"><tspan x="0" y="0">ידידכם המצפה לקבל פניכם</tspan></text>
  <g id="location*">
    <text transform="translate(180 340.6) scale(.8 1)" text-anchor="middle" fill="#311a0f" font-family="Heebo" font-size="9.4" font-weight="300"><tspan x="0" y="0">בביהמ״ד לעלוב</tspan></text>
  </g>
  <g id="street*">
    <text transform="translate(180 350.7) scale(.8 1)" text-anchor="middle" fill="#311a0f" font-family="Heebo" font-size="9.4" font-weight="300"><tspan x="0" y="0">1693 49th Street</tspan></text>
  </g>
  <g id="host_name*">
    <text transform="translate(180 384.8) scale(.8 1)" text-anchor="middle" fill="#311a0f" font-family="Heebo" font-size="13.9" font-weight="500"><tspan x="0" y="0">מרדכי זאב ראטה</tspan></text>
  </g>
  <g id="father_name_1*">
    <text transform="translate(180 396.2) scale(.8 1)" text-anchor="middle" fill="#311a0f" font-family="Heebo" font-size="7.5" font-weight="300"><tspan x="0" y="0">ב״ר בנימין משה הי״וו</tspan></text>
  </g>
  <g id="father_name_2*">
    <text transform="translate(180 405.1) scale(.8 1)" text-anchor="middle" fill="#311a0f" font-family="Heebo" font-size="7.5" font-weight="300"><tspan x="0" y="0">חתן בערל גרינפעלד הי״וו</tspan></text>
  </g>
</svg>
