<svg xmlns="http://www.w3.org/2000/svg" id="Layer_1" data-name="Layer 1" viewBox="0 0 360 504">
  <text transform="translate(228.9 44.3)" text-anchor="middle" fill="#d0d1cc" font-family="Secular One" font-size="13.6"><tspan x="0" y="0">מתוך שבח והודאה להשי״ת</tspan></text>
  <text transform="translate(228.9 60.5)" text-anchor="middle" fill="#d0d1cc" font-family="Secular One" font-size="13.6"><tspan x="0" y="0">על כל הטוב אשר גמלנו</tspan></text>
  <text transform="translate(228.9 82.9)" text-anchor="middle" fill="#d0d1cc" font-family="Secular One" font-size="21"><tspan x="0" y="0">בשמחת הולדת בני שיחי׳</tspan></text>
  <text transform="translate(228.9 101.2)" text-anchor="middle" fill="#d0d1cc" font-family="Secular One" font-size="14.7"><tspan x="0" y="0">למזל טוב</tspan></text>
  <text transform="translate(228.9 118.1)" text-anchor="middle" fill="#d0d1cc" font-family="Secular One" font-size="13.6"><tspan x="0" y="0">אתכבד בזה להזמין את כל קרובי וידידי</tspan></text>
  <text transform="translate(228.9 136.2)" text-anchor="middle" fill="#d0d1cc" font-family="Secular One" font-size="13.6"><tspan x="0" y="0">לבוא ולהשתתף בשמחתי אצל</tspan></text>
  <text transform="translate(228.9 199.8) scale(.7 1)" text-anchor="middle" fill="#c86f29" font-family="Secular One" font-size="67.5"><tspan x="0" y="0">שלום זכר</tspan></text>
  <text transform="translate(228.9 233.6) scale(.9 1)" text-anchor="middle" fill="#d0d1cc" font-family="Secular One" font-size="15.3"><tspan x="0" y="0">שתקיים אי״ה בליל שבת קודש</tspan></text>
  <g id="parsha">
    <text transform="translate(228.9 253.6) scale(.9 1)" text-anchor="middle" fill="#d0d1cc" font-family="Secular One" font-size="21.6"><tspan x="0" y="0">פרשת נשא</tspan></text>
  </g>
  <g id="location">
    <text transform="translate(228.9 266.6) scale(.9 1)" text-anchor="middle" fill="#d0d1cc" font-family="Secular One" font-size="10.4"><tspan x="0" y="0">בביהמ״ד לעלוב</tspan><tspan x="0" y="12.4">1693 49th Street</tspan></text>
  </g>
  <text transform="translate(228.9 297.6) scale(.9 1)" text-anchor="middle" fill="#d0d1cc" font-family="Secular One" font-size="13.3"><tspan x="0" y="0">ידידכם המצפה לקבל פניכם</tspan></text>
  <g id="host_name">
    <text transform="translate(228.9 315.3) scale(.9 1)" text-anchor="middle" fill="#c86f29" font-family="Secular One" font-size="15.3"><tspan x="0" y="0">מרדכי זאב ראטה</tspan></text>
  </g>
  <g id="father_name_1">
    <text transform="translate(228.9 327.8) scale(.9 1)" text-anchor="middle" fill="#d0d1cc" font-family="Secular One" font-size="8.3"><tspan x="0" y="0">ב״ר בנימין משה הי״וו</tspan></text>
  </g>
  <g id="father_name_2">
    <text transform="translate(228.9 337.5) scale(.9 1)" text-anchor="middle" fill="#d0d1cc" font-family="Secular One" font-size="8.3"><tspan x="0" y="0">חתן בערל גרינעלד הי״וו</tspan></text>
  </g>
</svg>