<?xml version="1.0" encoding="UTF-8"?>
<svg id="Layer_1" data-name="Layer 1" xmlns="http://www.w3.org/2000/svg" viewBox="0 0 360 504">
  <text transform="translate(150.3 405.1) scale(.8 1)" fill="#311a0f" font-family="Heebo-Light, Heebo" font-size="7.5" font-variation-settings="&apos;wght&apos; 300" font-weight="300"><tspan x="0" y="0">חתן בערל גרינפעלד הי״וו</tspan></text>
  <text transform="translate(140.6 384.8) scale(.8 1)" fill="#311a0f" font-family="Heebo-Medium, Heebo" font-size="13.9" font-variation-settings="&apos;wght&apos; 500" font-weight="500"><tspan x="0" y="0">מרדכי זאב ראטה</tspan></text>
  <text transform="translate(125.1 368.7) scale(.8 1)" fill="#311a0f" font-family="Heebo-Light, Heebo" font-size="12" font-variation-settings="&apos;wght&apos; 300" font-weight="300"><tspan x="0" y="0">ידידכם המצפה לקבל פניכם</tspan><tspan x="131.3" y="0"> </tspan></text>
  <text transform="translate(155.3 396.2) scale(.8 1)" fill="#311a0f" font-family="Heebo-Light, Heebo" font-size="7.5" font-variation-settings="&apos;wght&apos; 300" font-weight="300"><tspan x="0" y="0">ב״ר בנימין משה הי״וו</tspan></text>
  <text transform="translate(156.3 340.6) scale(.8 1)" fill="#311a0f" font-family="Heebo-Light, Heebo" font-size="9.4" font-variation-settings="&apos;wght&apos; 300" font-weight="300"><tspan x="0" y="0">בביהמ״ד לעלוב</tspan><tspan x="55.7" y="0"> </tspan></text>
  <text transform="translate(153.2 350.7) scale(.8 1)" fill="#311a0f" font-family="Heebo-Light, Heebo" font-size="9.4" font-variation-settings="&apos;wght&apos; 300" font-weight="300"><tspan x="0" y="0">1693 49th Steet</tspan></text>
  <text transform="translate(111.8 310.7) scale(.8 1)" fill="#311a0f" font-family="Heebo-Light, Heebo" font-size="13.8" font-variation-settings="&apos;wght&apos; 300" font-weight="300"><tspan x="0" y="0">שתקיים אי״ה בליל שבת קודש</tspan><tspan x="163.3" y="0"> </tspan></text>
  <text transform="translate(144.4 328.8) scale(.8 1)" fill="#311a0f" font-family="Heebo-Light, Heebo" font-size="19.5" font-variation-settings="&apos;wght&apos; 300" font-weight="300"><tspan x="0" y="0">פרשת נשא</tspan></text>
  <text transform="translate(89.5 285.2) scale(.7 1)" fill="#321b0f" font-family="Heebo-Regular, Heebo" font-size="61.3" font-variation-settings="&apos;wght&apos; 400"><tspan x="0" y="0">שלום זכר</tspan><tspan x="237.3" y="0"> </tspan></text>
  <text transform="translate(111.2 136.8) scale(1 1)" fill="#321b0f" font-family="Heebo-ExtraLight, Heebo" font-size="13.6" font-variation-settings="&apos;wght&apos; 200" font-weight="200"><tspan x="0" y="0">מתוך שבח והודאה להשי״ת</tspan></text>
  <text transform="translate(120.3 153.2) scale(1 1)" fill="#321b0f" font-family="Heebo-ExtraLight, Heebo" font-size="13.6" font-variation-settings="&apos;wght&apos; 200" font-weight="200"><tspan x="0" y="0">על כל הטוב אשר גמלנו</tspan></text>
  <text transform="translate(81.2 175.7) scale(1 1)" fill="#321b0f" font-family="Heebo-Light, Heebo" font-size="20.9" font-variation-settings="&apos;wght&apos; 300" font-weight="300"><tspan x="0" y="0">בשמחת הולדת בני שיחי׳</tspan><tspan x="200.2" y="0"> </tspan></text>
  <text transform="translate(154.2 194.4) scale(1 1)" fill="#321b0f" font-family="Heebo-ExtraLight, Heebo" font-size="14.7" font-variation-settings="&apos;wght&apos; 200" font-weight="200"><tspan x="0" y="0">למזל טוב</tspan><tspan x="52.3" y="0"> </tspan></text>
  <text transform="translate(81.9 210.8) scale(1 1)" fill="#321b0f" font-family="Heebo-ExtraLight, Heebo" font-size="13.6" font-variation-settings="&apos;wght&apos; 200" font-weight="200"><tspan x="0" y="0">אתכבד בזה להזמין את כל קרובי וידידי</tspan><tspan x="198.8" y="0"> </tspan></text>
  <text transform="translate(103.2 228.8) scale(1 1)" fill="#321b0f" font-family="Heebo-ExtraLight, Heebo" font-size="13.6" font-variation-settings="&apos;wght&apos; 200" font-weight="200"><tspan x="0" y="0">לבוא ולהשתתף בשמחתי אצל</tspan><tspan x="155.6" y="0"> </tspan></text>
</svg>