<svg xmlns="http://www.w3.org/2000/svg" id="Layer_1" data-name="Layer 1" viewBox="0 0 864 1216">
  <text transform="translate(573.9 101.9) scale(.9 1)" text-anchor="middle" fill="#cfd0cb" font-family="Secular One" font-size="37.1"><tspan x="0" y="0">מתוך שבח והודאה להשי״ת</tspan></text>
  <text transform="translate(573.9 146.4) scale(.9 1)" text-anchor="middle" fill="#cfd0cb" font-family="Secular One" font-size="37.1"><tspan x="0" y="0">על כל הטוב אשר גמלנו</tspan></text>
  <text transform="translate(573.9 214.8) scale(.9 1)" text-anchor="middle" fill="#cfd0cb" font-family="Secular One" font-size="57"><tspan x="0" y="0">בשמחת הולדת בני שיחי׳</tspan></text>
  <text transform="translate(573.9 262.9) scale(.9 1)" text-anchor="middle" fill="#cfd0cb" font-family="Secular One" font-size="40.1"><tspan x="0" y="0">למזל טוב</tspan></text>
  <text transform="translate(573.9 307.4) scale(.9 1)" text-anchor="middle" fill="#cfd0cb" font-family="Secular One" font-size="37.1"><tspan x="0" y="0">אתכבד בזה להזמין את כל קרובי וידידי</tspan></text>
  <text transform="translate(573.9 351.8) scale(.9 1)" text-anchor="middle" fill="#cfd0cb" font-family="Secular One" font-size="37.1"><tspan x="0" y="0">לבוא ולהשתתף בשמחתי אצל</tspan></text>
  <text transform="translate(573.9 492.3) scale(.7 1)" text-anchor="middle" fill="#c96d03" font-family="Secular One" font-size="162.9"><tspan x="0" y="0">שלום זכר</tspan></text>
  <text transform="translate(573.9 573.8) scale(.9 1)" text-anchor="middle" fill="#cfd0cb" font-family="Secular One" font-size="36.8"><tspan x="0" y="0">שתקיים אי״ה בליל שבת קודש</tspan></text>
  <g id="parsha*">
    <text transform="translate(573.9 622) scale(.9 1)" text-anchor="middle" fill="#cfd0cb" font-family="Secular One" font-size="52"><tspan x="0" y="0">פרשת נשא</tspan></text>
  </g>
  <g id="location*">
    <text transform="translate(573.9 653.3) scale(.9 1)" text-anchor="middle" fill="#cfd0cb" font-family="Secular One" font-size="25"><tspan x="0" y="0">בביהמ״ד לעלוב</tspan></text>
  </g>
  <g id="street*">
    <text transform="translate(573.9 678.6) scale(.9 1)" text-anchor="middle" fill="#cfd0cb" font-family="Secular One" font-size="25"><tspan x="0" y="0">1693 49th Street</tspan></text>
  </g>
  <g id="greeting*">
    <text transform="translate(573.9 728.2) scale(.9 1)" text-anchor="middle" fill="#cfd0cb" font-family="Secular One" font-size="32"><tspan x="0" y="0">ידידכם המצפה לקבל פניכם</tspan></text>
  </g>
  <g id="host_name*">
    <text transform="translate(573.9 771) scale(.9 1)" text-anchor="middle" fill="#c96d03" font-family="Secular One" font-size="37"><tspan x="0" y="0">מרדכי זאב ראטה</tspan></text>
  </g>
  <g id="father_name_1*">
    <text transform="translate(573.9 801) scale(.9 1)" text-anchor="middle" fill="#cfd0cb" font-family="Secular One" font-size="20"><tspan x="0" y="0">ב״ר בנימין משה הי״וו</tspan></text>
  </g>
  <g id="father_name_2*">
    <text transform="translate(573.9 824.6) scale(.9 1)" text-anchor="middle" fill="#cfd0cb" font-family="Secular One" font-size="20"><tspan x="0" y="0">חתן בערל גרינפעלד הי״וו</tspan></text>
  </g>
</svg>