<svg xmlns="http://www.w3.org/2000/svg" id="Layer_1" data-name="Layer 1" viewBox="0 0 360 504">
  <text transform="translate(180 138.2) scale(1.2 1)" text-anchor="middle" fill="#fff" font-family="Heebo" font-size="7.5"><tspan x="0" y="0">מתוך שבח והודאה להשי״ת</tspan></text>
  <text transform="translate(180 149.1) scale(1.2 1)" text-anchor="middle" fill="#fff" font-family="Heebo" font-size="7.5"><tspan x="0" y="0">על כל הטוב אשר גמלנו</tspan></text>
  <text transform="translate(180 163) scale(1.2 1)" text-anchor="middle" fill="#fff" font-family="Heebo" font-size="12.2"><tspan x="0" y="0">בשמחת הולדת בני שיחי׳</tspan></text>
  <text transform="translate(180 178.4) scale(1.2 1)" text-anchor="middle" fill="#fff" font-family="Heebo" font-size="9"><tspan x="0" y="0">למזל טוב</tspan></text>
  <text transform="translate(180 191) scale(1.2 1)" text-anchor="middle" fill="#fff" font-family="Heebo" font-size="7.5"><tspan x="0" y="0">אתכבד בזה להזמין את כל קרובי וידידי</tspan></text>
  <text transform="translate(180 199.8) scale(1.2 1)" text-anchor="middle" fill="#fff" font-family="Heebo" font-size="7.5"><tspan x="0" y="0">לבוא ולהשתתף בשמחתי אצל</tspan></text>
  <text transform="translate(180 242.3) scale(.7 1)" text-anchor="middle" fill="#fff" font-family="Heebo" font-size="48" font-weight="900"><tspan x="0" y="0">שלום זכר</tspan></text>
  <text transform="translate(180 269) scale(1.1 1)" text-anchor="middle" fill="#fff" font-family="Heebo" font-size="13.1"><tspan x="0" y="0">שתקיים אי״ה בליל שבת קודש</tspan></text>
  <text transform="translate(180 340.3) scale(1.1 1)" text-anchor="middle" fill="#fff" font-family="Heebo" font-size="11.4"><tspan x="0" y="0">ידידכם המצפה לקבל פניכם</tspan></text>
  <g id="parsha*">
    <text transform="translate(180 292.1) scale(1.1 1)" text-anchor="middle" fill="#fff" font-family="Heebo" font-size="18.6"><tspan x="0" y="0">פרשת נשא</tspan></text>
  </g>
  <g id="location*">
    <text transform="translate(180 311.2) scale(1.1 1)" text-anchor="middle" fill="#fff" font-family="Heebo" font-size="8.9"><tspan x="0" y="0">בביהמ״ד לעלוב</tspan></text>
  </g>
  <g id="street*">
    <text transform="translate(180 323.4) scale(1.1 1)" text-anchor="middle" fill="#fff" font-family="Heebo" font-size="8.9"><tspan x="0" y="0">1693 49th Street</tspan></text>
  </g>
  <g id="host_name*">
    <text transform="translate(180 355.9) scale(1.1 1)" text-anchor="middle" fill="#fff" font-family="Heebo" font-size="13.2"><tspan x="0" y="0">מרדכי זאב ראטה</tspan></text>
  </g>
  <g id="father_name_1*">
    <text transform="translate(180 374.8) scale(1.1 1)" text-anchor="middle" fill="#fff" font-family="Heebo" font-size="7.1"><tspan x="0" y="0">ב״ר בנימין משה הי״וו</tspan></text>
  </g>
  <g id="father_name_2*">
    <text transform="translate(180 384.8) scale(1.1 1)" text-anchor="middle" fill="#fff" font-family="Heebo" font-size="7.1"><tspan x="0" y="0">חתן בערל גרינפעלד הי״וו</tspan></text>
  </g>
</svg>
