<svg xmlns="http://www.w3.org/2000/svg" id="Layer_1" data-name="Layer 1" viewBox="0 0 864 1216">
  <text transform="translate(569.8 95.8) scale(.9 1)" text-anchor="middle" fill="#cfd0cb" font-family="Secular One">
    <tspan font-size="37.1" x="0" y="0">מתוך שבח והודאה להשי״ת</tspan>
    <tspan font-size="37.1" x="0" y="44.5">על כל הטוב אשר גמלנו</tspan>
    <tspan font-size="57" x="0" y="112.9">בשמחת הולדת בני שיחי׳</tspan>
    <tspan font-size="40.1" x="0" y="161">למזל טוב</tspan>
    <tspan font-size="37.1" x="0" y="205.5">אתכבד בזה להזמין את כל קרובי וידידי</tspan>
    <tspan font-size="37.1" x="0" y="249.9">לבוא ולהשתתף בשמחתי אצל</tspan>
  </text>
  <text transform="translate(569.8 486.2) scale(.7 1)" text-anchor="middle" fill="#c96d03" font-family="Secular One" font-size="162.9"><tspan x="0" y="0">שלום זכר</tspan></text>
  <text transform="translate(569.8 567.7) scale(.9 1)" text-anchor="middle" fill="#cfd0cb" font-family="Secular One" font-size="36.8"><tspan x="0" y="0">שתקיים אי״ה בליל שבת קודש</tspan></text>
  <g id="parsha">
    <text transform="translate(569.8 615.9) scale(.9 1)" text-anchor="middle" fill="#cfd0cb" font-family="Secular One" font-size="52"><tspan x="0" y="0">פרשת נשא</tspan></text>
  </g>
  <g id="location">
    <text transform="translate(569.8 647.2) scale(.9 1)" text-anchor="middle" fill="#cfd0cb" font-family="Secular One" font-size="25"><tspan x="0" y="0">בביהמ״ד לעלוב</tspan><tspan x="0" y="30">1693 49th Street</tspan></text>
  </g>
  <text transform="translate(569.8 722.1) scale(.9 1)" text-anchor="middle" fill="#cfd0cb" font-family="Secular One" font-size="32"><tspan x="0" y="0">ידידכם המצפה לקבל פניכם</tspan></text>
  <g id="host_name">
    <text transform="translate(569.8 764.9) scale(.9 1)" text-anchor="middle" fill="#c96d03" font-family="Secular One" font-size="37"><tspan x="0" y="0">מרדכי זאב ראטה</tspan></text>
  </g>
  <g id="father_name_1">
    <text transform="translate(569.8 794.9) scale(.9 1)" text-anchor="middle" fill="#cfd0cb" font-family="Secular One" font-size="20"><tspan x="0" y="0">ב״ר בנימין משה הי״וו</tspan></text>
  </g>
  <g id="father_name_2">
    <text transform="translate(569.8 818.5) scale(.9 1)" text-anchor="middle" fill="#cfd0cb" font-family="Secular One" font-size="20"><tspan x="0" y="0">חתן בערל גרינעלד הי״וו</tspan></text>
  </g>
</svg>
