<svg xmlns="http://www.w3.org/2000/svg" id="Layer_1" data-name="Layer 1" viewBox="0 0 360 504">
  <text transform="translate(180 63.5) scale(1 1)" text-anchor="middle" fill="#b9c1c9" font-family="Secular One" font-size="12.6"><tspan x="0" y="0">מתוך שבח והודאה להשי״ת</tspan></text>
  <text transform="translate(180 78.4) scale(1 1)" text-anchor="middle" fill="#b9c1c9" font-family="Secular One" font-size="12.6"><tspan x="0" y="0">על כל הטוב אשר גמלנו</tspan></text>
  <text transform="translate(180 99.1) scale(1 1)" text-anchor="middle" fill="#b9c1c9" font-family="Secular One" font-size="19.4"><tspan x="0" y="0">בשמחת הולדת בני שיחי׳</tspan></text>
  <text transform="translate(180 116.7) scale(1 1)" text-anchor="middle" fill="#b9c1c9" font-family="Secular One" font-size="13.6"><tspan x="0" y="0">למזל טוב</tspan></text>
  <text transform="translate(180 133.5) scale(1 1)" text-anchor="middle" fill="#b9c1c9" font-family="Secular One" font-size="12.4"><tspan x="0" y="0">אתכבד בזה להזמין את כל קרובי וידידי</tspan></text>
  <text transform="translate(180 148.4) scale(1 1)" text-anchor="middle" fill="#b9c1c9" font-family="Secular One" font-size="12.6"><tspan x="0" y="0">לבוא ולהשתתף בשמחתי אצל</tspan></text>
  <text transform="translate(180 242.7) scale(.8 1)" text-anchor="middle" fill="#b9c1c9" font-family="Secular One" font-size="17.9"><tspan x="0" y="0">שתקיים אי״ה בליל שבת קודש</tspan></text>
  <g id="parsha*">
    <text transform="translate(180 266.2) scale(.8 1)" text-anchor="middle" fill="#b9c1c9" font-family="Secular One" font-size="25.3"><tspan x="0" y="0">פרשת נשא</tspan></text>
  </g>
  <g id="location*">
    <text transform="translate(180 281.4) scale(.8 1)" text-anchor="middle" fill="#b9c1c9" font-family="Secular One" font-size="12.2"><tspan x="0" y="0">בביהמ״ד לעלוב</tspan></text>
  </g>
  <g id="street*">
    <text transform="translate(180 293.5) scale(.8 1)" text-anchor="middle" fill="#b9c1c9" font-family="Secular One" font-size="12.2"><tspan x="0" y="0">1693 49th Street</tspan></text>
  </g>
  <g id="greeting*">
    <text transform="translate(180 317.9) scale(.8 1)" text-anchor="middle" fill="#b9c1c9" font-family="Secular One" font-size="15.6"><tspan x="0" y="0">ידידכם המצפה לקבל פניכם</tspan></text>
  </g>
  <g id="host_name*">
    <text transform="translate(180 338.7) scale(.8 1)" text-anchor="middle" fill="#b9c1c9" font-family="Secular One" font-size="18"><tspan x="0" y="0">מרדכי זאב ראטה</tspan></text>
  </g>
  <g id="father_name_1*">
    <text transform="translate(180 353.4) scale(.8 1)" text-anchor="middle" fill="#b9c1c9" font-family="Secular One" font-size="9.7"><tspan x="0" y="0">ב״ר בנימין משה הי״וו</tspan></text>
  </g>
  <g id="father_name_2*">
    <text transform="translate(180 364.9) scale(.8 1)" text-anchor="middle" fill="#b9c1c9" font-family="Secular One" font-size="9.7"><tspan x="0" y="0">חתן בערל גרינפעלד הי״וו</tspan></text>
  </g>
</svg>
