<svg xmlns="http://www.w3.org/2000/svg" id="Layer_1" data-name="Layer 1" viewBox="0 0 215 288">
  <text transform="translate(107.5 105.3) scale(1.1 1)" text-anchor="middle" fill="#d1b5a4" font-family="Secular One" font-size="9"><tspan x="0" y="0">בשמחת הולדת בני שיחי׳</tspan></text>
  <text transform="translate(107.5 114.7) scale(1.1 1)" text-anchor="middle" fill="#d1b5a4" font-family="Secular One" font-size="11"><tspan x="0" y="0">למזל טוב</tspan></text>
  <text transform="translate(107.5 121.4) scale(1.1 1)" text-anchor="middle" fill="#d1b5a4" font-family="Secular One" font-size="7"><tspan x="0" y="0">אתכבד בזה להזמין את כל קרובי וידידי</tspan></text>
  <text transform="translate(107.5 127.6) scale(1.1 1)" text-anchor="middle" fill="#d1b5a4" font-family="Secular One" font-size="7"><tspan x="0" y="0">לבוא ולהשתתף בשמחתי אצל</tspan></text>
  <text transform="translate(107.5 156.5) scale(.7 1)" text-anchor="middle" fill="#fff" font-family="Heebo" font-size="36" font-weight="900"><tspan x="0" y="0">שלום זכר</tspan></text>
  <text transform="translate(107.5 168.8) scale(.9 1)" text-anchor="middle" fill="#d1b5a4" font-family="Secular One" font-size="8"><tspan x="0" y="0">שתקיים אי״ה בליל שבת קודש</tspan></text>
  <g id="parsha">
    <text transform="translate(107.5 178) scale(.9 1)" text-anchor="middle" fill="#d1b5a4" font-family="Secular One" font-size="11"><tspan x="0" y="0">פרשת נשא</tspan></text>
  </g>
  <g id="location">
    <text transform="translate(107.5 183.5) scale(.9 1)" text-anchor="middle" fill="#d1b5a4" font-family="Secular One" font-size="4"><tspan x="0" y="0">בביהמ״ד לעלוב</tspan><tspan x="0" y="4.2">1693 49th Street</tspan></text>
  </g>
  <text transform="translate(107.5 196.3) scale(.9 1)" text-anchor="middle" fill="#d1b5a4" font-family="Secular One" font-size="5"><tspan x="0" y="0">ידידכם המצפה לקבל פניכם</tspan></text>
  <g id="host_name">
    <text transform="translate(107.5 203.1) scale(.9 1)" text-anchor="middle" fill="#d1b5a4" font-family="Secular One" font-size="9"><tspan x="0" y="0">מרדכי זאב ראטה</tspan></text>
  </g>
  <g id="father_name_1">
    <text transform="translate(107.5 208.4) scale(.9 1)" text-anchor="middle" fill="#d1b5a4" font-family="Secular One" font-size="4"><tspan x="0" y="0">ב״ר בנימין משה הי״וו</tspan></text>
  </g>
  <g id="father_name_2">
    <text transform="translate(107.5 211.8) scale(.9 1)" text-anchor="middle" fill="#d1b5a4" font-family="Secular One" font-size="4"><tspan x="0" y="0">חתן בערל גרינפעלד הי״וו</tspan></text>
  </g>
</svg>
