<svg xmlns="http://www.w3.org/2000/svg" id="Layer_1" data-name="Layer 1" viewBox="0 0 360 504">
  <text transform="translate(180 179.6) scale(1.1 1)" text-anchor="middle" fill="#d1b5a4" font-family="Secular One" font-size="14.6"><tspan x="0" y="0">בשמחת הולדת בני שיחי׳</tspan></text>
  <text transform="translate(180 194.9) scale(1.1 1)" text-anchor="middle" fill="#d1b5a4" font-family="Secular One" font-size="17.8"><tspan x="0" y="0">למזל טוב</tspan></text>
  <text transform="translate(180 205.6) scale(1.1 1)" text-anchor="middle" fill="#d1b5a4" font-family="Secular One" font-size="11.3"><tspan x="0" y="0">אתכבד בזה להזמין את כל קרובי וידידי</tspan></text>
  <text transform="translate(180 215.8) scale(1.1 1)" text-anchor="middle" fill="#d1b5a4" font-family="Secular One" font-size="11.3"><tspan x="0" y="0">לבוא ולהשתתף בשמחתי אצל</tspan></text>
  <text transform="translate(180 262.5) scale(.7 1)" text-anchor="middle" fill="#fff" font-family="Heebo" font-size="58.3" font-weight="900"><tspan x="0" y="0">שלום זכר</tspan></text>
  <text transform="translate(180 282.5) scale(.9 1)" text-anchor="middle" fill="#d1b5a4" font-family="Secular One" font-size="13"><tspan x="0" y="0">שתקיים אי״ה בליל שבת קודש</tspan></text>
  <text transform="translate(180 297.4) scale(.9 1)" text-anchor="middle" fill="#d1b5a4" font-family="Secular One" font-size="17.8"><tspan x="0" y="0">פרשת נשא</tspan></text>
  <g id="location*">
    <text transform="translate(180 306.3) scale(.9 1)" text-anchor="middle" fill="#d1b5a4" font-family="Secular One" font-size="6.5"><tspan x="0" y="0">בביהמ״ד לעלוב</tspan></text>
  </g>
  <g id="street*">
    <text transform="translate(180 313.1) scale(.9 1)" text-anchor="middle" fill="#d1b5a4" font-family="Secular One" font-size="6.5"><tspan x="0" y="0">1693 49th Street</tspan></text>
  </g>
  <g id="greeting*">
    <text transform="translate(180 327) scale(.9 1)" text-anchor="middle" fill="#d1b5a4" font-family="Secular One" font-size="8.1"><tspan x="0" y="0">ידידכם המצפה לקבל פניכם</tspan></text>
  </g>
  <g id="host_name*">
    <text transform="translate(180 338) scale(.9 1)" text-anchor="middle" fill="#d1b5a4" font-family="Secular One" font-size="14.6"><tspan x="0" y="0">מרדכי זאב ראטה</tspan></text>
  </g>
  <g id="father_name_1*">
    <text transform="translate(180 346.6) scale(.9 1)" text-anchor="middle" fill="#d1b5a4" font-family="Secular One" font-size="6.5"><tspan x="0" y="0">ב״ר בנימין משה הי״וו</tspan></text>
  </g>
  <g id="father_name_2*">
    <text transform="translate(180 352.1) scale(.9 1)" text-anchor="middle" fill="#d1b5a4" font-family="Secular One" font-size="6.5"><tspan x="0" y="0">חתן בערל גרינפעלד הי״וו</tspan></text>
  </g>
</svg>
