<svg xmlns="http://www.w3.org/2000/svg" id="Layer_1" data-name="Layer 1" viewBox="0 0 360 504">
  <text transform="translate(180 161.8) scale(1.2 1)" text-anchor="middle" fill="#d4b488" font-family="Heebo" font-size="9" font-weight="700"><tspan x="0" y="0">בשמחת הולדת בני שיחי׳</tspan></text>
  <text transform="translate(180 175.4) scale(1.2 1)" text-anchor="middle" fill="#d4b488" font-family="Heebo" font-size="13" font-weight="700"><tspan x="0" y="0">למזל טוב</tspan></text>
  <text transform="translate(180 189) scale(1.2 1)" text-anchor="middle" fill="#d4b488" font-family="Heebo" font-size="7.5" font-weight="700"><tspan x="0" y="0">אתכבד בזה להזמין את כל קרובי וידידי</tspan></text>
  <text transform="translate(180 198.3) scale(1.2 1)" text-anchor="middle" fill="#d4b488" font-family="Heebo" font-size="7.5" font-weight="700"><tspan x="0" y="0">לבוא ולהשתתף בשמחתי אצל</tspan></text>
  <text transform="translate(180 279.7) scale(1.1 1)" text-anchor="middle" fill="#d4b488" font-family="Heebo" font-size="13.1" font-weight="600"><tspan x="0" y="0">שתקיים אי״ה בליל שבת קודש</tspan></text>
  <text transform="translate(180 302.8) scale(1.1 1)" text-anchor="middle" fill="#d4b488" font-family="Heebo" font-size="18.6" font-weight="600"><tspan x="0" y="0">פרשת נשא</tspan></text>
  <text transform="translate(180 321.9) scale(1.1 1)" text-anchor="middle" fill="#d4b488" font-family="Heebo" font-size="8.9" font-weight="600"><tspan x="0" y="0">בביהמ״ד לעלוב</tspan><tspan x="0" y="10.7">1693 49th Street</tspan></text>
  <text transform="translate(180 351) scale(1.1 1)" text-anchor="middle" fill="#d4b488" font-family="Heebo" font-size="11.4" font-weight="600"><tspan x="0" y="0">ידידכם המצפה לקבל פניכם</tspan></text>
  <text transform="translate(180 366.6) scale(1.1 1)" text-anchor="middle" fill="#d4b488" font-family="Heebo" font-size="13.2" font-weight="600"><tspan x="0" y="0">מרדכי זאב ראטה</tspan></text>
  <text transform="translate(180 385.1) scale(1.1 1)" text-anchor="middle" fill="#d4b488" font-family="Heebo" font-size="7.1" font-weight="600"><tspan x="0" y="0">ב״ר בנימין משה הי״וו</tspan></text>
  <text transform="translate(180 395.2) scale(1.1 1)" text-anchor="middle" fill="#d4b488" font-family="Heebo" font-size="7.1" font-weight="600"><tspan x="0" y="0">חתן בערל גרינעלד הי״וו</tspan></text>
</svg>
