<svg xmlns="http://www.w3.org/2000/svg" id="Layer_1" data-name="Layer 1" viewBox="0 0 360 504">
  <text transform="translate(180 97.2) scale(1.2 1)" text-anchor="middle" fill="#e8c37f" font-family="Heebo" font-size="9.6"><tspan x="0" y="0">מתוך שבח והודאה להשי״ת</tspan></text>
  <text transform="translate(180 111.4) scale(1.2 1)" text-anchor="middle" fill="#e8c37f" font-family="Heebo" font-size="9.6"><tspan x="0" y="0">על כל הטוב אשר גמלנו</tspan></text>
  <text transform="translate(180 129.2) scale(1.2 1)" text-anchor="middle" fill="#e8c37f" font-family="Heebo" font-size="15.7"><tspan x="0" y="0">בשמחת הולדת בני שיחי׳</tspan></text>
  <text transform="translate(180 149.2) scale(1.2 1)" text-anchor="middle" fill="#e8c37f" font-family="Heebo" font-size="11.6"><tspan x="0" y="0">למזל טוב</tspan></text>
  <text transform="translate(180 165.4) scale(1.2 1)" text-anchor="middle" fill="#e8c37f" font-family="Heebo" font-size="9.6"><tspan x="0" y="0">אתכבד בזה להזמין את כל קרובי וידידי</tspan></text>
  <text transform="translate(180 176.8) scale(1.2 1)" text-anchor="middle" fill="#e8c37f" font-family="Heebo" font-size="9.6"><tspan x="0" y="0">לבוא ולהשתתף בשמחתי אצל</tspan></text>
  <text transform="translate(180 231.7) scale(.7 1)" text-anchor="middle" fill="#74787c" font-family="Heebo" font-size="62" font-weight="900"><tspan x="0" y="0">שלום זכר</tspan></text>
  <text transform="translate(180 266.3) scale(1.1 1)" text-anchor="middle" fill="#e8c37f" font-family="Heebo" font-size="17"><tspan x="0" y="0">שתקיים אי״ה בליל שבת קודש</tspan></text>
  <text transform="translate(180 358.4) scale(1.1 1)" text-anchor="middle" fill="#e8c37f" font-family="Heebo" font-size="14.8"><tspan x="0" y="0">ידידכם המצפה לקבל פניכם</tspan></text>
  <g id="parsha*">
    <text transform="translate(180 296.1) scale(1.1 1)" text-anchor="middle" fill="#e8c37f" font-family="Heebo" font-size="24"><tspan x="0" y="0">פרשת נשא</tspan></text>
  </g>
  <g id="location*">
    <text transform="translate(180 320.8) scale(1.1 1)" text-anchor="middle" fill="#e8c37f" font-family="Heebo" font-size="11.5"><tspan x="0" y="0">בביהמ״ד לעלוב</tspan></text>
  </g>
  <g id="street*">
    <text transform="translate(180 334.6) scale(1.1 1)" text-anchor="middle" fill="#e8c37f" font-family="Heebo" font-size="11.5"><tspan x="0" y="0">1693 49th Street</tspan></text>
  </g>
  <g id="host_name*">
    <text transform="translate(180 378.6) scale(1.1 1)" text-anchor="middle" fill="#e8c37f" font-family="Heebo" font-size="17.1"><tspan x="0" y="0">מרדכי זאב ראטה</tspan></text>
  </g>
  <g id="father_name_1*">
    <text transform="translate(180 402.9) scale(1.1 1)" text-anchor="middle" fill="#e8c37f" font-family="Heebo" font-size="9.2"><tspan x="0" y="0">ב״ר בנימין משה הי״וו</tspan></text>
  </g>
  <g id="father_name_2*">
    <text transform="translate(180 415.9) scale(1.1 1)" text-anchor="middle" fill="#e8c37f" font-family="Heebo" font-size="9.2"><tspan x="0" y="0">חתן בערל גרינפעלד הי״וו</tspan></text>
  </g>
</svg>
