<svg xmlns="http://www.w3.org/2000/svg" id="Layer_1" data-name="Layer 1" viewBox="0 0 360 504">
  <text transform="translate(180 116.5) scale(1.2 1)" text-anchor="middle" fill="#fff" font-family="Heebo" font-size="8.3"><tspan x="0" y="0">מתוך שבח והודאה להשי״ת</tspan></text>
  <text transform="translate(180 127.5) scale(1.2 1)" text-anchor="middle" fill="#fff" font-family="Heebo" font-size="8.3"><tspan x="0" y="0">על כל הטוב אשר גמלנו</tspan></text>
  <text transform="translate(180 143.2) scale(1.2 1)" text-anchor="middle" fill="#fff" font-family="Heebo" font-size="13.6"><tspan x="0" y="0">בשמחת הולדת בני שיחי׳</tspan></text>
  <text transform="translate(180 161) scale(1.2 1)" text-anchor="middle" fill="#fff" font-family="Heebo" font-size="10.1"><tspan x="0" y="0">למזל טוב</tspan></text>
  <text transform="translate(180 174.2) scale(1.2 1)" text-anchor="middle" fill="#fff" font-family="Heebo" font-size="8.3"><tspan x="0" y="0">אתכבד בזה להזמין את כל קרובי וידידי</tspan></text>
  <text transform="translate(180 184.1) scale(1.2 1)" text-anchor="middle" fill="#fff" font-family="Heebo" font-size="8.3"><tspan x="0" y="0">לבוא ולהשתתף בשמחתי אצל</tspan></text>
  <text transform="translate(180 241.7) scale(.6 1)" text-anchor="middle" fill="#fff" font-family="Heebo" font-size="64" font-weight="900"><tspan x="0" y="0">שלום זכר</tspan></text>
  <text transform="translate(180 269.8)" text-anchor="middle" fill="#fff" font-family="Heebo" font-size="15.2"><tspan x="0" y="0">שתקיים אי״ה בליל שבת קודש</tspan></text>
  <g id="parsha*">
    <text transform="translate(180 289.7)" text-anchor="middle" fill="#fff" font-family="Heebo" font-size="21.4"><tspan x="0" y="0">פרשת נשא</tspan></text>
  </g>
  <g id="location*">
    <text transform="translate(180 311.8)" text-anchor="middle" fill="#fff" font-family="Heebo" font-size="10.3"><tspan x="0" y="0">בביהמ״ד לעלוב</tspan><tspan x="0" y="11.4">1693 49th Street</tspan></text>
  </g>
  <text transform="translate(180 348.7)" text-anchor="middle" fill="#fff" font-family="Heebo" font-size="13.2"><tspan x="0" y="0">ידידכם המצפה לקבל פניכם</tspan></text>
  <g id="host_name*">
    <text transform="translate(180 363.3)" text-anchor="middle" fill="#fff" font-family="Heebo" font-size="15.2"><tspan x="0" y="0">מרדכי זאב ראטה</tspan></text>
  </g>
  <g id="father_name_1*">
    <text transform="translate(180 384.7)" text-anchor="middle" fill="#fff" font-family="Heebo" font-size="8.2"><tspan x="0" y="0">ב״ר בנימין משה הי״וו</tspan></text>
  </g>
  <g id="father_name_2*">
    <text transform="translate(180 396.3)" text-anchor="middle" fill="#fff" font-family="Heebo" font-size="8.2"><tspan x="0" y="0">חתן בערל גרינפעלד הי״וו</tspan></text>
  </g>
</svg>
