<svg xmlns="http://www.w3.org/2000/svg" id="Layer_1" data-name="Layer 1" viewBox="0 0 360 504">
  <text transform="translate(180 98) scale(1 1)" text-anchor="middle" fill="#471a0e" font-family="Secular One" font-size="13.3"><tspan x="0" y="0">מתוך שבח והודאה להשי״ת</tspan></text>
  <text transform="translate(180 113.8) scale(1 1)" text-anchor="middle" fill="#471a0e" font-family="Secular One" font-size="13.3"><tspan x="0" y="0">על כל הטוב אשר גמלנו</tspan></text>
  <text transform="translate(180 135.6) scale(1 1)" text-anchor="middle" fill="#471a0e" font-family="Secular One" font-size="20.5"><tspan x="0" y="0">בשמחת הולדת בני שיחי׳</tspan></text>
  <text transform="translate(180 154.1) scale(1 1)" text-anchor="middle" fill="#471a0e" font-family="Secular One" font-size="14.4"><tspan x="0" y="0">למזל טוב</tspan></text>
  <text transform="translate(180 172.5) scale(1 1)" text-anchor="middle" fill="#471a0e" font-family="Secular One" font-size="13.1"><tspan x="0" y="0">אתכבד בזה להזמין את כל קרובי וידידי</tspan></text>
  <text transform="translate(180 187.7) scale(1 1)" text-anchor="middle" fill="#471a0e" font-family="Secular One" font-size="13.3"><tspan x="0" y="0">לבוא ולהשתתף בשמחתי אצל</tspan></text>
  <text transform="translate(180 288.5) scale(.8 1)" text-anchor="middle" fill="#471a0e" font-family="Secular One" font-size="18.3"><tspan x="0" y="0">שתקיים אי״ה בליל שבת קודש</tspan></text>
  <g id="parsha*">
    <text transform="translate(180 312.6) scale(.8 1)" text-anchor="middle" fill="#471a0e" font-family="Secular One" font-size="25.9"><tspan x="0" y="0">פרשת נשא</tspan></text>
  </g>
  <g id="location*">
    <text transform="translate(180 328.1) scale(.8 1)" text-anchor="middle" fill="#471a0e" font-family="Secular One" font-size="12.4"><tspan x="0" y="0">בביהמ״ד לעלוב</tspan></text>
  </g>
  <g id="street*">
    <text transform="translate(180 340.4) scale(.8 1)" text-anchor="middle" fill="#471a0e" font-family="Secular One" font-size="12.4"><tspan x="0" y="0">1693 49th Street</tspan></text>
  </g>
  <g id="greeting*">
    <text transform="translate(180 365.4) scale(.8 1)" text-anchor="middle" fill="#471a0e" font-family="Secular One" font-size="15.9"><tspan x="0" y="0">ידידכם המצפה לקבל פניכם</tspan></text>
  </g>
  <g id="host_name*">
    <text transform="translate(180 386.7) scale(.8 1)" text-anchor="middle" fill="#471a0e" font-family="Secular One" font-size="18.4"><tspan x="0" y="0">מרדכי זאב ראטה</tspan></text>
  </g>
  <g id="father_name_1*">
    <text transform="translate(180 401.7) scale(.8 1)" text-anchor="middle" fill="#471a0e" font-family="Secular One" font-size="10"><tspan x="0" y="0">ב״ר בנימין משה הי״וו</tspan></text>
  </g>
  <g id="father_name_2*">
    <text transform="translate(180 413.4) scale(.8 1)" text-anchor="middle" fill="#471a0e" font-family="Secular One" font-size="10"><tspan x="0" y="0">חתן בערל גרינפעלד הי״וו</tspan></text>
  </g>
</svg>
