<svg xmlns="http://www.w3.org/2000/svg" id="Layer_1" data-name="Layer 1" viewBox="0 0 360 504">
  <text transform="translate(206.6 40.9) scale(1 1)" text-anchor="start" fill="#d1a369" font-family="Heebo" font-size="12"><tspan x="0" y="0">מתוך שבח והודאה להשי״ת</tspan></text>
  <text transform="translate(224.2 54) scale(1 1)" text-anchor="start" fill="#d1a369" font-family="Heebo" font-size="12"><tspan x="0" y="0">על כל הטוב אשר גמלנו</tspan></text>
  <text transform="translate(122.2 73.3) scale(1 1)" text-anchor="start" fill="#d1a369" font-family="Heebo" font-size="21" font-weight="600"><tspan x="0" y="0">בשמחת הולדת בני שיחי׳</tspan></text>
  <text transform="translate(273 92.8) scale(1 1)" text-anchor="start" fill="#d1a369" font-family="Heebo" font-size="17.1"><tspan x="0" y="0">למזל טוב</tspan></text>
  <text transform="translate(181.7 107.4) scale(1 1)" text-anchor="start" fill="#d1a369" font-family="Heebo" font-size="13"><tspan x="0" y="0">לבוא ולהשתתף בשמחתי אצל</tspan></text>
  <text transform="translate(137.2 121.7) scale(1 1)" text-anchor="start" fill="#d1a369" font-family="Heebo" font-size="13"><tspan x="0" y="0">אתכבד בזה להזמין את כל קרובי וידידי</tspan></text>
  <text transform="translate(62.6 219.1) scale(.6 1)" text-anchor="start" fill="#f2bb78" font-family="Secular One" font-size="124"><tspan x="0" y="0">שלום זכר</tspan></text>
  <text transform="translate(181.2 261.9) scale(.8 1)" text-anchor="start" fill="#d1a369" font-family="Heebo" font-size="15" font-weight="600"><tspan x="0" y="0">שתקיים אי״ה בליל שבת קודש</tspan></text>
  <g id="parsha*">
    <text transform="translate(253.3 281.6) scale(.8 1)" text-anchor="start" fill="#d1a369" font-family="Heebo" font-size="21.2" font-weight="600"><tspan x="0" y="0">פרשת נשא</tspan></text>
  </g>
  <g id="location*">
    <text transform="translate(280.3 294.4) scale(.8 1)" text-anchor="start" fill="#d1a369" font-family="Heebo" font-size="10.2" font-weight="600"><tspan x="0" y="0">בביהמ״ד לעלוב</tspan></text>
  </g>
  <g id="street*">
    <text transform="translate(275.8 308.5) scale(.8 1)" text-anchor="start" fill="#d1a369" font-family="Heebo" font-size="10.2" font-weight="600"><tspan x="0" y="0">1693 49th Steet</tspan></text>
  </g>
  <text transform="translate(235.7 328.5) scale(.8 1)" text-anchor="start" fill="#d1a369" font-family="Secular One" font-size="11.5"><tspan x="0" y="0">ידידכם המצפה לקבל פניכם</tspan></text>
  <g id="host_name*">
    <text transform="translate(241.8 349) scale(.8 1)" text-anchor="start" fill="#d1a369" font-family="Secular One" font-size="17.8"><tspan x="0" y="0">מרדכי זאב ראטה</tspan></text>
  </g>
  <g id="father_name_1*">
    <text transform="translate(268.8 363.5) scale(.8 1)" text-anchor="start" fill="#d1a369" font-family="Secular One" font-size="9.6"><tspan x="0" y="0">ב״ר בנימין משה הי״וו</tspan></text>
  </g>
  <g id="father_name_2*">
    <text transform="translate(258.9 374.8) scale(.8 1)" text-anchor="start" fill="#d1a369" font-family="Secular One" font-size="9.6"><tspan x="0" y="0">חתן בערל גרינפעלד הי״וו</tspan></text>
  </g>
</svg>