<?xml version="1.0" encoding="UTF-8"?>
<svg id="Layer_1" data-name="Layer 1" xmlns="http://www.w3.org/2000/svg" viewBox="0 0 360 504">
  <text/>
  <text transform="translate(146 407.2) scale(.8 1)" fill="#335678" font-family="SecularOne-Regular, &apos;Secular One&apos;" font-size="8.7"><tspan x="0" y="0">חתן בערל גרינעלד הי״וו</tspan></text>
  <text transform="translate(136.2 384) scale(.8 1)" fill="#335678" font-family="SecularOne-Regular, &apos;Secular One&apos;" font-size="16"><tspan x="0" y="0">מרדכי זאב ראטה</tspan></text>
  <text transform="translate(117.3 365.5) scale(.8 1)" fill="#335678" font-family="SecularOne-Regular, &apos;Secular One&apos;" font-size="13.9"><tspan x="0" y="0">ידידכם המצפה לקבל פניכם</tspan><tspan x="150.5" y="0"> </tspan></text>
  <text transform="translate(148.7 397) scale(.8 1)" fill="#335678" font-family="SecularOne-Regular, &apos;Secular One&apos;" font-size="8.7"><tspan x="0" y="0">ב״ר בנימין משה הי״וו</tspan></text>
  <text transform="translate(151.2 333) scale(.8 1)" fill="#335678" font-family="SecularOne-Regular, &apos;Secular One&apos;" font-size="10.8"><tspan x="0" y="0">בביהמ״ד לעלוב</tspan><tspan x="68.2" y="0"> </tspan><tspan x="-2.7" y="13">1693 49th Steet</tspan></text>
  <text transform="translate(99.6 298.6) scale(.8 1)" fill="#335678" font-family="SecularOne-Regular, &apos;Secular One&apos;" font-size="15.9"><tspan x="0" y="0">שתקיים אי״ה בליל שבת קודש</tspan><tspan x="193.4" y="0"> </tspan></text>
  <text transform="translate(140 319.5) scale(.8 1)" fill="#335678" font-family="SecularOne-Regular, &apos;Secular One&apos;" font-size="22.5"><tspan x="0" y="0">פרשת נשא</tspan></text>
  <text transform="translate(80.2 252) scale(.7 1)" fill="#0c1830" font-family="SecularOne-Regular, &apos;Secular One&apos;" font-size="70.6"><tspan x="0" y="0">שלום זכר</tspan><tspan x="264.2" y="0"> </tspan></text>
  <text transform="translate(119.3 108) scale(1 1)" fill="#335678" font-family="Heebo-Bold, Heebo" font-variation-settings="&apos;wght&apos; 700" font-weight="700"><tspan font-size="10.7"><tspan x="0" y="0">מתוך שבח והודאה להשי״ת</tspan></tspan><tspan font-size="10.7"><tspan x="9.3" y="12.9">על כל הטוב אשר גמלנו</tspan></tspan><tspan font-size="16.5"><tspan x="-26.6" y="32.6">בשמחת הולדת בני שיחי׳</tspan><tspan x="145.5" y="32.6"> </tspan></tspan><tspan font-size="11.6"><tspan x="37.6" y="46.5">למזל טוב</tspan><tspan x="82.5" y="46.5"> </tspan></tspan><tspan font-size="10.7"><tspan x="-26" y="59.4">אתכבד בזה להזמין את כל קרובי וידידי</tspan><tspan x="146.4" y="59.4"> </tspan></tspan><tspan font-size="10.7"><tspan x="-7" y="72.3">לבוא ולהשתתף בשמחתי אצל</tspan><tspan x="127.4" y="72.3"> </tspan></tspan><tspan font-size="11.6"><tspan x="60.1" y="86.2"> </tspan></tspan></text>
</svg>